<svg width="180" height="76" viewBox="0 0 180 76" fill="none" xmlns="http://www.w3.org/2000/svg">
<mask id="mask0_1303_71127" style="mask-type:luminance" maskUnits="userSpaceOnUse" x="0" y="0" width="180" height="76">
<path d="M179.912 0H0V75.2019H179.912V0Z" fill="white"/>
</mask>
<g mask="url(#mask0_1303_71127)">
<path d="M30.9479 3.47406C30.627 2.96924 30.2511 2.50156 29.8271 2.07957C29.3929 1.74488 28.9097 1.47919 28.3944 1.29185C28.0513 1.1967 27.5919 1.40338 27.2402 1.33552C26.8884 1.26767 26.5445 0.912029 26.1842 0.912029C25.6148 0.912029 25.6148 0.90189 25.0478 0.90189C24.4808 0.90189 24.4785 1.27469 23.9099 1.27469C23.3414 1.27469 23.3398 0.865234 22.7736 0.865234C22.2074 0.865234 22.2042 1.07971 21.6357 1.07971C21.0671 1.07971 21.0679 1.39792 20.4993 1.39792C19.9308 1.39792 19.9316 1.25441 19.363 1.25441C18.7944 1.25441 18.7937 0.911249 18.2251 0.911249C17.6565 0.911249 17.6558 1.11949 17.0872 1.11949C16.5186 1.11949 16.5155 0.920608 15.947 0.920608C15.3784 0.920608 15.3776 1.14366 14.8091 1.14366C14.2405 1.14366 14.2397 1.0337 13.6712 1.0337C13.1026 1.0337 13.1003 1.2123 12.5317 1.2123C11.9631 1.2123 11.9624 1.11403 11.3938 1.11403C10.8252 1.11403 10.8245 1.27001 10.2559 1.27001C9.68735 1.27001 9.68657 1.28795 9.11801 1.28795C8.54945 1.28795 8.54711 1.43925 7.97855 1.43925C7.40999 1.43925 7.40765 1.45797 6.83909 1.45797C6.27053 1.45797 6.26663 1.20684 5.69339 1.20684C5.32682 1.20673 4.96111 1.24252 4.60151 1.31369C4.23651 1.38544 3.97758 1.70365 3.63909 1.84481C3.30061 1.98598 2.83812 1.87523 2.53473 2.07879C1.74953 2.67339 1.11702 3.44624 0.689447 4.33353C0.497637 4.78363 0.339656 5.2474 0.216817 5.721C0.108749 6.09843 0.0361615 6.48513 0 6.87606C0 7.25276 0.324445 7.51403 0.394638 7.86889C0.46795 8.23233 0.124787 8.72524 0.265172 9.05982C0.662005 9.70982 1.1051 10.3304 1.59103 10.9168C1.85074 11.1765 2.43256 11.0315 2.74063 11.2366C3.0487 11.4417 3.21404 11.8348 3.55642 11.9775C3.8988 12.1202 4.19439 12.454 4.55939 12.5234C4.94034 12.5154 5.31982 12.4736 5.69339 12.3986C6.21516 12.3986 6.21516 12.6599 6.7377 12.6599C7.26025 12.6599 7.26103 12.3519 7.78357 12.3519C8.30612 12.3519 8.30534 12.4564 8.82788 12.4564C9.35042 12.4564 9.34964 12.6295 9.87219 12.6295C10.3947 12.6295 10.3955 12.3316 10.9181 12.3316C11.4406 12.3316 11.4414 12.2817 11.9639 12.2817C12.4865 12.2817 12.7048 11.9939 12.885 12.4852C13.073 12.9929 12.7353 12.9282 12.3523 13.3112C11.9694 13.6941 11.999 13.7206 11.6176 14.102C11.2363 14.4834 11.0678 14.3172 10.6864 14.7002C10.305 15.0831 10.1849 14.963 9.802 15.3452C9.41906 15.7273 9.68579 15.9933 9.30519 16.3762C8.92459 16.7592 8.71089 16.5478 8.32951 16.9307C7.94813 17.3137 8.16495 17.5321 7.78357 17.915C7.40219 18.2979 7.27351 18.17 6.89057 18.553C6.50763 18.9359 6.3493 18.7745 5.96792 19.1574C5.58654 19.5403 5.77295 19.7267 5.39157 20.1081C5.01019 20.4895 5.17319 20.6541 4.79025 21.0393C4.40731 21.4246 4.06259 21.0776 3.67965 21.4605C3.29671 21.8434 3.23198 21.7787 2.84982 22.1624C2.46766 22.5461 2.90675 22.9852 2.52459 23.3697C2.06304 23.7879 1.6317 24.2383 1.23383 24.7174C1.16052 24.8219 0.883646 25.4716 0.772118 25.6635C0.623934 25.9138 0.531123 26.374 0.448452 26.4832C0.282043 26.7667 0.196283 27.0903 0.200439 27.4191C0.193419 27.561 0.147404 27.5602 0.147404 27.7037C0.147404 27.8472 0.213697 27.8316 0.219157 27.9689C0.224616 28.1062 0.124007 28.1584 0.135706 28.2941C0.146077 28.4853 0.180134 28.6745 0.237095 28.8572C0.315086 29.0132 0.425055 29.1302 0.461711 29.2472C0.546722 29.5108 0.495247 29.6067 0.598196 29.8649C0.676188 30.07 0.804874 29.96 0.903144 30.1566C0.994394 30.3399 0.857909 30.3461 0.961638 30.5231C1.05679 30.6791 0.953058 30.7462 1.05991 30.8983C1.19015 31.0862 1.22993 31.0543 1.37187 31.2313C1.46546 31.3483 1.68384 31.4583 1.78133 31.5714C2.24414 32.0007 2.79667 32.3217 3.39888 32.5111C3.52756 32.5525 3.73892 32.8528 3.92688 32.919C4.05479 32.9643 4.07195 32.8762 4.20141 32.9144C4.33088 32.9526 4.57655 32.9924 4.70602 33.0111C4.93297 33.0493 5.26054 33.2607 5.39547 33.2661C5.55145 33.2747 5.54521 33.2762 5.69651 33.2762C6.26585 33.2809 6.26585 33.628 6.83441 33.628C7.40297 33.628 7.40375 33.628 7.97231 33.628C8.54087 33.628 8.54009 33.55 9.10865 33.55C9.67721 33.55 9.67799 33.3449 10.2465 33.3449C11.4422 33.3285 12.4584 33.3262 13.6579 33.3917C14.2272 33.3917 14.2272 33.6467 14.7958 33.6467C15.3644 33.6467 15.3651 33.5968 15.9337 33.5968C16.5023 33.5968 16.5015 33.0625 17.07 33.0625C17.6386 33.0625 18.7788 33.3987 19.3474 33.3987C19.916 33.3987 19.9167 33.5867 20.4853 33.5867C21.0539 33.5867 21.0562 33.1437 21.6248 33.1437C22.1933 33.1437 22.1941 33.44 22.7627 33.44C23.3312 33.44 23.332 33.0657 23.9006 33.0657C24.4691 33.0657 24.4715 33.5539 25.0416 33.5539C25.6117 33.5539 25.6109 33.1444 26.181 33.1444C26.5562 33.1444 26.9337 33.3472 27.2901 33.2762C27.6645 33.2356 28.0342 33.1599 28.3944 33.0501C28.7376 32.9081 28.924 32.469 29.2274 32.2655C29.5052 32.0401 29.7597 31.7875 29.987 31.5113C30.2467 31.2516 30.7669 31.2118 30.9697 30.9053C31.4563 29.9078 31.7223 28.8172 31.7496 27.7076C31.692 27.3492 31.5982 26.9975 31.4696 26.6579C31.4046 25.9436 31.1109 25.2693 30.632 24.7354C30.4533 24.4324 30.2442 24.1484 30.0081 23.8876C29.7468 23.6263 29.622 23.2309 29.3155 23.025C29.0024 22.8318 28.6708 22.6701 28.3258 22.5422C27.9953 22.3774 27.6487 22.2467 27.2916 22.1523C26.9208 22.1504 26.5506 22.1828 26.1857 22.249C25.6109 22.249 25.6109 22.3309 25.0377 22.3309C24.4644 22.3309 24.4629 21.9542 23.8881 21.9542C23.3133 21.9542 23.3133 21.8029 22.74 21.8029C22.1668 21.8029 22.1652 22.288 21.5904 22.288C21.0156 22.288 21.0141 22.0883 20.4393 22.0883C19.8645 22.0883 19.2694 22.7247 19.0269 22.203C18.7929 21.6953 19.5229 21.5299 19.9167 21.1353C20.3106 20.7406 20.2833 20.7118 20.6779 20.3171C21.0726 19.9225 21.1841 20.034 21.5787 19.6394C21.9734 19.2448 21.9032 19.1714 22.297 18.7815C22.6909 18.3915 22.818 18.5116 23.2119 18.117C23.6057 17.7224 23.6549 17.7707 24.0495 17.3761C24.4442 16.9814 24.3942 16.93 24.7904 16.5353C25.1866 16.1407 25.4144 16.3684 25.8043 15.9738C26.1943 15.5791 26.0789 15.4575 26.4735 15.0628C26.8681 14.6682 26.9352 14.7361 27.3314 14.3414C27.7276 13.9468 27.4975 13.7175 27.8914 13.3205C28.2852 12.9235 28.3664 13.0085 28.761 12.6108C29.1556 12.213 29.2508 12.309 29.647 11.9089C30.0432 11.5088 29.7382 11.2069 30.1337 10.8115C30.43 10.5787 30.7008 10.3152 30.9416 10.0254C31.6333 9.24473 32.0243 8.24326 32.0444 7.2005C31.9915 6.67166 31.8984 6.1476 31.766 5.63287C31.713 5.23232 31.6211 4.83789 31.4915 4.45519C31.3462 4.10724 31.1648 3.77551 30.9502 3.46548" fill="#FF6738"/>
<path d="M16.2574 41.5692C15.6779 41.5692 15.6779 41.9342 15.0984 41.9342C14.5189 41.9342 14.5174 42.0558 13.9387 42.0558C13.36 42.0558 13.3592 41.7244 12.7797 41.7244C12.2002 41.7244 12.2002 41.9693 11.62 41.9693C11.0397 41.9693 11.0405 41.8195 10.461 41.8195C9.88155 41.8195 9.88155 42.0457 9.30207 42.0457C8.72259 42.0457 8.72103 41.6144 8.14077 41.6144C7.56051 41.6144 7.55974 41.8226 6.97948 41.8297C6.42652 41.8359 6.42808 41.8593 5.87511 41.8733C5.51737 41.8262 5.15609 41.8116 4.79571 41.8297C4.44664 41.922 4.10715 42.0474 3.78182 42.204C3.19246 42.5904 2.65173 43.0463 2.17129 43.5618C1.88446 43.7669 1.61782 43.9988 1.37499 44.2544C1.22103 44.5714 1.09675 44.9019 1.00375 45.2418C0.857909 45.5623 0.249573 45.7363 0.164562 46.0872C0.0795515 46.4382 0.391518 46.857 0.37592 47.2181C0.369681 47.353 0.0491348 47.3499 0.0475749 47.4848C0.0475749 48.0308 0.0389958 48.0308 0.0389958 48.5767C0.0389958 49.1227 0.408676 49.1227 0.408676 49.6686C0.408676 50.2145 0 50.206 0 50.7488C0 51.2916 0.212917 51.2947 0.212917 51.8407C0.212917 52.3866 0.531123 52.3866 0.531123 52.9271C0.531123 53.4676 0.389958 53.4676 0.389958 54.0104C0.389958 54.5532 0.0483548 54.5563 0.0483548 55.0968C0.0483548 55.6373 0.256593 55.6428 0.256593 56.1887C0.256593 56.7346 0.0584938 56.7346 0.0584938 57.2751C0.0584938 57.8156 0.27999 57.8211 0.27999 58.367C0.27999 58.913 0.170022 58.913 0.170022 59.4534C0.170022 59.9939 0.348623 59.9994 0.348623 60.5453C0.348623 61.0913 0.250353 61.0913 0.250353 61.6372C0.250353 62.1831 0.401657 62.1831 0.401657 62.7291C0.401657 63.275 0.420375 63.275 0.420375 63.821C0.420375 64.3669 0.570119 64.3669 0.570119 64.9129C0.570119 65.4588 0.588057 65.4588 0.588057 66.0047C0.588057 66.5507 0.341604 66.5507 0.341604 67.0966C0.341604 67.6426 0.341604 67.6426 0.341604 68.1885C0.341604 68.2805 0.575579 68.2704 0.575579 68.3632C0.593517 68.7243 0.330685 69.101 0.411016 69.4395C0.846853 70.3871 1.46606 71.2391 2.2329 71.9461C2.48404 72.1957 2.56593 72.6028 2.85684 72.8041C3.14774 73.0053 3.30997 73.499 3.63675 73.6401C3.96354 73.7813 4.47204 73.3453 4.82067 73.4233C5.16929 73.5013 5.46332 74.0082 5.82208 74.0176C6.40156 74.0223 6.40468 73.8928 6.98338 73.8944C7.56208 73.8959 7.56285 73.9529 8.14233 73.9544C8.72181 73.956 8.72337 73.4732 9.30363 73.4748C9.88389 73.4763 9.88155 73.7431 10.4626 73.7446C11.0436 73.7462 11.0405 73.9786 11.62 73.9786C12.1995 73.9786 12.201 73.7446 12.7797 73.7446C13.3584 73.7446 13.3592 74.0059 13.9387 74.0075C14.5182 74.009 14.5213 73.7025 15.1015 73.7041C15.6818 73.7056 15.6826 73.8094 16.2628 73.8109C16.6294 73.8109 17.0061 73.9669 17.3672 73.9459C17.7283 73.9248 18.0691 73.5879 18.4279 73.538C18.7866 73.488 19.1298 73.382 19.487 73.304C19.8442 73.226 20.2669 73.4241 20.6179 73.3258C20.9688 73.2276 21.2293 72.8446 21.5709 72.7229C21.9125 72.6013 22.2276 72.4313 22.5607 72.2862C22.8937 72.1411 23.3219 72.1949 23.6432 72.0265C23.9645 71.858 24.3747 71.8182 24.6844 71.6279C24.994 71.4376 25.0938 70.9213 25.3863 70.71C25.6788 70.4986 26.1522 70.5119 26.4337 70.2818C26.7153 70.0517 26.7839 69.5799 27.0499 69.3287C27.3158 69.0776 27.6948 68.9505 27.9429 68.6838C28.1909 68.417 28.6042 68.2821 28.8328 67.999C29.0613 67.7159 29.0761 67.2612 29.2859 66.9633C29.4957 66.6653 29.4957 66.2418 29.6836 65.9291C29.8716 65.6163 30.4745 65.5391 30.6414 65.2131C30.8083 64.8871 31.0532 64.5837 31.199 64.2484C31.3449 63.913 30.9011 63.3491 31.0228 63.0044C31.382 61.9919 31.6528 60.9502 31.8323 59.891C31.8807 59.5314 32.2519 59.2093 32.2769 58.842C32.3018 58.4746 32.5233 58.112 32.5233 57.7431C32.5233 57.3742 31.9204 57.0334 31.8994 56.6738C31.8783 56.3143 32.3595 55.8939 32.3104 55.5375C32.2613 55.1811 31.8074 54.8816 31.734 54.5283C31.6607 54.175 31.5094 53.8466 31.4127 53.4972C31.316 53.1478 31.4494 52.729 31.3293 52.3866C31.2092 52.0442 31.256 51.6238 31.1109 51.2947C30.9658 50.9656 30.4948 50.78 30.3263 50.4571C30.1578 50.1342 30.0978 49.7552 29.9083 49.4432C29.7187 49.1312 29.3935 48.9168 29.1837 48.6204C28.9739 48.324 28.9224 47.9075 28.6924 47.626C28.4623 47.3444 28.3196 46.9748 28.0684 46.7096C27.8173 46.4444 27.3876 46.3532 27.1224 46.1052C26.8572 45.8571 26.7777 45.3822 26.4985 45.1537C26.2192 44.9251 25.6577 45.0523 25.3606 44.8417C25.0634 44.6311 24.8856 44.2521 24.5744 44.0618C24.2632 43.8715 23.7851 43.9986 23.463 43.8278C23.1409 43.657 22.903 43.3497 22.5685 43.2039C22.2339 43.058 21.9757 42.7312 21.6326 42.6088C21.2894 42.4863 20.9026 42.5105 20.55 42.4122C20.1975 42.314 19.8021 42.4653 19.4457 42.392C19.0892 42.3187 18.7976 41.9342 18.4318 41.8842C18.066 41.8343 17.7252 41.5723 17.3594 41.5458C16.9936 41.5192 16.6185 41.5621 16.2519 41.5621M16.2519 63.5519C15.6857 63.5519 15.6857 63.9169 15.121 63.9169C14.5564 63.9169 14.5548 64.0386 13.9886 64.0386C13.4224 64.0386 13.4224 63.7071 12.8546 63.7071C12.2868 63.7071 11.9967 64.2905 11.5872 63.8974C11.1973 63.5223 11.6769 63.2142 11.6769 62.6714C11.6769 62.1286 11.4507 62.1254 11.4507 61.5857C11.4507 61.046 11.882 61.0398 11.882 60.4993C11.882 59.9588 11.6668 59.9534 11.6668 59.4129C11.6668 58.8724 11.6504 58.8669 11.6504 58.3265C11.6504 57.786 11.8235 57.7805 11.8235 57.24C11.8235 56.6996 11.7736 56.6941 11.7736 56.1536C11.7736 55.6131 11.6052 55.6077 11.6052 55.068C11.6052 54.5283 11.5319 54.522 11.5319 53.9761C11.5319 53.4301 11.6878 53.4301 11.6878 52.8842C11.6878 52.3383 11.1879 52.0263 11.5794 51.6496C11.9873 51.2596 12.286 52.1175 12.8523 52.1175C13.4185 52.1175 13.4185 51.7479 13.9831 51.7479C14.5478 51.7479 14.5509 52.0692 15.1171 52.0692C15.6833 52.0692 15.6849 52.0778 16.2511 52.0778C16.6512 52.0778 17.0607 51.751 17.4389 51.8258C17.8172 51.9007 18.0629 52.4006 18.4232 52.552C18.8002 52.6325 19.1683 52.7504 19.5221 52.9037C19.8489 53.1221 20.3629 53.1377 20.6397 53.413C20.889 53.7323 21.108 54.0741 21.2941 54.4339C21.5124 54.7583 21.3908 55.2481 21.5452 55.6131C21.757 55.9381 21.9368 56.2829 22.0818 56.6426C22.0917 57.03 22.0656 57.4175 22.0038 57.8C22.0723 58.1814 22.1046 58.5684 22.1005 58.9559C21.9869 59.326 21.8361 59.6837 21.6505 60.0236C21.5521 60.4029 21.4181 60.7721 21.2504 61.1264C21.0035 61.4297 20.7285 61.7092 20.4291 61.9609C19.9572 62.6033 19.3143 63.1002 18.5737 63.3951C18.22 63.5942 17.8481 63.7593 17.4631 63.888C17.0864 63.966 16.6473 63.5496 16.2488 63.5496" fill="#FF6738"/>
<path d="M54.166 0C53.7947 0 53.436 0.249573 53.0741 0.272971C52.7122 0.296368 52.3363 0.265172 51.9728 0.311967C51.6094 0.358762 51.1929 0.146624 50.8349 0.218377C50.477 0.290129 50.1221 0.452352 49.7688 0.546722C49.4155 0.641092 49.1573 1.06303 48.8111 1.18001C48.4648 1.297 47.9453 0.985035 47.6084 1.12542C47.2715 1.26581 47.0219 1.64173 46.6936 1.80473C46.0274 2.12247 45.4049 2.52456 44.8413 3.00112C44.5363 3.20468 44.2883 3.48077 43.9982 3.70305C43.7081 3.92532 43.1917 3.88477 42.9157 4.12654C42.6396 4.36832 42.5413 4.81287 42.2824 5.07258C42.0234 5.33229 41.5914 5.43914 41.3465 5.71679C41.1016 5.99444 41.1515 6.50997 40.9269 6.80088C40.7023 7.09179 40.1859 7.17602 39.9824 7.48174C39.7788 7.78747 39.9044 8.303 39.7242 8.6212C39.5441 8.93941 39.4848 9.30909 39.3226 9.63899C39.1604 9.9689 38.6932 10.1506 38.5528 10.4914C38.4124 10.8323 38.5247 11.2597 38.4062 11.6091C38.2876 11.9585 38.0334 12.2533 37.9382 12.6097C37.8431 12.9661 37.9936 13.3639 37.9218 13.7258C37.8501 14.0876 37.3439 14.37 37.2979 14.7397C37.2519 15.1093 37.4399 15.4938 37.4165 15.862C37.3931 16.2301 37.3977 16.5896 37.3977 16.9609C37.3977 17.5458 37.216 17.5458 37.216 18.1307C37.216 18.7157 37.2691 18.7157 37.2691 19.3006C37.2691 19.8855 37.4469 19.8855 37.4469 20.4705C37.4469 21.0554 37.5249 21.057 37.5249 21.6404C37.5249 22.2237 37.3595 22.2253 37.3595 22.8102C37.3595 23.3952 37.5381 23.3967 37.5381 23.9801C37.5381 24.5635 36.9922 24.565 36.9922 25.15C36.9922 25.7349 37.3821 25.7365 37.3821 26.3199C37.3821 26.9032 37.0444 26.9064 37.0444 27.4897C37.0426 27.8913 37.0784 28.2921 37.1513 28.6869C37.2293 29.0683 37.7144 29.3413 37.8595 29.6899C38.0045 30.0385 37.8259 30.6047 38.0373 30.9221C38.2486 31.2396 38.694 31.4299 38.9654 31.7021C39.2368 31.9743 39.7336 31.9516 40.0518 32.1653C40.334 32.4149 40.6402 32.6359 40.9659 32.8251C41.6811 33.0913 42.421 33.2859 43.1746 33.4062C43.9391 33.3224 44.6935 33.1638 45.427 32.9328C45.8007 32.8173 46.1627 32.6666 46.508 32.4828C47.0891 31.9667 47.62 31.3966 48.0935 30.7802C48.4059 30.0847 48.6443 29.3582 48.8048 28.6128C48.8781 28.2447 48.737 26.922 48.737 26.3511C48.737 25.7802 48.5989 25.5961 49.0037 25.1913C49.4085 24.7865 49.5917 25.1851 50.1634 25.1851C50.7351 25.1851 50.732 24.9573 51.3044 24.9573C51.8769 24.9573 53.0203 25.104 53.5912 25.104C54.1621 25.104 54.1628 24.9425 54.7353 24.9425C55.3078 24.9425 55.307 24.8996 55.8794 24.8996C56.4519 24.8996 56.4511 25.1765 57.022 25.1765C57.5929 25.1765 57.6545 25.0018 58.2278 25.0018C58.801 25.0018 59.1106 25.2358 59.1106 25.8114C59.1106 26.3869 59.1839 26.9344 59.1839 27.5069C59.1658 27.8999 59.1848 28.2936 59.2409 28.683C59.3189 29.0644 59.9085 29.2711 60.0536 29.6189C60.1986 29.9668 60.1198 30.4136 60.332 30.7295C60.5441 31.0454 60.6104 31.5094 60.8779 31.7824C61.1454 32.0554 61.6157 32.1154 61.9339 32.3283C62.2521 32.5413 62.4799 32.971 62.8316 33.1176C63.1834 33.2642 63.6544 33.0739 64.0342 33.148C64.7834 33.3563 65.5593 33.4522 66.3366 33.4327C66.7164 33.3547 67.0011 32.946 67.3505 32.7994C67.6893 32.6413 68.0113 32.4493 68.3113 32.2262C68.6311 32.0117 69.1178 32.0047 69.3876 31.7348C69.6575 31.465 69.6723 30.9806 69.886 30.6624C70.0816 30.3465 70.2451 30.0118 70.3742 29.6634C70.5193 29.3132 70.864 29.0324 70.9389 28.6495C71.0717 28.2764 71.1684 27.8914 71.2274 27.4999C71.2274 26.9134 70.8328 26.9134 70.8328 26.33C70.8328 25.7466 71.1448 25.7451 71.1448 25.1601C71.1448 24.5752 70.8203 24.5736 70.8203 23.9902C70.8203 23.4069 71.0098 23.4053 71.0098 22.8204C71.0098 22.2354 71.2438 22.2354 71.2438 21.6505C71.2438 21.0656 70.9677 21.0656 70.9677 20.4806C70.9677 19.8957 70.7228 19.8957 70.7228 19.3107C70.7228 18.7258 70.6674 16.2472 70.6448 15.883C70.5766 14.802 70.4201 13.7284 70.1769 12.6729C70.0817 12.3165 70.3149 11.868 70.1956 11.5217C70.0763 11.1754 70.1488 10.7418 70.0092 10.3994C69.8696 10.057 69.1513 9.98138 68.9867 9.65303C68.8222 9.32469 69.138 8.74053 68.9547 8.42388C68.7715 8.10724 68.2185 8.01287 68.0149 7.70792C67.8114 7.40297 67.547 7.15652 67.3216 6.86639C67.0962 6.57626 67.0783 6.12547 66.8349 5.8525C66.5916 5.57953 66.4902 5.15759 66.2305 4.89788C65.9708 4.63817 65.4506 4.64987 65.1745 4.40809C64.8984 4.16632 64.7065 3.82705 64.4149 3.60322C64.1232 3.37938 63.7355 3.29827 63.429 3.09393C63.1225 2.88959 62.933 2.50743 62.6148 2.32415C62.2966 2.14087 62.0322 1.83748 61.7023 1.67292C61.3724 1.50836 60.9294 1.58791 60.5894 1.44597C60.2493 1.30402 60.0161 0.864148 59.6675 0.744821C59.3189 0.625493 58.8314 0.961638 58.475 0.866488C58.1186 0.771338 57.8222 0.46795 57.4596 0.394638C57.0969 0.321326 56.6882 0.623934 56.3216 0.574799C55.9551 0.525664 55.6267 0.306507 55.2586 0.28311C54.8905 0.259712 54.5349 0 54.166 0ZM49.0965 17.8531C48.7237 17.5333 48.9 17.4499 48.9 16.9585C48.9218 16.5661 48.9878 16.1773 49.0965 15.7996C49.1831 15.4197 49.5645 15.1647 49.7314 14.8215C49.8685 14.475 50.0457 14.1457 50.2594 13.8404C50.4996 13.5394 50.5456 13.0324 50.8459 12.7914C51.1461 12.5504 51.7139 12.7516 52.0633 12.5832C52.4127 12.4147 52.6545 12.077 53.0359 11.9889C53.7887 11.8305 54.5623 11.7952 55.3265 11.8844C55.7146 11.9473 56.0948 12.0519 56.4605 12.1963C56.8083 12.3648 56.9354 12.8694 57.2349 13.1088C57.5344 13.3483 57.9759 13.4255 58.2161 13.7281C58.4563 14.0307 58.45 14.4643 58.6162 14.8137C58.7823 15.1631 59.251 15.3948 59.3376 15.7746C59.4242 16.1544 59.1036 16.5608 59.1036 16.9554C59.1036 17.4467 59.8055 17.7447 59.4288 18.0644C58.996 18.4388 58.748 18.2329 58.1763 18.2329C57.6046 18.2329 57.6046 17.8835 57.0337 17.8835C56.4628 17.8835 56.462 18.1416 55.8896 18.1416C55.3171 18.1416 55.3179 17.9857 54.7454 17.9857C54.173 17.9857 54.1738 18.2196 53.6013 18.2196C53.0288 18.2196 53.0296 17.7665 52.4587 17.7665C51.8878 17.7665 51.887 17.9927 51.3146 17.9927C50.9373 17.9533 50.5566 17.9588 50.1806 18.0091C49.6222 18.0988 49.5325 18.2204 49.0981 17.8476" fill="#FF6738"/>
<path d="M55.3152 39.9988C54.9439 39.9988 54.5852 40.2484 54.2233 40.2718C53.8614 40.2952 53.4871 40.2648 53.1252 40.3131C52.7633 40.3615 52.3453 40.1478 51.9888 40.2195C51.6324 40.2913 51.2744 40.4535 50.9211 40.5479C50.5678 40.6423 50.3097 41.0642 49.9634 41.1812C49.6171 41.2982 49.0992 40.9862 48.7608 41.1266C48.4223 41.267 48.1743 41.6429 47.8459 41.8059C47.1803 42.1242 46.5578 42.526 45.9936 43.0015C45.6887 43.2066 45.4407 43.4827 45.1505 43.7034C44.8604 43.9241 44.3441 43.8851 44.068 44.1269C43.7919 44.3687 43.6952 44.8132 43.4347 45.073C43.1742 45.3327 42.7437 45.4395 42.4988 45.7172C42.2539 45.9948 42.3038 46.5088 42.0792 46.8013C41.8546 47.0937 41.3383 47.1764 41.1347 47.4821C40.9312 47.7879 41.0567 48.3034 40.8766 48.6216C40.6964 48.9398 40.6371 49.3095 40.4749 49.6394C40.3127 49.9693 39.8455 50.151 39.7051 50.4918C39.5648 50.8326 39.6771 51.26 39.5585 51.6079C39.44 51.9557 39.1857 52.2529 39.0906 52.6093C38.9954 52.9657 39.1459 53.3635 39.0742 53.7254C39.0024 54.0872 38.4963 54.3696 38.4503 54.7393C38.4042 55.1089 38.5922 55.4919 38.5688 55.8616C38.5454 56.2312 38.5501 56.5892 38.5501 56.9605C38.5501 57.5454 38.3684 57.5454 38.3684 58.1303C38.3684 58.7153 38.4214 58.7153 38.4214 59.3002C38.4214 59.8851 38.5992 59.8851 38.5992 60.4701C38.5992 61.055 38.6772 61.055 38.6772 61.64C38.6772 62.2249 38.5127 62.2249 38.5127 62.8098C38.5127 63.3948 38.6905 63.3963 38.6905 63.9797C38.6905 64.5631 38.1445 64.5646 38.1445 65.1496C38.1445 65.7345 38.5345 65.7361 38.5345 66.3195C38.5345 66.9028 38.1968 66.906 38.1968 67.4893C38.195 67.8906 38.2308 68.2911 38.3036 68.6857C38.3816 69.0671 38.8667 69.3401 39.0118 69.6887C39.1569 70.0373 38.9783 70.6035 39.1904 70.921C39.4025 71.2384 39.8463 71.4287 40.1169 71.7009C40.3876 71.9731 40.8852 71.9505 41.2034 72.1642C41.4856 72.4137 41.7917 72.6347 42.1174 72.824C42.8327 73.0901 43.5725 73.2848 44.3262 73.405C45.0906 73.3212 45.845 73.1627 46.5786 72.9316C46.9523 72.8161 47.3142 72.6654 47.6595 72.4816C48.2414 71.9657 48.7724 71.395 49.2451 70.7775C49.5578 70.0823 49.7962 69.3561 49.9564 68.6109C50.0297 68.2412 49.8885 66.92 49.8885 66.3491C49.8885 65.7782 49.7505 65.5941 50.1553 65.1894C50.56 64.7846 50.7433 65.1831 51.315 65.1831C51.8867 65.1831 51.8867 64.9413 52.4591 64.9413C53.0316 64.9413 54.1749 65.0895 54.7458 65.0895C55.3167 65.0895 55.3175 64.9281 55.89 64.9281C56.4624 64.9281 56.4617 64.8844 57.0341 64.8844C57.6066 64.8844 57.6058 65.1628 58.1783 65.1628C58.7507 65.1628 58.8092 64.9881 59.3825 64.9881C59.9557 64.9881 60.2653 65.2221 60.2653 65.7977C60.2653 66.3733 60.3386 66.9208 60.3386 67.4932C60.3205 67.8862 60.3395 68.28 60.3956 68.6693C60.4736 69.0492 61.0632 69.2574 61.2082 69.6053C61.3533 69.9531 61.2745 70.4 61.4867 70.7159C61.6988 71.0317 61.7651 71.4958 62.0326 71.7687C62.3001 72.0417 62.7704 72.1018 63.0886 72.3147C63.4068 72.5276 63.6346 72.9573 63.9863 73.104C64.338 73.2506 64.8091 73.0603 65.1889 73.1344C65.9381 73.3426 66.7139 73.4386 67.4912 73.419C67.8711 73.3411 68.1557 72.9324 68.5051 72.7858C68.844 72.6277 69.1659 72.4356 69.466 72.2125C69.7858 71.998 70.2724 71.991 70.5423 71.7212C70.8121 71.4513 70.827 70.967 71.0406 70.6488C71.236 70.3327 71.3995 69.998 71.5289 69.6497C71.6739 69.2995 72.0187 69.0188 72.0935 68.6358C72.2269 68.2628 72.3241 67.8778 72.3837 67.4862C72.3837 66.8997 71.9875 66.8997 71.9875 66.3163C71.9875 65.733 72.2994 65.7314 72.2994 65.1465C72.2994 64.5615 71.975 64.56 71.975 63.9766C71.975 63.3932 72.1645 63.3916 72.1645 62.8067C72.1645 62.2218 72.3985 62.2218 72.3985 61.6368C72.3985 61.0519 72.1224 61.0519 72.1224 60.467C72.1224 59.882 71.8775 59.882 71.8775 59.2971C71.8775 58.7121 71.8221 56.2336 71.7995 55.8693C71.7313 54.7883 71.5748 53.7147 71.3316 52.6592C71.2364 52.3028 71.4696 51.8543 71.3503 51.5081C71.2309 51.1618 71.305 50.7281 71.1639 50.3858C71.0227 50.0434 70.306 49.9677 70.1414 49.6394C69.9768 49.311 70.2927 48.7269 70.1094 48.4087C69.9261 48.0905 69.3732 47.9992 69.1696 47.6943C68.9661 47.3893 68.7017 47.1429 68.4763 46.8527C68.2509 46.5626 68.233 46.1118 67.9896 45.8388C67.7463 45.5659 67.6449 45.1439 67.3852 44.8842C67.1255 44.6245 66.6053 44.6362 66.3292 44.3944C66.0531 44.1527 65.8612 43.8134 65.5695 43.5896C65.2778 43.3657 64.8902 43.2846 64.5837 43.0803C64.2772 42.8759 64.0877 42.4938 63.7695 42.3105C63.4513 42.1272 63.1869 41.8223 62.857 41.6593C62.5271 41.4963 62.0841 41.5743 61.744 41.4323C61.404 41.2904 61.1692 40.8591 60.8198 40.7397C60.4704 40.6204 59.9838 40.9566 59.6273 40.8614C59.2709 40.7663 58.973 40.4613 58.6135 40.3888C58.2539 40.3162 57.8421 40.6173 57.4756 40.5689C57.109 40.5206 56.7806 40.3006 56.4125 40.2772C56.0444 40.2539 55.6895 39.9941 55.3206 39.9941M50.2512 57.8472C49.8784 57.5275 50.0546 57.444 50.0546 56.9527C50.0765 56.5602 50.1425 56.1714 50.2512 55.7937C50.3378 55.4139 50.7191 55.1588 50.886 54.8157C51.0238 54.4694 51.2009 54.1402 51.414 53.8345C51.6543 53.5335 51.7003 53.025 52.0005 52.7848C52.3008 52.5446 52.8686 52.7466 53.218 52.5781C53.5674 52.4096 53.8092 52.0719 54.1905 51.9838C54.9434 51.8255 55.717 51.7902 56.4812 51.8793C56.8693 51.9422 57.2495 52.0468 57.6152 52.1913C57.963 52.3597 58.0901 52.8643 58.3896 53.1038C58.6891 53.3432 59.1305 53.4204 59.3708 53.723C59.611 54.0256 59.6047 54.4593 59.7708 54.8087C59.937 55.1581 60.4057 55.3897 60.4938 55.7695C60.582 56.1493 60.2544 56.5557 60.2544 56.9503C60.2544 57.4417 60.9563 57.7396 60.5796 58.0594C60.1468 58.4322 59.8988 58.2278 59.3271 58.2278C58.7554 58.2278 58.7554 57.8784 58.1845 57.8784C57.6136 57.8784 57.6128 58.1366 57.0404 58.1366C56.4679 58.1366 56.4687 57.9806 55.8962 57.9806C55.3238 57.9806 55.3245 58.2146 54.7521 58.2146C54.1796 58.2146 54.1812 57.7599 53.6095 57.7599C53.0378 57.7599 53.0378 57.9868 52.4654 57.9868C52.088 57.9475 51.7074 57.953 51.3314 58.0032C50.7729 58.0929 50.6833 58.2146 50.2488 57.8418" fill="#FF6738"/>
<path d="M172.906 1.92383C172.516 1.92383 172.171 2.48381 171.803 2.55712C171.423 2.63511 170.969 2.43545 170.618 2.58052C170.268 2.72558 170.157 3.30038 169.838 3.51642C169.52 3.73246 169.111 3.77145 168.841 4.0413C168.571 4.31115 168.013 4.37745 167.801 4.69565C167.333 5.35408 167.019 6.10996 166.884 6.90672C166.861 7.30585 166.873 7.7063 166.922 8.10311C166.922 8.65451 166.877 8.65451 166.877 9.20747C166.877 9.76043 166.757 9.75887 166.757 10.3103C166.757 10.8617 167.37 10.8632 167.37 11.4146C167.37 11.966 166.965 11.966 166.965 12.519C166.965 13.072 167.134 13.0704 167.134 13.6218C167.134 14.1732 167 14.1748 167 14.7262C167 15.2776 167.18 15.2776 167.18 15.8305C167.18 16.3835 166.947 16.3835 166.947 16.9364C166.947 17.4894 167.18 17.4894 167.18 18.0424C167.159 18.4343 167.093 18.8226 166.984 19.1998C166.897 19.5811 166.516 19.8362 166.349 20.1793C166.211 20.5253 166.034 20.8544 165.821 21.1605C165.581 21.4615 165.535 21.9685 165.235 22.2095C164.934 22.4505 164.367 22.2492 164.017 22.4177C163.668 22.5862 163.424 22.9239 163.045 23.0104C161.908 23.2822 160.715 23.2092 159.62 22.8006C159.271 22.6322 159.145 22.1276 158.846 21.8866C158.546 21.6456 158.105 21.5699 157.864 21.2689C157.624 20.9678 157.63 20.5311 157.464 20.1832C157.298 19.8354 156.828 19.6006 156.741 19.2208C156.658 18.8527 156.981 18.4347 156.981 18.0416C156.981 17.4902 156.596 17.4902 156.596 16.9388C156.596 16.3874 156.468 16.3858 156.468 15.8344C156.468 15.283 156.818 15.2815 156.818 14.7301C156.818 14.1787 156.56 14.1787 156.56 13.6257C156.56 13.0727 156.716 13.0743 156.716 12.5229C156.716 11.9715 156.482 11.9699 156.482 11.4185C156.482 10.8671 156.935 10.8671 156.935 10.3142C156.935 9.76121 156.709 9.76121 156.709 9.20825C156.709 8.65529 156.691 8.65529 156.691 8.10233C156.749 7.71817 156.772 7.3294 156.758 6.94103C156.454 5.8269 155.805 4.83712 154.906 4.11228C154.68 3.80804 154.424 3.52648 154.143 3.27152C153.799 3.11283 153.44 2.98798 153.071 2.89872C152.722 2.7521 152.502 2.11413 152.122 2.04082C151.742 1.9675 151.306 2.31067 150.916 2.31067C150.526 2.31067 150.089 2.01742 149.719 2.09073C149.324 2.16815 148.938 2.28198 148.565 2.43077C148.21 2.57896 148.037 3.11164 147.722 3.32222C147.406 3.5328 146.818 3.46572 146.552 3.73558C146.325 4.0707 146.13 4.42573 145.968 4.79626C145.757 5.10823 145.873 5.59724 145.725 5.95366C145.535 6.27844 145.378 6.62151 145.257 6.97769C145.184 7.34737 144.789 7.71393 144.789 8.10389C144.789 8.65529 145.007 8.65529 145.007 9.20825C145.007 9.76121 144.799 9.75965 144.799 10.3111C144.799 10.8625 145.033 10.864 145.033 11.4154C145.033 11.9668 144.919 11.9668 144.919 12.5198C144.919 13.0727 145.105 13.0712 145.105 13.6226C145.105 14.174 145.004 14.1755 145.004 14.7269C145.004 15.2783 145.16 15.2783 145.16 15.8313C145.16 16.3843 145.178 16.3843 145.178 16.9372C145.178 17.4902 145.334 17.4902 145.334 18.0432C145.334 18.4128 145.366 18.7615 145.39 19.1272C145.413 19.493 145.19 19.8767 145.234 20.2386C145.277 20.6005 145.34 20.9663 145.412 21.3243C145.484 21.6822 145.802 21.9802 145.895 22.3335C145.988 22.6868 145.778 23.1313 145.895 23.4792C146.405 24.4502 147.065 25.3416 147.602 26.3009C147.787 26.6191 147.74 27.0684 147.944 27.3733C148.147 27.6782 148.061 28.2047 148.285 28.4964C148.51 28.7881 149.183 28.7132 149.425 28.9893C149.667 29.2654 149.558 29.8737 149.815 30.1334C150.071 30.3931 150.439 30.5561 150.718 30.7995C150.997 31.0428 151.249 31.3259 151.539 31.5505C151.829 31.7752 152.422 31.5739 152.727 31.7791C153.032 31.9842 153.185 32.41 153.503 32.5948C153.821 32.7797 154.034 33.1712 154.361 33.3358C154.688 33.5003 155.131 33.4255 155.472 33.5697C155.812 33.714 156.064 34.0977 156.411 34.2163C156.758 34.3348 157.208 34.1344 157.564 34.2295C158.266 34.4565 158.968 34.7412 159.676 34.944C160.037 34.9923 160.436 34.7178 160.805 34.7412C161.175 34.7646 161.53 34.7248 161.897 34.7248C162.265 34.7248 162.644 35.018 163.008 34.9931C163.372 34.9681 163.71 34.6382 164.076 34.5899C164.441 34.5415 164.787 34.4448 165.145 34.3731C165.503 34.3013 165.916 34.4596 166.27 34.366C166.623 34.2724 167.038 34.3294 167.384 34.2101C167.73 34.0907 167.939 33.5908 168.277 33.4504C168.616 33.31 169.081 33.4418 169.409 33.2788C169.738 33.1158 169.908 32.6549 170.226 32.474C170.544 32.293 170.951 32.2571 171.256 32.0528C171.56 31.8485 172.003 31.8188 172.295 31.5965C172.587 31.3743 172.7 30.9204 172.976 30.6786C173.252 30.4368 173.346 30.0141 173.605 29.7544C173.865 29.4947 174.488 29.5766 174.732 29.2997C174.975 29.0228 175.292 28.7865 175.516 28.4956C175.741 28.2047 175.425 27.5246 175.631 27.2197C176.235 26.3208 176.765 25.3742 177.215 24.3893C177.356 24.0509 177.813 23.8364 177.932 23.4885C178.052 23.1407 178.372 22.842 178.467 22.4856C178.563 22.1291 178.042 21.6331 178.114 21.2712C178.186 20.9093 178.79 20.6418 178.837 20.2753C178.884 19.9087 178.504 19.5055 178.525 19.1358C178.546 18.7661 178.488 18.416 178.488 18.0439C178.488 17.4925 178.76 17.4925 178.76 16.9411C178.76 16.3897 178.971 16.3882 178.971 15.8368C178.971 15.2854 178.606 15.2838 178.606 14.7324C178.606 14.181 178.746 14.181 178.746 13.628C178.746 13.0751 178.584 13.0766 178.584 12.5252C178.584 11.9738 178.806 11.9723 178.806 11.4209C178.806 10.8695 178.948 10.8695 178.948 10.3165C178.948 9.76355 178.694 9.76355 178.694 9.21059C178.694 8.65763 179.016 8.65763 179.016 8.10467C179.016 7.71471 178.517 7.36999 178.444 7.00031C178.444 6.6145 178.407 6.22958 178.334 5.85071C178.186 5.49585 177.699 5.35234 177.486 5.03492C177.333 4.69422 177.147 4.3695 176.93 4.06548C176.66 3.79563 176.507 3.38383 176.188 3.17092C175.841 2.99892 175.478 2.8605 175.105 2.75756C174.755 2.61249 174.349 2.75132 173.97 2.67957C173.602 2.60626 173.28 1.92851 172.89 1.92851" fill="#FF6738"/>
<path d="M93.3733 12.967C93.8896 12.967 93.8896 12.6254 94.4059 12.6254C94.9222 12.6254 94.9206 12.6153 95.4369 12.6153C95.9532 12.6153 95.9532 12.9117 96.468 12.9117C96.9827 12.9117 96.9843 12.5864 97.5006 12.5864C98.0169 12.5864 98.0169 12.6169 98.5332 12.6169C99.0495 12.6169 99.0511 12.8267 99.5674 12.8267C100.084 12.8267 100.085 12.9 100.602 12.9C100.993 12.966 101.389 12.9965 101.786 12.9912C102.166 12.9132 102.461 12.5163 102.811 12.3673C103.161 12.2183 103.357 11.844 103.674 11.6311C104.013 11.4756 104.335 11.287 104.637 11.068C104.907 10.7981 105.405 10.7045 105.618 10.3863C105.831 10.0681 105.555 9.50188 105.703 9.14546C105.851 8.78903 106.151 8.53244 106.225 8.15262C106.314 7.78571 106.366 7.41077 106.381 7.03344C106.381 6.64348 106.736 6.19737 106.662 5.82769C106.589 5.45801 105.97 5.22013 105.825 4.86995C105.68 4.51977 105.781 4.0292 105.57 3.71411C105.358 3.39903 104.773 3.40215 104.503 3.13074C104.234 2.85933 104.114 2.46625 103.795 2.25255C103.477 2.03885 103.307 1.50773 102.952 1.3611C102.214 1.03011 101.41 0.870149 100.602 0.893155C100.087 0.893155 100.087 1.04914 99.5705 1.04914C99.0542 1.04914 99.0534 1.00624 98.5363 1.00624C98.0192 1.00624 98.0224 0.887695 97.5061 0.887695C96.9897 0.887695 96.9897 1.50071 96.4734 1.50071C95.9571 1.50071 95.9579 1.09437 95.4416 1.09437C94.9253 1.09437 94.9253 1.2644 94.4074 1.2644C93.8896 1.2644 93.8911 1.13103 93.3733 1.13103C93.0036 1.13103 92.6441 1.32133 92.2814 1.34551C91.9187 1.36968 91.5249 1.16925 91.1622 1.21682C90.7995 1.2644 90.4712 1.55998 90.1132 1.63018C89.7552 1.70037 89.3824 1.71987 89.0307 1.81502C88.6789 1.91017 88.236 1.7534 87.8897 1.87039C87.5434 1.98738 87.2135 2.19562 86.8758 2.33834C86.5381 2.48107 86.3392 2.93108 86.0101 3.0933C85.681 3.25552 85.1272 3.01531 84.8106 3.19625C84.4939 3.37719 84.2974 3.78431 83.9924 3.98786C83.3742 4.39083 82.8095 4.87039 82.3117 5.41511C82.0356 5.65845 81.8266 5.96106 81.5669 6.22311C81.3072 6.48516 80.787 6.50622 80.5475 6.78153C80.3081 7.05684 80.2675 7.51075 80.0429 7.80244C79.8183 8.09413 79.405 8.25557 79.2014 8.56052C78.9978 8.86547 79.1117 9.37163 78.9269 9.6914C78.742 10.0112 78.2405 10.1593 78.0775 10.4877C77.9145 10.816 78.1111 11.3121 77.9707 11.6505C77.8303 11.989 77.8256 12.365 77.7071 12.712C77.5885 13.0591 77.1494 13.3016 77.0543 13.6581C76.9591 14.0145 77.1323 14.4224 77.0543 14.7843C76.9763 15.1461 76.7696 15.4721 76.7213 15.8387C76.6729 16.2053 76.8772 16.5781 76.8515 16.9477C76.8258 17.3174 76.3633 17.6606 76.3633 18.0303C76.3633 18.4 76.5973 18.765 76.6246 19.1292C76.7211 19.8613 76.7628 20.5996 76.7493 21.3379C77.0468 22.4027 77.4655 23.4298 77.9972 24.3991C78.1384 24.7391 78.1384 25.1353 78.3006 25.4637C78.4628 25.792 78.7904 26.0252 78.9737 26.3418C79.1569 26.6585 78.8902 27.266 79.0938 27.571C79.2973 27.8759 79.8347 27.9571 80.0577 28.2472C80.2808 28.5373 80.2605 29.0419 80.5023 29.318C80.7441 29.5941 81.0007 29.8827 81.2619 30.1424C81.5232 30.4021 82.0598 30.3764 82.3359 30.6173C82.612 30.8583 82.6307 31.4285 82.9224 31.6531C83.2141 31.8777 83.6532 31.9167 83.9597 32.121C84.2662 32.3254 84.7489 32.2341 85.0672 32.419C85.3854 32.6038 85.6287 32.9041 85.9586 33.0686C86.2885 33.2332 86.4796 33.7136 86.8165 33.8548C87.1534 33.9959 87.5863 33.9234 87.9357 34.0427C88.2851 34.1621 88.5838 34.4694 88.9402 34.5661C89.2966 34.6628 89.7131 34.5193 90.0758 34.591C90.4384 34.6628 90.7855 34.8359 91.1505 34.8843C91.5155 34.9326 91.9016 34.7813 92.2697 34.8063C92.6378 34.8312 92.9997 34.9443 93.3694 34.9443C93.8857 34.9443 93.8857 34.7883 94.402 34.7883C94.9183 34.7883 94.9167 34.7696 95.433 34.7696C95.9493 34.7696 95.9493 34.6136 96.4641 34.6136C96.9788 34.6136 96.9804 34.5934 97.4967 34.5934C98.013 34.5934 98.013 34.8531 98.5293 34.8531H99.5635C100.081 34.8531 100.081 34.6129 100.598 34.6129C100.988 34.6129 101.382 34.9046 101.752 34.8312C102.114 34.6974 102.462 34.5279 102.79 34.3251C103.414 33.9304 103.99 33.4636 104.506 32.9345C104.776 32.6646 105.208 32.5726 105.424 32.2528C105.64 31.9331 106.163 31.7513 106.311 31.3949C106.46 31.0385 106.031 30.505 106.106 30.1244C106.181 29.7438 106.711 29.4225 106.711 29.0326C106.666 28.6356 106.584 28.2439 106.464 27.8627C106.405 27.473 106.309 27.0898 106.176 26.7185C106.03 26.3637 105.408 26.2756 105.195 25.9589C104.982 25.6423 104.977 25.193 104.707 24.9232C104.437 24.6533 104.282 24.2088 103.964 23.9966C103.646 23.7845 103.178 23.8134 102.826 23.6621C102.474 23.5107 102.17 23.1403 101.79 23.0639C101.41 22.9874 100.994 23.2705 100.604 23.2705C100.089 23.2705 100.089 23.1621 99.5728 23.1621C99.0565 23.1621 99.0565 22.9804 98.5418 22.9804C98.027 22.9804 98.0255 23.2924 97.5092 23.2924C96.9929 23.2924 96.9929 23.3438 96.4766 23.3438C95.9603 23.3438 95.9603 23.0389 95.444 23.0389C94.9277 23.0389 94.9276 23.3368 94.4098 23.3368C93.8919 23.3368 93.8935 23.3782 93.3756 23.3782C92.9857 23.3782 92.6097 23.088 92.2401 23.003C91.887 22.8632 91.5513 22.6831 91.2394 22.4664C90.8916 22.298 90.3612 22.4267 90.0617 22.1864C89.7623 21.9462 89.7038 21.4518 89.4635 21.1507C89.2233 20.8497 88.7437 20.6913 88.5744 20.3443C88.4626 19.963 88.3917 19.5708 88.3631 19.1744C88.2796 18.8063 88.4715 18.4249 88.4715 18.0303C88.4715 17.6356 88.2375 17.2504 88.3233 16.8776C88.3374 16.4732 88.3925 16.0713 88.4879 15.678C88.6563 15.3286 89.2959 15.2686 89.5353 14.9699C89.786 14.7039 90.0672 14.4683 90.3729 14.268C90.674 14.0285 90.6545 13.2751 91.0023 13.1067C91.3739 12.9357 91.7627 12.805 92.1621 12.7167C92.5302 12.6332 92.9818 12.9717 93.3748 12.9717" fill="#FF6738"/>
<path d="M127.172 13.0204C127.689 13.0204 127.689 12.8106 128.205 12.8106C128.721 12.8106 128.72 12.8371 129.236 12.8371C130.006 12.7903 130.528 12.7638 131.3 12.7755C131.816 12.7755 131.816 13.107 132.332 13.107C132.849 13.107 132.85 13.0571 133.366 13.0571C133.883 13.0571 133.884 12.9011 134.401 12.9011C134.782 12.873 135.16 12.8072 135.528 12.7045C135.908 12.6266 136.386 12.8231 136.738 12.678C137.09 12.533 137.273 12.0213 137.59 11.81C137.937 11.6413 138.267 11.4405 138.576 11.2102C138.819 10.9115 139.033 10.5902 139.214 10.2509C139.477 9.964 139.712 9.65271 139.916 9.32126C140.096 8.96909 140.241 8.60027 140.349 8.22002C140.357 7.82367 140.329 7.42741 140.266 7.03611C140.286 6.64964 140.27 6.26214 140.217 5.87871C140.139 5.49889 139.708 5.2462 139.561 4.89757C139.42 4.56004 139.244 4.23846 139.035 3.93827C138.822 3.61851 138.82 3.15368 138.55 2.88383C138.281 2.61397 137.798 2.63581 137.48 2.42212C137.183 2.20908 136.865 2.02668 136.531 1.87773C136.182 1.73267 135.907 1.42928 135.527 1.35441C135.157 1.25611 134.778 1.19471 134.396 1.17113C133.881 1.17113 133.881 0.962891 133.365 0.962891C132.849 0.962891 132.849 1.26082 132.334 1.26082C131.819 1.26082 131.817 1.50259 131.301 1.50259C130.785 1.50259 130.785 1.32477 130.269 1.32477C129.752 1.32477 129.753 0.996427 129.237 0.996427C128.72 0.996427 128.72 1.51117 128.203 1.51117C127.685 1.51117 127.686 1.30137 127.172 1.30137C126.803 1.30137 126.439 1.26628 126.075 1.28968C125.711 1.31307 125.295 0.953532 124.929 1.00111C124.563 1.04868 124.283 1.62504 123.923 1.70303C123.564 1.78102 123.132 1.54705 122.779 1.6383C122.426 1.72955 122.21 2.27315 121.863 2.39248C121.516 2.51181 121.103 2.42212 120.764 2.5625C120.424 2.70289 119.922 2.50401 119.594 2.66701C118.555 3.1062 117.618 3.7536 116.839 4.56923C116.243 5.01534 115.63 5.44897 115.051 5.9099C114.791 6.16962 114.988 6.8575 114.744 7.13281C114.501 7.40812 113.964 7.43074 113.737 7.72087C113.509 8.011 113.436 8.41032 113.23 8.71527C113.025 9.02021 112.719 9.26121 112.534 9.57941C112.349 9.89762 112.336 10.304 112.173 10.6323C112.01 10.9606 111.642 11.1985 111.501 11.537C111.361 11.8755 111.453 12.3029 111.334 12.6515C111.216 13.0001 111.047 13.3246 110.952 13.681C110.856 14.0374 110.502 14.3353 110.43 14.6949C110.358 15.0544 110.374 15.4397 110.325 15.8063C110.276 16.1728 110.569 16.5644 110.545 16.9325C110.522 17.3006 110.035 17.6523 110.035 18.0244C110.035 18.3964 110.286 18.7668 110.31 19.1303C110.347 19.8674 110.478 20.5968 110.7 21.3008C110.771 21.6627 110.934 21.9957 111.025 22.3498C111.116 22.7039 110.884 23.1656 111.001 23.5126C111.119 23.8597 111.494 24.1202 111.634 24.4587C111.774 24.7972 111.712 25.2386 111.874 25.5677C112.036 25.8968 112.534 26.0505 112.717 26.3671C112.901 26.6838 112.784 27.1954 112.987 27.4996C113.191 27.8037 113.719 27.8809 113.943 28.1726C114.168 28.4643 114.489 28.6554 114.731 28.9307C114.973 29.206 114.965 29.7106 115.226 29.968C115.486 30.2254 115.927 30.2878 116.202 30.5295C116.476 30.7713 116.655 31.1223 116.947 31.3461C117.238 31.57 117.667 31.5801 117.972 31.7891C118.277 31.9981 118.344 32.569 118.663 32.7554C118.981 32.9418 119.415 32.9114 119.745 33.0783C120.427 33.3611 121.087 33.695 121.719 34.0774C122.79 34.3511 123.889 34.5016 124.995 34.5258C125.357 34.5726 125.697 34.7723 126.069 34.7957C126.441 34.8191 126.798 34.6537 127.168 34.6537C127.684 34.6537 127.684 35.1997 128.2 35.1997C128.717 35.1997 128.715 34.8097 129.231 34.8097C129.748 34.8097 129.746 35.1474 130.262 35.1474C130.779 35.1474 130.779 35.1576 131.295 35.1576C131.811 35.1576 131.811 34.7676 132.328 34.7676C132.844 34.7676 132.845 35.1958 133.362 35.1958C133.878 35.1958 133.88 34.9712 134.396 34.9712C134.786 34.9712 135.124 34.6031 135.493 34.5297C135.869 34.5058 136.241 34.4455 136.605 34.3496C136.961 34.2014 137.486 34.3246 137.803 34.1156C138.119 33.9066 138.306 33.4675 138.575 33.1976C138.845 32.9278 139.27 32.7359 139.485 32.4177C139.637 32.0469 139.754 31.6628 139.835 31.2705C140.02 30.926 140.17 30.5639 140.283 30.1895C140.295 29.7982 140.271 29.4066 140.212 29.0196C140.245 28.6354 140.241 28.2489 140.2 27.8653C140.074 27.5005 139.913 27.1491 139.717 26.8164C139.439 26.1132 138.96 25.5073 138.34 25.074C138.078 24.8189 137.79 24.5912 137.482 24.3947C137.17 24.1834 136.977 23.7872 136.624 23.6398C136.272 23.493 135.906 23.3819 135.532 23.3083C135.163 23.235 134.786 23.437 134.396 23.437C133.881 23.437 133.881 23.1055 133.365 23.1055C132.849 23.1055 132.849 23.2888 132.334 23.2888C131.819 23.2888 131.817 23.4502 131.301 23.4502C130.785 23.4502 130.785 23.4939 130.269 23.4939C129.752 23.4939 129.752 23.217 129.236 23.217C128.72 23.217 128.72 22.8388 128.202 22.8388C127.684 22.8388 127.685 23.4066 127.168 23.4066C126.778 23.4066 126.449 22.8723 126.081 22.7873C125.709 22.7489 125.343 22.6678 124.989 22.5455C124.661 22.3665 124.354 22.1501 124.075 21.9005C123.775 21.6603 123.134 21.7336 122.893 21.4326C122.652 21.1315 122.659 20.623 122.494 20.2736C122.33 19.9242 122.436 19.5039 122.349 19.124C122.266 18.7559 121.976 18.4221 121.976 18.0244C121.976 17.6266 122.288 17.2998 122.373 16.9325C122.457 16.5651 122.281 16.098 122.446 15.7548C122.835 15.0827 123.402 14.5307 124.084 14.1591C124.384 13.9197 124.537 13.4572 124.886 13.2864C125.236 13.0997 125.604 12.9522 125.986 12.8465C126.354 12.763 126.775 13.0181 127.168 13.0181" fill="#FF6738"/>
<path d="M173.739 42.4799C173 42.4655 172.27 42.6295 171.609 42.958C171.254 43.1062 170.777 42.9829 170.461 43.192C170.144 43.401 170.044 43.8619 169.774 44.1333C169.504 44.4047 169.105 44.5397 168.891 44.8579C168.678 45.1761 168.287 45.4225 168.14 45.7774C167.994 46.1322 168.118 46.5838 168.044 46.9636C168.01 47.3405 168.013 47.7198 168.052 48.0961C168.052 48.6475 167.605 48.6475 167.605 49.2004C167.605 49.7534 167.643 49.7518 167.643 50.3032C167.643 50.8546 167.844 50.8562 167.844 51.4076C167.844 51.959 167.869 51.9606 167.869 52.512C167.869 53.0634 167.778 53.0634 167.778 53.6163C167.778 54.1693 167.974 54.1677 167.974 54.7191C167.974 55.2705 167.74 55.2721 167.74 55.8235C167.74 56.3749 167.881 56.3765 167.881 56.9294C167.881 57.4824 168.106 57.4824 168.106 58.0353C168.106 58.4253 167.745 58.7895 167.66 59.1584C167.575 59.5273 167.743 60.021 167.578 60.3642C167.413 60.7073 166.974 60.9203 166.735 61.2221C166.496 61.5239 166.443 62.0613 166.142 62.3015C165.783 62.4921 165.406 62.6455 165.016 62.7593C164.673 62.9246 164.21 62.7156 163.83 62.8022C163.471 62.8815 163.105 62.9185 162.738 62.9122C162.364 62.9848 161.983 63.0173 161.602 63.0089C161.233 62.9179 160.874 62.7855 160.535 62.6142C160.185 62.4458 159.705 62.4583 159.405 62.2157C159.106 61.9731 159.031 61.4857 158.791 61.1846C158.55 60.8836 158.044 60.7268 157.876 60.3798C157.707 60.0327 158.047 59.5086 157.959 59.1272C157.839 58.7737 157.76 58.4072 157.725 58.0353C157.725 57.4839 157.516 57.4839 157.516 56.9325C157.55 56.1963 157.539 55.4587 157.484 54.7238C157.484 54.1724 157.484 54.1724 157.484 53.6195C157.484 53.0665 157.815 53.068 157.815 52.5166C157.815 51.9652 157.765 51.9652 157.765 51.4123C157.765 50.8593 157.609 50.8609 157.609 50.3079C157.609 49.755 157.523 49.755 157.523 49.202C157.523 48.649 157.854 48.649 157.854 48.1031C157.854 47.7131 157.452 47.352 157.379 46.9824C157.357 46.5978 157.298 46.2162 157.203 45.8429C157.019 45.5048 156.803 45.1852 156.559 44.8883C156.241 44.1664 155.744 43.5375 155.116 43.0609C154.754 42.9002 154.378 42.7735 153.993 42.6827C153.642 42.515 153.277 42.3818 152.901 42.2849C152.531 42.2116 152.133 42.5134 151.743 42.5134C151.376 42.5148 151.01 42.554 150.651 42.6304C150.272 42.7084 149.842 42.529 149.493 42.6741C149.143 42.8192 148.975 43.277 148.658 43.4883C148.349 43.6823 148.06 43.9068 147.795 44.1583C147.526 44.4281 147.139 44.5693 146.927 44.8875C146.471 45.5181 146.088 46.1983 145.785 46.9153C145.711 47.2834 145.967 47.7085 145.967 48.0992C145.967 48.6506 146.208 48.6506 146.208 49.2036C146.208 49.7565 146.03 49.755 146.03 50.3064C146.03 50.8578 145.704 50.8593 145.704 51.4107C145.704 51.9621 146.219 51.9637 146.219 52.5151C146.219 53.0665 146.006 53.0665 146.006 53.6195C146.006 54.1724 145.961 54.1709 145.961 54.7223C145.961 55.2737 145.562 55.2752 145.562 55.8266C145.562 56.378 146.087 56.3796 146.087 56.9325C146.087 57.4855 145.765 57.4855 145.765 58.0385C145.765 58.4081 146.232 58.756 146.254 59.1194C146.276 59.4829 146.084 59.8627 146.131 60.2253C146.178 60.588 145.855 61.0232 145.928 61.3827C146.081 62.4994 146.463 63.5727 147.048 64.5359C147.331 65.227 147.594 65.9351 147.891 66.6082C148.076 66.9264 148.791 66.9147 148.994 67.2181C149.198 67.5215 149.081 68.0526 149.306 68.3443C149.532 68.636 149.894 68.8122 150.136 69.0875C150.378 69.3629 150.532 69.724 150.792 69.9837C151.052 70.2434 151.442 70.3619 151.718 70.6076C151.994 70.8533 152.127 71.2659 152.42 71.4905C152.712 71.7151 153.147 71.7354 153.452 71.9405C153.757 72.1456 154.029 72.3921 154.347 72.5769C154.665 72.7617 154.861 73.1813 155.191 73.3451C155.521 73.5089 155.893 73.5947 156.237 73.7351C156.581 73.8755 157.035 73.6984 157.384 73.817C157.734 73.9355 157.948 74.4978 158.302 74.593C158.657 74.6881 159.082 74.5415 159.442 74.6133C160.529 74.8141 161.638 74.8601 162.738 74.7497C163.108 74.7497 163.49 75.0991 163.854 75.075C164.217 75.0508 164.571 74.7568 164.933 74.71C165.295 74.6632 165.706 74.8386 166.066 74.7685C166.425 74.6983 166.704 74.2568 167.057 74.1609C167.41 74.065 167.875 74.3169 168.221 74.1944C168.568 74.072 168.78 73.5861 169.119 73.4449C169.458 73.3038 169.727 73.0417 170.055 72.8787C170.383 72.7157 170.868 72.8538 171.184 72.6689C171.501 72.4841 171.674 72.0738 171.978 71.8695C172.281 71.6652 172.667 71.5833 172.959 71.3594C173.25 71.1356 173.374 70.7246 173.65 70.482C173.926 70.2395 174.502 70.3261 174.761 70.0624C175.02 69.7988 175.11 69.3761 175.352 69.1C175.801 68.5133 176.294 67.9621 176.828 67.4513C177.228 66.827 177.533 66.1465 177.733 65.4321C177.896 65.1037 177.972 64.7457 178.114 64.4057C178.256 64.0657 178.535 63.7896 178.654 63.4409C178.772 63.0923 178.707 62.6985 178.802 62.342C178.897 61.9856 179.515 61.7524 179.586 61.3905C179.658 61.0287 179.335 60.5974 179.384 60.2308C179.432 59.8642 179.803 59.5289 179.827 59.16C179.85 58.7911 179.873 58.4089 179.873 58.0392C179.873 57.4878 179.483 57.4878 179.483 56.9364C179.483 56.385 179.912 56.3835 179.912 55.8321C179.912 55.2807 179.692 55.2783 179.692 54.7277C179.692 54.1771 179.357 54.1763 179.357 53.6233C179.357 53.0704 179.508 53.0719 179.508 52.5205C179.508 51.9691 179.868 51.9691 179.868 51.4162C179.868 50.8632 179.65 50.8648 179.65 50.3118C179.65 49.7589 179.858 49.7589 179.858 49.2059C179.858 48.6529 179.624 48.6529 179.624 48.1C179.66 47.7109 179.66 47.3192 179.624 46.9301C179.487 46.5629 179.314 46.2098 179.109 45.8757C178.992 45.5079 178.84 45.1524 178.654 44.8142C178.129 44.2621 177.549 43.7656 176.922 43.3323C175.915 42.8733 174.838 42.5862 173.735 42.483" fill="#FF6738"/>
<path d="M94.1949 52.8245C94.7112 52.8245 94.7112 52.6686 95.2275 52.6686C95.7438 52.6686 95.7423 53.0765 96.2586 53.0765C96.7749 53.0765 96.7733 52.7419 97.2896 52.7419C97.8059 52.7419 97.8059 52.5859 98.3222 52.5859C99.0936 52.5797 99.6145 52.6179 100.389 52.6693C100.907 52.6693 100.907 52.8729 101.423 52.8729C101.813 52.8729 102.139 52.5563 102.507 52.4829C102.887 52.405 103.377 52.7364 103.726 52.5914C104.104 52.4651 104.47 52.304 104.818 52.1101C105.136 51.8957 105.201 51.3474 105.471 51.0775C105.769 50.8393 106.042 50.572 106.288 50.2797C106.499 49.9677 106.901 49.7166 107.047 49.3617C107.222 49.0001 107.362 48.6224 107.464 48.234C107.537 47.8643 107.022 47.4228 107.022 47.0329C107.031 46.667 107.004 46.3012 106.939 45.941C106.809 45.2145 106.505 44.5303 106.053 43.9468C105.838 43.6285 105.866 43.1372 105.597 42.8673C105.327 42.5975 104.859 42.5889 104.541 42.3744C104.222 42.16 104.013 41.7981 103.656 41.6499C103.3 41.5017 102.987 41.1687 102.607 41.0923C102.239 41.0189 101.815 41.2303 101.425 41.2303C100.908 41.2303 100.908 41.352 100.394 41.352C99.8789 41.352 99.8774 40.9043 99.3626 40.9043C98.8479 40.9043 98.8463 40.941 98.33 40.941C97.8137 40.941 97.8137 41.1422 97.2974 41.1422C96.7811 41.1422 96.7811 41.1671 96.2648 41.1671C95.7485 41.1671 95.7485 41.0774 95.2306 41.0774C94.7128 41.0774 94.7128 41.2724 94.1965 41.2724C93.8268 41.2724 93.4501 41.054 93.0851 41.0774C92.7201 41.1008 92.359 41.2787 91.9932 41.3255C91.6274 41.3722 91.3084 41.6522 90.9489 41.7232C90.5893 41.7942 90.1612 41.5672 89.8079 41.6632C89.4546 41.7591 89.198 42.1732 88.8501 42.2871C88.5023 42.401 88.0702 42.2933 87.7341 42.4337C87.3979 42.5741 87.2107 43.0381 86.8816 43.2012C86.5525 43.3642 86.1384 43.3431 85.8209 43.5264C85.5035 43.7097 84.9981 43.6083 84.6932 43.8126C84.3882 44.0169 84.0692 44.2322 83.7783 44.4568C83.4874 44.6814 83.3369 45.0917 83.0608 45.335C82.7847 45.5783 82.5008 45.8178 82.2411 46.0775C81.9814 46.3372 81.9291 46.7856 81.685 47.0617C81.4409 47.3378 80.9831 47.4299 80.7585 47.7216C80.5339 48.0132 80.6025 48.5093 80.4005 48.8134C80.1985 49.1176 79.5793 49.1667 79.396 49.4849C79.068 50.1593 78.8319 50.8747 78.694 51.6118C78.5529 51.9495 78.4008 52.2809 78.2823 52.6296C78.0888 53.3315 77.929 54.0467 77.773 54.7619C77.7012 55.1214 77.3136 55.4334 77.2668 55.7999C77.1944 56.9115 77.256 58.0278 77.4501 59.1247C77.4735 59.4928 77.1849 59.8976 77.2317 60.2603C77.2785 60.6229 77.6997 60.9349 77.7714 61.2929C77.8432 61.6509 77.7667 62.0478 77.8627 62.4019C77.9586 62.756 78.1746 63.0766 78.2955 63.4228C78.4013 64.1618 78.6005 64.8843 78.8882 65.5731C79.0528 65.903 79.4046 66.1409 79.5902 66.4575C79.7758 66.7741 79.917 67.1251 80.1213 67.4285C80.3256 67.7319 80.8146 67.8286 81.0377 68.1195C81.2608 68.4104 81.4924 68.6756 81.7342 68.9509C81.9759 69.2262 82.0071 69.6934 82.2669 69.9523C82.5266 70.2112 83.0117 70.2206 83.2878 70.4624C83.5639 70.7041 83.8142 70.949 84.1043 71.1737C84.3945 71.3983 84.5637 71.7765 84.8687 71.9816C85.4832 72.3981 86.0549 72.8895 86.643 73.334C86.9713 73.4955 87.4338 73.3793 87.7738 73.522C88.1139 73.6647 88.5288 73.5602 88.8782 73.678C89.2276 73.7957 89.5107 74.0679 89.8664 74.1646C90.222 74.2613 90.5059 74.6607 90.8678 74.7324C91.2297 74.8042 91.6672 74.3557 92.0377 74.4041C92.4081 74.4524 92.7302 74.6973 93.0991 74.7207C93.468 74.7441 93.8237 74.7987 94.191 74.7987C94.7073 74.7987 94.7073 75.1988 95.2236 75.1988C95.7399 75.1988 95.7384 74.6724 96.2547 74.6724C96.771 74.6724 96.7694 74.9952 97.2857 74.9952C97.802 74.9952 97.802 74.5406 98.3183 74.5406C98.8346 74.5406 98.8346 74.7745 99.3509 74.7745C99.8672 74.7745 99.8688 75.1645 100.385 75.1645C101.131 75.226 101.882 75.1856 102.617 75.0444C103.74 74.6366 104.8 74.0723 105.766 73.3683C106.036 73.0985 105.807 72.4153 106.021 72.0971C106.234 71.7789 106.76 71.6525 106.908 71.2961C107.002 70.92 107.06 70.5359 107.081 70.1488C107.2 69.7825 107.281 69.4052 107.325 69.0226C107.266 68.642 107.169 68.2681 107.036 67.9066C107.036 67.516 107.001 67.1262 106.929 66.7422C106.781 66.3857 106.391 66.1596 106.178 65.8429C105.988 65.5166 105.764 65.2104 105.512 64.9289C105.242 64.659 105.109 64.1911 104.791 63.9774C104.447 63.7811 104.087 63.6172 103.713 63.4876C103.363 63.3425 102.905 63.5429 102.525 63.4689C102.145 63.3948 101.809 62.8839 101.419 62.8839C100.903 62.8839 100.903 63.1241 100.388 63.1241C99.8735 63.1241 99.8719 63.1312 99.3572 63.1312C98.8424 63.1312 98.8409 63.2294 98.3246 63.2294C97.8083 63.2294 97.8083 63.3074 97.292 63.3074C96.7756 63.3074 96.7757 62.9463 96.2593 62.9463C95.743 62.9463 95.743 63.2045 95.2252 63.2045C94.7073 63.2045 94.7073 62.9643 94.191 62.9643C93.801 62.9643 93.3799 63.2809 93.0102 63.1982C92.6405 63.1156 92.3956 62.6382 92.0525 62.4706C91.7093 62.3029 91.1782 62.4222 90.8826 62.1828C90.5424 61.9629 90.2268 61.7072 89.9412 61.42C89.7018 61.1205 89.7743 60.5871 89.6051 60.2377C89.4358 59.8883 89.0591 59.5997 88.9757 59.2199C88.9419 58.8232 88.9498 58.424 88.9991 58.0289C88.9242 57.6302 88.8902 57.2249 88.8977 56.8193C88.9843 56.4395 89.5427 56.2117 89.7088 55.8686C89.8749 55.5254 89.8866 55.084 90.1269 54.7845C90.366 54.4762 90.6386 54.1952 90.9395 53.9468C91.2775 53.7548 91.6356 53.6005 92.0072 53.4867C92.6872 53.1304 93.4279 52.9045 94.191 52.8207" fill="#FF6738"/>
<path d="M127.994 53.0782C128.51 53.0782 128.51 52.9464 129.026 52.9464C129.543 52.9464 129.541 52.9362 130.058 52.9362C130.574 52.9362 130.572 52.7802 131.089 52.7802C131.605 52.7802 131.605 52.852 132.121 52.852C132.637 52.852 132.637 52.7506 133.154 52.7506C133.927 52.7873 134.448 52.8107 135.222 52.7958C135.612 52.7958 136.042 53.0758 136.41 53.0025C136.79 52.9245 137.028 52.3786 137.376 52.2343C137.725 52.1072 138.06 51.9449 138.375 51.75C138.99 51.3255 139.535 50.8091 139.993 50.219C140.206 49.9024 140.612 49.6809 140.76 49.326C140.879 48.9533 140.962 48.5702 141.008 48.1819C141.08 47.8137 141.398 47.4222 141.398 47.0323C141.398 46.6423 140.973 46.2726 140.9 45.9029C140.777 45.5463 140.618 45.2029 140.427 44.8781C140.278 44.5233 140.456 43.9937 140.245 43.6786C140.033 43.3635 139.526 43.2707 139.257 42.9993C138.959 42.775 138.64 42.5804 138.305 42.4183C137.362 41.823 136.317 41.4083 135.222 41.1954C134.706 41.1954 134.706 41.4785 134.191 41.4785C133.676 41.4785 133.675 41.0183 133.16 41.0183C132.645 41.0183 132.644 40.9263 132.127 40.9263C131.611 40.9263 131.611 41.3124 131.095 41.3124C130.578 41.3124 130.578 41.186 130.062 41.186C129.546 41.186 129.546 40.952 129.028 40.952C128.51 40.952 128.512 40.8818 127.994 40.8818C127.624 40.8818 127.272 41.4527 126.908 41.4761C125.819 41.5021 124.74 41.69 123.707 42.0338C123.352 42.1305 122.909 41.9137 122.563 42.0338C122.216 42.1539 121.979 42.5532 121.64 42.6936C121.301 42.834 120.882 42.7817 120.553 42.9447C120.225 43.1077 119.786 43.0843 119.468 43.2676C119.15 43.4509 118.968 43.8642 118.663 44.0686C118.358 44.2729 118.135 44.5818 117.845 44.8064C117.555 45.031 116.982 44.921 116.707 45.1628C116.141 45.6563 115.665 46.2455 115.303 46.9036C114.848 47.4862 114.367 48.0532 113.899 48.6194C113.694 48.9243 113.665 49.3408 113.481 49.659C113.297 49.9772 112.918 50.1925 112.755 50.5232C112.592 50.8539 112.567 51.2493 112.425 51.5893C112.283 51.9294 112.367 52.3435 112.247 52.6921C112.128 53.0407 111.718 53.2934 111.623 53.6499C111.529 54.0063 111.761 54.4298 111.69 54.7924C111.618 55.1551 111.304 55.4655 111.257 55.8321C111.21 56.1986 111.518 56.5847 111.491 56.9544C111.464 57.324 111.241 57.6656 111.241 58.0353C111.241 58.405 110.9 58.7903 110.923 59.1545C110.946 59.5187 110.973 59.9071 111.02 60.269C111.067 60.6309 111.35 60.9709 111.42 61.3305C111.49 61.69 111.558 62.0597 111.654 62.413C111.75 62.7663 112.112 63.0369 112.229 63.3856C112.346 63.7342 112.198 64.1803 112.339 64.518C112.479 64.8557 112.946 65.0444 113.108 65.3759C113.271 65.7074 113.009 66.265 113.192 66.5817C113.375 66.8983 113.67 67.165 113.873 67.4708C114.077 67.7765 114.465 67.9535 114.689 68.2452C115.109 68.8462 115.603 69.3922 116.159 69.8706C116.418 70.1303 116.683 70.3752 116.96 70.6169C117.236 70.8587 117.311 71.3516 117.604 71.5763C118.529 72.1965 119.526 72.7027 120.572 73.0838C120.901 73.2468 121.105 73.7 121.445 73.8403C121.785 73.9807 122.261 73.7717 122.609 73.8903C122.958 74.0088 123.259 74.2716 123.615 74.3668C123.972 74.4619 124.353 74.4315 124.714 74.5033C125.407 74.7814 126.133 74.9701 126.873 75.0648C127.238 75.0882 127.619 74.9018 127.989 74.9018C128.505 74.9018 128.505 74.9665 129.022 74.9665C129.538 74.9665 129.537 74.6234 130.053 74.6234C130.569 74.6234 130.568 74.6132 131.084 74.6132C131.6 74.6132 131.6 74.9096 132.116 74.9096C132.633 74.9096 132.633 74.5844 133.149 74.5844C133.665 74.5844 133.667 74.6148 134.183 74.6148C134.7 74.6148 134.701 74.8262 135.217 74.8262C135.997 74.8517 136.776 74.7907 137.542 74.6444C137.897 74.4963 138.109 74.0462 138.425 73.8349C138.742 73.6235 138.858 73.211 139.127 72.945C139.396 72.6791 139.751 72.5238 139.965 72.2056C140.178 71.8874 140.646 71.6995 140.795 71.3477C140.943 70.996 140.561 70.4953 140.639 70.1155C140.78 69.7678 140.887 69.4067 140.955 69.0376C140.971 68.6605 140.949 68.2827 140.891 67.9099C140.813 67.53 141.075 67.0223 140.93 66.6737C140.785 66.3251 140.132 66.2143 139.916 65.8977C139.7 65.581 139.713 65.0834 139.441 64.8136C139.17 64.5437 138.602 64.6576 138.284 64.447C137.966 64.2364 137.774 63.8722 137.418 63.724C137.063 63.5759 136.794 63.0892 136.415 63.0143C135.681 62.8767 134.931 62.8376 134.186 62.8981C133.67 62.8981 133.67 63.0541 133.155 63.0541C132.641 63.0541 132.639 63.0089 132.123 63.0089C131.606 63.0089 131.606 62.8903 131.09 62.8903C130.574 62.8903 130.574 63.5033 130.058 63.5033C129.541 63.5033 129.541 63.097 129.023 63.097C128.505 63.097 128.507 63.267 127.989 63.267C127.603 63.2226 127.223 63.135 126.857 63.0057C126.466 62.9758 126.079 62.9036 125.704 62.7905C125.355 62.622 125.153 62.2157 124.853 61.9762C124.554 61.7368 124.111 61.6268 123.87 61.3266C123.644 61.0063 123.453 60.6621 123.301 60.3002C123.136 59.957 123.273 59.5203 123.186 59.1389C123.077 58.784 123.01 58.4176 122.985 58.047C122.985 57.6571 122.707 57.2305 122.79 56.8608C122.874 56.4911 123.448 56.2844 123.615 55.9413C123.781 55.5981 123.771 55.173 124.005 54.872C124.724 53.9502 125.701 53.2635 126.812 52.8996C127.18 52.8146 127.592 53.0977 127.987 53.0977" fill="#FF6738"/>
</g>
</svg>
