<svg width="208" height="47" viewBox="0 0 208 47" fill="none" xmlns="http://www.w3.org/2000/svg">
<path d="M24.5465 23.0916L35.5556 12.0824C38.3223 9.31582 38.3223 4.84156 35.5556 2.07495C32.789 -0.691651 28.3148 -0.691651 25.5482 2.07495L14.1574 13.4657V7.22656C14.1574 3.31516 10.9901 0.14787 7.07869 0.14787C3.16728 0.14787 0 3.31516 0 7.22656V39.1093C0 43.0207 3.16728 46.188 7.07869 46.188C10.9901 46.188 14.1574 43.0207 14.1574 39.1093V32.727L25.5482 44.1178C28.3148 46.8844 32.789 46.8844 35.5556 44.1178C38.3223 41.3512 38.3223 36.8769 35.5556 34.1103L24.5465 23.1011V23.0916Z" fill="#6656B7"/>
<path d="M159.834 0.146259C155.923 0.146259 152.756 3.31354 152.756 7.22495V19.3408L139.314 2.76976L139.295 2.75068C139.18 2.61712 139.066 2.48356 138.942 2.35954C138.904 2.31184 138.856 2.26414 138.818 2.22598C138.799 2.2069 138.78 2.18782 138.76 2.16874C138.493 1.91116 138.217 1.6822 137.921 1.46278C137.873 1.42462 137.816 1.38646 137.768 1.3483C137.654 1.27198 137.53 1.2052 137.406 1.12888C137.329 1.08118 137.253 1.03348 137.167 0.985781C137.072 0.928541 136.967 0.89038 136.872 0.84268C136.767 0.78544 136.652 0.73774 136.538 0.69004C136.461 0.66142 136.385 0.632799 136.309 0.604179C136.166 0.546939 136.022 0.499239 135.879 0.451539C135.832 0.441999 135.784 0.43246 135.746 0.41338C135.288 0.27982 134.811 0.2035 134.324 0.165339C134.162 0.155799 134 0.136719 133.838 0.136719H133.809C133.733 0.136719 133.666 0.136719 133.59 0.146259C133.437 0.146259 133.284 0.146259 133.132 0.165339C133.027 0.174879 132.931 0.193959 132.827 0.203499C132.703 0.222579 132.569 0.24166 132.445 0.26074C132.33 0.27982 132.226 0.30844 132.111 0.33706C131.997 0.36568 131.882 0.3943 131.777 0.42292C131.663 0.46108 131.548 0.499239 131.434 0.5374C131.329 0.57556 131.224 0.60418 131.128 0.651881C131.004 0.699581 130.89 0.756821 130.775 0.814061C130.68 0.861761 130.594 0.89992 130.499 0.947621C130.375 1.0144 130.251 1.09072 130.127 1.16704C130.05 1.21474 129.974 1.2529 129.898 1.3006C129.755 1.396 129.621 1.50094 129.488 1.59634C129.44 1.6345 129.392 1.66312 129.344 1.70128L129.325 1.72036C129.173 1.84438 129.03 1.97794 128.896 2.1115C128.867 2.14012 128.829 2.16874 128.801 2.19736C128.638 2.35954 128.486 2.53126 128.343 2.70298C128.247 2.81746 128.161 2.94148 128.076 3.0655C128.028 3.13228 127.98 3.18952 127.933 3.2563C127.856 3.36124 127.799 3.47573 127.732 3.59021C127.684 3.67607 127.627 3.76193 127.58 3.84779C127.532 3.94319 127.494 4.02905 127.446 4.12445C127.389 4.23893 127.331 4.35341 127.284 4.47743C127.255 4.54421 127.236 4.61099 127.207 4.68731C127.15 4.83041 127.093 4.98305 127.045 5.13569C127.036 5.17385 127.026 5.21201 127.017 5.25017C126.883 5.70809 126.797 6.19463 126.759 6.69071C126.75 6.85289 126.74 7.01507 126.73 7.17725V39.1077C126.73 43.0191 129.898 46.1864 133.809 46.1864C137.721 46.1864 140.888 43.0191 140.888 39.1077V27.1827L153.996 43.3435C154.492 43.954 155.074 44.4596 155.713 44.8603C156.877 45.6903 158.289 46.1864 159.825 46.1864C163.736 46.1864 166.903 43.0191 166.903 39.1077V7.21541C166.903 3.304 163.736 0.136719 159.825 0.136719L159.834 0.146259Z" fill="#6656B7"/>
<path d="M200.692 21.0031C196.78 21.0031 193.613 24.1703 193.613 28.0818V32.3557H191.037C188.414 32.3557 186.286 30.2283 186.286 27.6048V19.1428C186.286 16.5002 188.433 14.3537 191.075 14.3537H200.692C204.603 14.3537 207.77 11.1864 207.77 7.27498C207.77 3.36357 204.603 0.196289 200.692 0.196289H187.154C178.855 0.196289 172.129 6.922 172.129 15.2218V31.4875C172.129 39.7874 178.855 46.5131 187.154 46.5131H200.692C204.603 46.5131 207.77 43.3458 207.77 39.4344V28.0818C207.77 24.1703 204.603 21.0031 200.692 21.0031Z" fill="#6656B7"/>
<path d="M74.7452 28.1322C77.9888 25.1939 80.0399 20.9581 80.0399 16.2263C80.0399 7.34454 72.8372 0.151367 63.965 0.151367H50.3132C50.1796 0.151367 50.0461 0.160908 49.903 0.170448C49.7694 0.170448 49.6359 0.151367 49.4928 0.151367C45.5813 0.151367 42.4141 3.31865 42.4141 7.23006V39.1128C42.4141 43.0242 45.5813 46.1915 49.4928 46.1915C53.4042 46.1915 56.5714 43.0242 56.5714 39.1128V32.3108H60.645L66.9605 42.3755C69.0402 45.6859 73.4096 46.6876 76.7199 44.6078C80.0303 42.5281 81.032 38.1588 78.9523 34.8484L74.7356 28.1418L74.7452 28.1322ZM60.2157 23.1714H56.4188C55.627 23.1714 54.9878 22.5322 54.9878 21.7404V11.027C54.9878 10.2352 55.627 9.59598 56.4188 9.59598H60.2157C63.9649 9.59598 66.9987 12.6297 66.9987 16.3789C66.9987 20.1282 63.9649 23.1619 60.2157 23.1619V23.1714Z" fill="#6656B7"/>
<path d="M116.503 28.1322C119.747 25.1939 121.798 20.9581 121.798 16.2263C121.798 7.34454 114.595 0.151367 105.723 0.151367H92.071C91.9374 0.151367 91.8039 0.160908 91.6608 0.170448C91.5272 0.170448 91.3937 0.151367 91.2506 0.151367C87.3392 0.151367 84.1719 3.31865 84.1719 7.23006V39.1128C84.1719 43.0242 87.3392 46.1915 91.2506 46.1915C95.162 46.1915 98.3293 43.0242 98.3293 39.1128V32.3108H102.403L108.718 42.3755C110.798 45.6859 115.167 46.6876 118.478 44.6078C121.788 42.5281 122.79 38.1588 120.71 34.8484L116.493 28.1418L116.503 28.1322ZM102.212 23.1714H98.4151C97.6233 23.1714 96.9841 22.5322 96.9841 21.7404V11.027C96.9841 10.2352 97.6233 9.59598 98.4151 9.59598H102.212C105.961 9.59598 108.995 12.6297 108.995 16.3789C108.995 20.1282 105.961 23.1619 102.212 23.1619V23.1714Z" fill="#6656B7"/>
</svg>
