<svg width="153" height="73" viewBox="0 0 153 73" fill="none" xmlns="http://www.w3.org/2000/svg">
<path d="M92.3594 14.9787L92.3939 14.8789C92.3824 14.8789 92.3709 14.8789 92.3594 14.8789V14.9787Z" fill="#0867FC"/>
<path d="M142.035 38.0316C144.002 28.8272 147.32 20.5397 150.193 11.868C148.276 11.868 146.674 11.8185 145.163 11.9631C144.059 12.0659 142.652 12.5948 142.127 13.8276L140.65 17.5566C137.203 26.0685 134.631 29.6833 134.631 29.6833C132.123 33.0165 129.208 35.8361 125.251 37.282C121.515 38.648 119.346 36.7113 120.32 32.8377C121.769 27.0768 123.428 21.3654 125.034 15.6464C125.852 12.7394 125.19 11.8109 122.112 11.7995C118.497 11.7843 114.886 11.8033 111.271 11.7881C110.613 11.7843 109.959 11.693 109.045 11.6245C110.244 7.82322 111.644 3.87736 112.869 0H105.586L104.959 1.8036C104.399 3.27996 103.985 4.81341 103.498 6.31641L101.667 11.4228L93.6158 11.3353L92.3867 14.8778C94.9019 14.8778 97.9231 14.8626 100.678 14.8626C100.119 16.9173 99.6962 18.6106 99.1902 20.281C97.4513 26.0266 95.4232 30.372 93.8517 36.1633C93.0032 39.2873 93.5016 43.0201 97.28 44.9302C99.8561 46.2506 104.704 45.8054 106.378 44.1464C101.877 41.5817 100.891 39.3101 101.956 34.6413C102.501 32.2593 103.387 29.9573 104.11 27.6172C105.271 23.8692 106.393 20.1098 107.611 16.3846C107.797 15.8138 108.387 14.9615 108.817 14.9425C111.831 14.8169 114.852 14.8778 118.071 14.8778L112.778 32.1147C110.495 39.0323 116.313 43.9865 123.645 41.6502C127.945 40.2804 131.035 37.3543 133.824 34.0021C134.197 33.5531 134.593 33.1155 135.354 32.2403L133.147 41.0034C132.812 41.909 132.119 42.9287 131.248 43.3625C127.869 45.0558 124.517 46.7871 121.503 49.0663C117.104 52.3919 113.528 56.6232 113.17 62.7379C112.904 67.2507 114.878 70.6829 119.209 71.9576C123.9 73.335 127.424 70.7894 130.262 67.8367C132.701 65.3025 134.638 62.0568 136.019 58.7959C137.732 54.7435 139.014 50.3676 140.125 46.0831L140.829 43.4805L143.2 42.6358C145.091 42.1259 146.997 41.3687 148.846 40.7218L150.46 40.1434L152.674 31.7761C149.006 33.9412 145.764 35.8437 142.035 38.0316ZM131.37 47.803C131.377 49.1272 131.236 49.9643 130.072 54.127L127.877 60.1581C127.245 61.741 126.674 63.0005 125.624 64.4844C124.083 66.6647 121.788 67.8215 119.924 66.9463C117.926 66.0103 116.903 63.2249 117.671 60.7555C118.261 58.8643 118.904 57.1559 121.351 54.6559C124.555 51.5472 127.157 49.4849 130.141 47.51C131.541 46.5169 131.37 47.803 131.37 47.803Z" fill="#0867FC"/>
<path d="M0 42.2573C0.692522 40.4652 1.33558 38.9203 1.89112 37.345C4.61935 29.6169 6.44958 21.7443 6.52187 13.4873L6.5447 11.4363C7.08502 11.4287 9.87413 11.4287 10.2546 11.4287C14.7446 11.4249 14.3793 12.2088 14.2652 16.9993C21.5176 10.2453 28.4238 9.56044 34.9571 18.0419C35.448 17.5739 35.9426 17.1439 36.3878 16.6645C40.1396 12.6235 44.6562 11.0026 50.1013 12.3229C54.3858 13.3617 57.3043 17.9506 56.3149 22.0144C55.2533 26.3674 54.5608 30.8079 53.5525 35.1761C51.6461 43.4293 55.8697 49.175 61.8475 51.4047C68.1639 53.7601 74.7657 53.9427 80.7739 50.735C84.1414 48.939 87.8817 45.8912 90.3664 43.1477C91.2454 43.9354 91.6412 45.4612 92.7827 46.4772C95.7849 49.1521 96.9226 48.4824 98.0603 49.5022C97.4515 50.0387 94.9934 51.3172 94.1068 51.8081C87.76 55.3201 80.9527 57.6146 73.7117 57.7402C66.737 57.8619 59.8803 56.5682 54.245 52.0135C46.9811 46.1423 44.8997 38.4979 47.2589 29.5484C47.8373 27.3453 48.3662 25.1308 48.9864 22.939C49.481 21.1963 49.6561 19.4917 48.1531 18.1979C46.6387 16.8928 44.7666 16.8091 42.9439 17.3989C40.0407 18.3311 38.0963 20.481 36.9472 23.1483C35.448 26.6223 34.2874 30.2486 33.0203 33.8215C32.3012 35.8458 31.7114 37.9196 30.958 39.9325C30.372 41.4963 29.2533 42.3563 27.4573 42.2764C25.5206 42.1889 23.58 42.2573 21.3426 42.2573C22.4118 39.6965 23.5838 37.5048 24.2497 35.1723C25.6271 30.3475 27.5943 25.5683 26.7876 20.3935C26.3539 17.6005 23.3973 16.8243 20.4979 17.9011C17.743 18.9247 15.0338 24.8035 15.0338 24.8035C13.8276 27.3453 13.2606 29.4533 11.8337 33.2812C11.0195 35.1267 10.4259 36.8732 9.70291 38.7643C8.53095 41.8236 7.85745 42.2535 4.64598 42.2612L0 42.2573Z" fill="#0867FC"/>
<path d="M90.0604 17.9045C91.9553 21.1122 91.5672 24.9058 90.6844 28.3C88.7439 35.7617 84.1626 40.9251 76.4154 42.3635C70.8601 43.3946 65.8412 41.6291 62.0894 37.2495C60.0385 34.8561 59.7455 31.9414 59.9357 28.7375C60.1754 24.727 61.2142 21.0361 63.7788 18.148C66.644 14.9214 70.1067 12.3986 74.5776 11.7479C78.3332 11.2038 82.5873 12.1018 85.871 13.9967C85.8749 14.0005 88.5726 15.3475 90.0604 17.9045ZM73.4665 17.349C68.539 21.3253 66.8305 26.2148 67.4774 32.398C67.816 35.6437 69.631 37.8012 72.3326 38.2007C74.6081 38.5394 76.2404 37.7822 77.8918 36.302C80.9929 33.5167 82.9982 30.0731 83.4815 26.0397C83.7478 23.8024 83.569 20.5681 82.8955 19.1982C82.8955 19.1982 81.1299 15.7242 78.3865 15.7585C75.6392 15.7927 73.4665 17.349 73.4665 17.349Z" fill="#0867FC"/>
</svg>
