<svg width="185" height="69" viewBox="0 0 185 69" fill="none" xmlns="http://www.w3.org/2000/svg">
<path fill-rule="evenodd" clip-rule="evenodd" d="M145.332 22.2786C146.397 24.5556 147.344 26.6215 148.153 28.8347L148.147 28.8263C149.582 32.753 150.469 36.939 150.783 41.2693C151.414 50.0198 148.889 58.1064 143.673 64.0393C142.787 65.0503 141.54 65.642 140.164 65.7079C140.077 65.7141 139.994 65.7141 139.909 65.7141C138.421 65.7034 136.991 65.1319 135.898 64.1115C134.814 63.0869 134.242 61.6494 134.287 60.0634C134.333 58.6066 134.878 57.2112 135.828 56.1148L136.089 55.8085L136.172 55.7091L136.485 55.3411C136.555 55.261 136.63 55.1856 136.709 55.1153C136.778 54.9972 136.851 54.8675 136.908 54.7599C136.956 54.6676 137.007 54.577 137.062 54.488C137.411 53.935 137.743 53.3349 138.117 52.577L138.497 51.7301L138.55 51.611C139.015 50.322 139.369 48.995 139.608 47.6445C139.626 47.5504 139.64 47.4563 139.656 47.3622L139.678 47.22L139.715 47.0005L139.731 46.828L139.748 46.6565C139.772 46.4349 139.792 46.2122 139.81 45.9875C139.867 45.1981 139.891 44.3795 139.885 43.5547C139.878 42.6839 139.837 41.8137 139.761 40.9463L139.744 40.7915L139.719 40.5615C139.696 40.3571 139.674 40.1525 139.653 39.9479C139.627 39.7674 139.6 39.5872 139.571 39.4074C139.243 37.4631 138.776 35.5456 138.174 33.6699C137.997 33.119 137.81 32.5718 137.611 32.0285L137.61 32.0254C137.556 31.879 137.501 31.7316 137.444 31.5842L137.239 31.0573C137.204 30.9701 137.168 30.8829 137.132 30.796C137.056 30.6206 136.979 30.4457 136.901 30.2711L136.899 30.268C136.698 29.8204 136.491 29.3753 136.278 28.933L136.25 28.8744L136.248 28.8692C134.535 25.2645 132.403 20.7805 132.706 15.9202C133.019 10.8853 135.395 6.647 137.8 2.73595C139.423 0.0972262 142.559 -0.753774 145.257 0.716135C146.492 1.38836 147.424 2.64395 147.817 4.16195C148.214 5.69563 148.008 7.28264 147.251 8.51523L147.239 8.53509L147.171 8.64277C146.583 9.58566 146.015 10.5418 145.469 11.5105C145.172 12.0457 144.913 12.5402 144.681 13.0211C144.603 13.18 144.529 13.341 144.456 13.502L144.425 13.5679C144.392 13.6348 144.361 13.7028 144.332 13.7718L144.328 13.7801L144.26 13.9809L144.248 14.0175C144.087 14.489 143.937 14.9354 143.825 15.3891C143.806 15.4633 143.781 15.5543 143.751 15.6546L143.739 15.6965L143.698 15.8428C143.696 15.8899 143.696 15.9474 143.696 16.0101C143.688 16.491 143.685 16.952 143.696 17.4246V17.5082L143.717 17.6159L143.726 17.663L143.783 17.9515C144.001 18.9792 144.349 19.9713 144.628 20.722L144.795 21.1035C144.97 21.4977 145.15 21.8887 145.332 22.2786ZM143.637 16.031H143.663V16.0268L143.637 16.031ZM143.602 15.9547L143.655 15.9484H143.661V15.9589L143.602 15.9547ZM86.6849 35.0865V35.0959L86.6911 35.1001V35.143C86.9309 39.4335 86.9577 45.7679 86.9805 51.4625C86.996 54.9794 87.0094 58.2527 87.0714 60.652C87.1458 63.4748 84.8442 65.8793 81.9421 66.0131C80.675 66.0717 79.441 65.5887 78.4643 64.653C77.3905 63.6239 76.7623 62.2072 76.7166 60.7116C76.6577 58.4085 76.6391 55.2335 76.6184 51.7646C76.5843 45.9028 76.545 39.2045 76.298 34.4686C76.2468 33.5518 76.1803 32.6358 76.0986 31.7212C76.0884 31.668 76.0791 31.6147 76.0707 31.5612L76.0552 31.4692C75.972 30.9537 75.8518 30.4449 75.6955 29.947C75.6717 29.8927 75.6335 29.8122 75.6004 29.7411L75.5663 29.6679C75.5429 29.6185 75.5205 29.5687 75.4991 29.5184L75.4413 29.4243C75.3556 29.2881 75.2512 29.1649 75.1312 29.0584L75.095 29.0229C74.9844 28.9122 74.8592 28.8176 74.723 28.7416C74.6207 28.6874 74.5134 28.6436 74.4026 28.611C74.0997 28.5158 73.7701 28.4458 73.4528 28.4782C73.3184 28.4939 73.1148 28.5702 72.997 28.6371C72.4368 28.9591 71.9986 29.4494 71.5821 29.9439C71.5232 30.0129 71.4663 30.084 71.4105 30.1561L71.3578 30.222L71.3433 30.2429C71.3216 30.2711 71.2917 30.3098 71.2741 30.337L71.2462 30.3788C71.0199 30.7238 70.7863 31.0793 70.5868 31.4494C70.4473 31.7086 70.3212 31.9846 70.1858 32.2815C70.1667 32.3426 70.1447 32.4026 70.1197 32.4614L70.0525 32.6171L70.0287 32.6725L70.0101 32.7165C69.945 32.867 69.8344 33.121 69.8096 33.1932C69.4041 34.332 69.0312 35.4825 68.6913 36.6432C68.4144 37.5945 68.127 38.5804 67.6165 39.4732C66.3246 41.7241 63.7356 42.8584 61.3172 42.229C59.3483 41.7147 57.7371 40.2071 56.3977 37.6186C55.7057 36.2666 54.9326 34.9587 54.0826 33.7023C54.0187 33.6277 53.9557 33.5524 53.8934 33.4765C53.8387 33.4085 53.7808 33.3406 53.7239 33.2737C53.4873 33.0019 53.2609 32.7604 53.0315 32.5356C52.9746 32.4808 52.9168 32.4271 52.8579 32.3746C52.8113 32.3328 52.7648 32.292 52.7204 32.2491L52.1923 31.9115C52.1196 31.8827 52.0488 31.8492 51.9804 31.8111L51.7437 31.7191L51.7303 31.716C51.7065 31.7107 51.6827 31.7055 51.659 31.6982L51.414 31.693L51.0296 31.6846C50.9407 31.7107 50.8435 31.7348 50.7422 31.7546L50.6131 31.8456L50.6068 31.8498C50.5548 31.8934 50.5041 31.9387 50.4549 31.9857C50.2388 32.1929 50.0342 32.4121 49.842 32.6422L49.7935 32.7008C49.7418 32.7625 49.6901 32.8241 49.6364 32.8837L49.6281 32.8973C49.533 33.0499 49.4359 33.2015 49.3387 33.3521C49.1868 33.5894 49.0431 33.8131 48.9077 34.0421C48.5481 34.6485 48.1874 35.3353 47.775 36.1821C47.7306 36.41 47.6458 36.7195 47.4515 36.9715C47.3812 37.1722 47.3141 37.375 47.2448 37.5904C46.7921 38.9965 46.4159 40.5595 46.0904 42.3639C45.9994 42.8762 45.9126 43.4 45.8351 43.9206L45.8031 44.3032C45.8072 44.6127 45.741 44.9755 45.6584 45.4313L45.6274 45.6174C45.5809 46.0648 45.5364 46.5436 45.4982 47.0225C45.1985 50.7119 45.1943 53.9141 45.4858 56.8152C45.6088 58.028 45.2222 59.2386 44.3954 60.2265C43.4032 61.411 41.8571 62.1899 40.3606 62.26C40.2851 62.2641 40.2107 62.2641 40.1373 62.2641C37.2311 62.2641 35.4007 59.6108 35.1403 57.04C34.7672 53.3307 34.8364 49.2995 35.3563 44.713C35.7903 40.8752 36.3939 36.8094 37.8501 33.0771C40.374 26.6152 43.7598 22.7104 47.9166 21.4726C52.369 20.148 57.3175 21.6848 60.8252 25.485L60.8314 25.4945C60.911 25.5831 61.01 25.6516 61.1204 25.6946C61.2309 25.7375 61.3498 25.7537 61.4675 25.7418C61.5853 25.7299 61.6987 25.6903 61.7985 25.6261C61.8984 25.5619 61.9821 25.4749 62.0427 25.3721C63.0349 23.6942 64.2472 22.2096 65.5763 21.0659C68.0878 18.907 70.7925 17.8125 73.6202 17.8125H73.7763C76.7166 17.8543 79.5402 18.9698 81.9421 21.0398C86.103 24.6257 86.412 30.1833 86.6849 35.0865ZM52.6408 32.0505C52.6542 32.0766 52.6698 32.1007 52.6842 32.1237V32.1268L52.7225 32.0829L52.6408 32.0505ZM123.952 21.504C127.265 23.389 130.023 26.1312 131.944 29.4494L131.948 29.4452C133.926 32.822 134.931 36.7697 134.931 41.1846C134.927 45.5379 133.924 49.4688 131.948 52.8728C130.038 56.2139 127.277 58.9752 123.952 60.8685C120.633 62.7691 116.804 63.733 112.581 63.733C108.358 63.733 104.518 62.7691 101.168 60.8685C97.8261 58.9904 95.0579 56.2212 93.164 52.8624C91.221 49.4667 90.233 45.5965 90.233 41.1867C90.233 36.776 91.22 32.8273 93.1681 29.4536C95.0741 26.1183 97.8397 23.3693 101.17 21.4998C104.503 19.6033 108.341 18.6415 112.568 18.6415H112.579C116.81 18.6415 120.637 19.6054 123.952 21.504ZM115.615 53.2868C117.069 52.8793 118.427 52.178 119.606 51.2252L119.608 51.221C120.791 50.2674 121.773 49.0832 122.496 47.7386C123.487 45.8819 123.987 43.677 123.987 41.1836C123.987 38.687 123.481 36.4623 122.49 34.5711C121.574 32.7594 120.167 31.2483 118.435 30.2136C116.681 29.2037 114.698 28.672 112.68 28.6705C110.661 28.6727 108.678 29.2052 106.923 30.2157C105.215 31.2591 103.828 32.7637 102.918 34.5606C101.918 36.4634 101.418 38.687 101.418 41.1846C101.418 43.6812 101.92 45.8892 102.907 47.7428C103.837 49.5417 105.231 51.0533 106.94 52.118C108.231 52.8956 109.665 53.3993 111.154 53.5984C112.654 53.8033 114.155 53.6966 115.615 53.2868ZM19.2044 37.1973C21.2644 38.0475 23.2638 39.0406 25.1885 40.1695L25.1875 40.1747C27.0099 41.2219 28.5917 42.6487 29.828 44.3607C31.0548 46.0836 31.6718 48.322 31.6718 51.0234C31.6718 55.1571 30.3024 58.5371 27.5966 61.0692C24.9208 63.572 21.2859 64.8412 16.7932 64.8412H16.5328C14.0317 64.8412 11.5595 64.3927 9.18863 63.5051C6.98213 62.6734 4.92694 61.4779 3.10637 59.9673C2.55684 59.5126 2.02586 59.0355 1.51476 58.5371C1.04262 58.0723 0.6659 57.5177 0.406243 56.9052C0.146585 56.2927 0.00910175 55.6343 0.00168691 54.9679C-0.0154642 54.2976 0.0983106 53.6305 0.336492 53.0047C0.574673 52.379 0.932579 51.8069 1.3897 51.3214L1.5933 51.106C3.34718 49.2555 6.17075 49.1573 8.02385 50.8844C8.43416 51.267 8.85893 51.6413 9.28784 51.9967C10.3491 52.89 11.5421 53.6096 12.8235 54.1295C13.9288 54.5708 15.1058 54.7995 16.2941 54.8038C17.6407 54.7996 18.697 54.4933 19.4256 53.89C20.1046 53.3307 20.4199 52.5905 20.4199 51.5587C20.4397 50.7097 20.149 49.8832 19.6034 49.2378C18.8646 48.411 17.9635 47.749 16.9576 47.2943L16.939 47.2859C15.483 46.6031 14.0004 45.9799 12.4948 45.4177L12.469 45.4072C10.657 44.6647 8.89488 43.8031 7.19394 42.8281C5.38828 41.8057 3.83664 40.3805 2.65679 38.6609C1.44241 36.8878 0.827468 34.7237 0.827468 32.0181C0.827468 29.3125 1.50546 27.0093 2.84283 25.1766C4.22981 23.3053 6.0767 21.9085 8.19025 21.1318C10.4052 20.2786 12.7583 19.8521 15.1283 19.8741C17.275 19.8612 19.4088 20.2121 21.441 20.9122C23.6839 21.6757 25.7863 22.8096 27.6628 24.2681C28.7386 25.1129 29.4239 26.4061 29.5469 27.8206C29.6091 28.5225 29.5287 29.23 29.3106 29.8993C29.0925 30.5687 28.7414 31.1858 28.2787 31.7128C26.6148 33.5831 23.8997 33.8069 21.9588 32.2355C21.3097 31.7107 20.6152 31.2413 19.8948 30.8378C18.3608 29.9526 16.6276 29.481 14.8616 29.4682C13.8074 29.4682 12.9413 29.7045 12.2923 30.1655L12.2737 30.1781C12.0256 30.3454 11.8231 30.5837 11.6856 30.8639C11.5461 31.1472 11.481 31.4671 11.4954 31.7891V31.8372C11.4954 32.4812 11.7466 33.0301 12.2881 33.5591C13.0855 34.3032 13.9995 34.908 14.9929 35.3489C16.2486 35.9291 17.6604 36.5501 19.2034 37.1962L19.2044 37.1973ZM56.5144 53.8367C56.4049 51.704 55.1605 50.095 53.6723 50.1776C52.1881 50.2613 51.1143 51.9957 51.2249 54.1295C51.2735 55.0777 51.5556 55.9695 52.0186 56.6385C52.5282 57.3766 53.232 57.7917 53.9616 57.7917C53.9978 57.7917 54.0309 57.7917 54.0671 57.7896C55.5512 57.707 56.624 55.9726 56.5144 53.8388V53.8367ZM67.9917 50.1776C69.4799 50.095 70.7243 51.704 70.8338 53.8367V53.8388C70.9444 55.9715 69.8706 57.707 68.3865 57.7906L68.281 57.7917C67.5524 57.7917 66.8486 57.3766 66.3391 56.6385C65.876 55.9695 65.5929 55.0777 65.5443 54.1295C65.4347 51.9957 66.5086 50.2613 67.9917 50.1776ZM61.7306 60.1732C59.1695 60.0101 57.5676 60.4147 56.6839 61.4445C56.0669 62.1627 55.8644 63.1204 56.0773 64.2892C56.4834 66.5139 58.8802 69 61.4826 69H61.4857C64.0901 69 66.6388 66.6247 66.7287 64.1198C66.8072 61.9934 64.7536 60.3708 61.7327 60.1753L61.7306 60.1732ZM183.364 44.2938L183.358 44.2834C182.174 42.5349 180.639 41.0592 178.852 39.9531C176.961 38.7611 174.99 37.7033 172.955 36.7875C171.559 36.1521 170.175 35.4912 168.803 34.8053C167.823 34.3339 166.928 33.7011 166.153 32.9329C165.628 32.3861 165.393 31.8299 165.412 31.187L165.414 31.1389C165.408 30.8184 165.483 30.5017 165.632 30.2189C165.778 29.9439 165.988 29.7129 166.24 29.5529L166.26 29.5404C166.922 29.1002 167.795 28.8922 168.85 28.9267C170.614 28.9961 172.33 29.5228 173.835 30.4562C174.549 30.8851 175.225 31.3747 175.857 31.9198C177.749 33.5518 180.47 33.4169 182.189 31.601C182.668 31.0889 183.037 30.4833 183.275 29.8212C183.514 29.1592 183.615 28.4549 183.574 27.7516C183.493 26.3329 182.849 25.0188 181.801 24.1406C179.969 22.6226 177.902 21.4215 175.683 20.586C173.702 19.8358 171.614 19.4184 169.5 19.3503L169.402 19.3472C167.035 19.2538 164.671 19.6047 162.429 20.3822C160.294 21.092 158.405 22.4271 156.963 24.2535C155.571 26.0433 154.823 28.3235 154.741 31.028C154.659 33.7326 155.209 35.9145 156.371 37.7263C157.498 39.4824 159.005 40.9561 160.778 42.0356C162.449 43.064 164.185 43.9818 165.973 44.7831L165.998 44.7946C167.486 45.4041 168.95 46.0744 170.384 46.804L170.403 46.8123C171.395 47.299 172.276 47.9897 172.989 48.8405C173.514 49.5028 173.779 50.3377 173.734 51.1855C173.703 52.2173 173.366 52.947 172.67 53.4844C171.924 54.0636 170.859 54.3365 169.513 54.2978C168.325 54.2547 167.156 53.9888 166.064 53.5137C164.799 52.953 163.628 52.1957 162.595 51.2691C162.174 50.8969 161.764 50.5128 161.365 50.117C159.564 48.3324 156.74 48.3397 154.93 50.1306L154.719 50.3397C154.247 50.8105 153.871 51.3711 153.613 51.9894C153.356 52.6077 153.222 53.2714 153.219 53.9423C153.206 54.609 153.324 55.2716 153.565 55.8922C153.806 56.5127 154.166 57.079 154.624 57.5585C155.118 58.0729 155.64 58.5716 156.171 59.0389C157.946 60.6059 159.964 61.8662 162.144 62.7691C164.466 63.7271 166.938 64.2588 169.445 64.3394L169.704 64.3477C174.195 64.492 177.867 63.3399 180.617 60.9228C183.397 58.4796 184.87 55.1446 184.992 51.0119C185.074 48.3146 184.525 46.0565 183.357 44.3022L183.364 44.2938Z" fill="#FF6657"/>
</svg>
