<svg width="84" height="37" viewBox="0 0 84 37" fill="none" xmlns="http://www.w3.org/2000/svg">
<mask id="mask0_1272_132971" style="mask-type:alpha" maskUnits="userSpaceOnUse" x="0" y="0" width="84" height="37">
<path d="M0 0H84V36.2353H0V0Z" fill="#D9D9D9"/>
</mask>
<g mask="url(#mask0_1272_132971)">
<path d="M83.0552 17.4927C78.4172 17.4927 74.6836 13.9446 74.6836 9.09791V9.05153C74.6836 4.32076 78.3244 0.610352 83.2407 0.610352C86.5569 0.610352 88.6904 2.00175 90.1282 3.9961L86.7424 6.61657C85.8148 5.45707 84.7481 4.71499 83.1943 4.71499C80.9217 4.71499 79.3216 6.63976 79.3216 9.00515V9.05153C79.3216 11.4865 80.9217 13.3881 83.1943 13.3881C84.8872 13.3881 85.8844 12.5996 86.8584 11.4169L90.2441 13.8287C88.7136 15.939 86.6497 17.4927 83.0552 17.4927Z" fill="white"/>
<path d="M56.5508 17.1664L63.4614 0.817383H67.798L74.7086 17.1664H69.8851L68.7024 14.2676H62.4411L61.2816 17.1664H56.5508ZM63.7629 10.7659H67.4037L65.5949 6.15109L63.7629 10.7659Z" fill="white"/>
<path d="M40.1367 17.1666L45.7023 8.91097L40.3686 0.933594H45.54L48.4156 5.50203L51.3143 0.933594H56.3697L51.036 8.86459L56.6016 17.1666H51.4303L48.3228 12.2735L45.1921 17.1666H40.1367Z" fill="white"/>
<path d="M25.8477 17.1666V0.933594H38.9036V4.75995H30.3001V7.2181H38.092V10.7662H30.3001V13.3403H39.0196V17.1666H25.8477Z" fill="white"/>
<path d="M7.64062 17.1666V0.933594H11.838L18.5168 9.51391V0.933594H22.9692V17.1666H19.0269L12.0931 8.26165V17.1666H7.64062Z" fill="white"/>
<path d="M61.6074 36.3219V20.0889H74.6634V23.9152H66.0599V26.3734H73.8518V29.9214H66.0599V32.4955H74.7794V36.3219H61.6074Z" fill="white"/>
<path d="M43.877 36.3219V20.0889H50.1383C55.9358 20.0889 59.2983 23.4282 59.2983 28.1126V28.159C59.2983 32.8434 55.8894 36.3219 50.0455 36.3219H43.877ZM48.3758 32.3332H50.2078C52.8979 32.3332 54.6835 30.849 54.6835 28.2286V28.1822C54.6835 25.5849 52.8979 24.0776 50.2078 24.0776H48.3758V32.3332Z" fill="white"/>
<path d="M32.7663 36.648C27.7573 36.648 24.0469 32.9144 24.0469 28.2532V28.2068C24.0469 23.5456 27.8037 19.7656 32.8127 19.7656C37.8218 19.7656 41.5322 23.4992 41.5322 28.1604V28.2068C41.5322 32.868 37.7754 36.648 32.7663 36.648ZM32.8127 32.5897C35.294 32.5897 36.9405 30.5954 36.9405 28.2532V28.2068C36.9405 25.8646 35.2477 23.8239 32.7663 23.8239C30.3082 23.8239 28.6617 25.8182 28.6617 28.1604V28.2068C28.6617 30.549 30.3546 32.5897 32.8127 32.5897Z" fill="white"/>
<path d="M15.9322 36.648C11.2941 36.648 7.56055 33.0999 7.56055 28.2532V28.2068C7.56055 23.476 11.2014 19.7656 16.1177 19.7656C19.4338 19.7656 21.5673 21.157 23.0051 23.1514L19.6194 25.7718C18.6918 24.6123 17.625 23.8703 16.0713 23.8703C13.7987 23.8703 12.1986 25.795 12.1986 28.1604V28.2068C12.1986 30.6418 13.7987 32.5433 16.0713 32.5433C17.7642 32.5433 18.7613 31.7549 19.7353 30.5722L23.1211 32.984C21.5905 35.0942 19.5266 36.648 15.9322 36.648Z" fill="white"/>
<path d="M-10.5723 36.3216L-3.66163 19.9727H0.674908L7.58554 36.3216H2.76201L1.57932 33.4229H-4.68199L-5.8415 36.3216H-10.5723ZM-3.36016 29.9212H0.280675L-1.52815 25.3064L-3.36016 29.9212Z" fill="white"/>
</g>
</svg>
