<svg width="365" height="303" viewBox="0 0 365 303" fill="none" xmlns="http://www.w3.org/2000/svg">
<path d="M144.557 35.3561C155.828 38.3382 167.634 32.8634 177.115 26.2263C186.597 19.5893 195.406 11.4536 206.523 7.95152C217.274 4.57183 230.411 2.35439 237.399 13.6098C241.345 19.941 241.253 28.2297 245.826 34.148C250.811 40.5862 259.987 42.4519 268.245 41.9779C276.503 41.5038 284.623 39.2099 292.897 39.3322C301.17 39.4546 310.223 42.7578 313.664 50.083C317.656 58.6011 312.578 68.4496 306.89 75.9889C301.201 83.5282 294.395 91.4499 294.686 100.809C295.084 113.38 307.96 122.127 311.982 134.071C320.148 158.325 289.961 168.479 280.938 186.173C275.28 197.276 279.913 210.427 283.324 222.371C286.734 234.315 287.927 249.225 278.063 257.055C266.792 266.001 248.211 259.716 236.711 268.387C226.083 276.4 225.991 293.987 214.124 300.119C204.902 304.875 193.54 299.951 185.297 293.727C177.054 287.503 169.331 279.627 159.085 277.685C148.87 275.743 138.547 280.239 129.677 285.545C120.808 290.852 112.259 297.214 102.15 299.615C92.0419 302.016 79.5477 299.064 75.0823 289.904C68.6746 276.767 82.0251 261.245 78.1255 247.222C75.6481 238.321 66.7783 232.495 57.8321 229.482C48.8858 226.454 39.2972 225.414 30.5956 221.79C21.8941 218.166 13.7889 210.901 13.2996 201.695C12.6267 188.956 26.1913 179.444 28.1641 166.828C31.1768 147.467 -1.76376 137.496 15.2418 115.796C22.2153 106.88 35.7493 102.828 39.0066 92.0769C43.4874 77.2888 26.5737 64.7029 25.0597 50.4806C23.2857 33.7963 35.1223 21.0727 53.4736 25.6299C59.6366 27.1592 66.2125 30.8142 71.8708 27.9697C77.1009 25.3241 78.2019 18.687 81.0158 13.6404C99.5353 -19.6366 126.756 30.4777 144.557 35.3561Z" fill="#D8E5F3"/>
<path d="M53.7939 287.152C53.0139 287.152 52.2187 287.106 51.4388 287.029C51.1329 286.999 50.9188 286.724 50.9494 286.433C50.98 286.142 51.2553 285.928 51.5611 285.944C52.2952 286.02 53.0598 286.066 53.7939 286.066C53.7939 286.066 53.7939 286.066 53.8092 286.066C54.5126 286.066 55.2008 286.035 55.889 285.959C56.1948 285.928 56.4701 286.142 56.5007 286.448C56.5312 286.739 56.3019 287.014 55.996 287.045C55.2773 287.106 54.5432 287.152 53.7939 287.152ZM184.394 286.831C184.103 286.831 183.859 286.601 183.843 286.311C183.828 286.005 184.073 285.76 184.379 285.745C185.847 285.684 187.299 285.531 188.737 285.286C189.043 285.24 189.333 285.439 189.379 285.73C189.425 286.02 189.226 286.311 188.92 286.357C187.452 286.601 185.938 286.769 184.424 286.831C184.424 286.831 184.409 286.831 184.394 286.831ZM179.959 286.739C179.944 286.739 179.928 286.739 179.913 286.739C178.399 286.617 176.9 286.387 175.448 286.081C175.142 286.02 174.958 285.73 175.019 285.439C175.081 285.148 175.386 284.965 175.677 285.026C177.084 285.332 178.537 285.546 180.005 285.653C180.311 285.684 180.54 285.944 180.509 286.234C180.479 286.525 180.25 286.739 179.959 286.739ZM60.2933 286.158C60.0639 286.158 59.8345 286.005 59.758 285.775C59.6663 285.485 59.8345 285.179 60.1251 285.103C61.4708 284.69 62.8319 284.154 64.1623 283.512C64.4376 283.374 64.774 283.481 64.9117 283.757C65.0493 284.032 64.9422 284.353 64.667 284.476C63.2753 285.148 61.8684 285.699 60.4768 286.127C60.4003 286.158 60.3544 286.158 60.2933 286.158ZM47.1568 286.127C47.0956 286.127 47.0344 286.112 46.9886 286.097C45.4899 285.622 44.0983 284.98 42.8442 284.216C42.5843 284.063 42.5078 283.726 42.676 283.466C42.8443 283.206 43.1807 283.145 43.4407 283.298C44.6182 284.017 45.9334 284.613 47.3403 285.072C47.6309 285.164 47.7838 285.47 47.6921 285.76C47.6156 285.99 47.3862 286.127 47.1568 286.127ZM193.141 285.317C192.912 285.317 192.682 285.164 192.606 284.934C192.514 284.644 192.667 284.338 192.958 284.246C194.365 283.803 195.726 283.267 196.995 282.64C197.27 282.503 197.607 282.61 197.744 282.885C197.882 283.145 197.775 283.481 197.5 283.619C196.185 284.261 194.778 284.827 193.31 285.286C193.264 285.317 193.202 285.317 193.141 285.317ZM171.288 284.904C171.227 284.904 171.166 284.888 171.104 284.873C169.728 284.414 168.321 283.879 166.914 283.283C166.639 283.16 166.501 282.839 166.624 282.564C166.746 282.289 167.082 282.166 167.358 282.289C168.734 282.87 170.11 283.405 171.456 283.849C171.747 283.94 171.9 284.246 171.808 284.537C171.731 284.766 171.517 284.904 171.288 284.904ZM68.2608 282.365C68.0773 282.365 67.9091 282.273 67.802 282.12C67.6338 281.876 67.7103 281.539 67.9549 281.371C69.1172 280.622 70.2794 279.796 71.5028 278.848C71.7475 278.664 72.0993 278.695 72.2828 278.94C72.4816 279.169 72.4357 279.521 72.191 279.704C70.937 280.683 69.7595 281.524 68.5666 282.289C68.4749 282.335 68.3678 282.365 68.2608 282.365ZM39.7857 281.493C39.6328 281.493 39.4646 281.432 39.3575 281.295C38.3482 280.132 37.553 278.833 37.0177 277.426C36.9107 277.15 37.0483 276.829 37.3389 276.722C37.6294 276.615 37.9506 276.753 38.0576 277.043C38.5623 278.328 39.281 279.521 40.2139 280.591C40.4127 280.821 40.3821 281.157 40.1527 281.356C40.0304 281.448 39.908 281.493 39.7857 281.493ZM163.137 281.432C163.045 281.432 162.953 281.417 162.877 281.371C161.608 280.714 160.323 280.01 158.977 279.23C158.717 279.077 158.626 278.741 158.794 278.481C158.947 278.221 159.298 278.144 159.558 278.297C160.889 279.077 162.158 279.765 163.412 280.408C163.687 280.545 163.795 280.882 163.642 281.142C163.535 281.325 163.336 281.432 163.137 281.432ZM201.032 281.386C200.864 281.386 200.696 281.31 200.589 281.172C200.405 280.928 200.451 280.591 200.696 280.408C201.873 279.536 202.929 278.557 203.846 277.517C204.045 277.288 204.397 277.257 204.626 277.456C204.856 277.655 204.886 277.991 204.687 278.221C203.724 279.322 202.607 280.346 201.369 281.264C201.262 281.356 201.155 281.386 201.032 281.386ZM75.2343 276.997C75.0813 276.997 74.9284 276.936 74.8214 276.814C74.6073 276.6 74.6378 276.248 74.8519 276.049C75.8307 275.193 76.8859 274.214 78.0634 273.082C78.2775 272.868 78.6293 272.884 78.8434 273.098C79.0575 273.312 79.0574 273.648 78.8281 273.862C77.6352 275.009 76.5647 275.988 75.586 276.86C75.4942 276.952 75.3719 276.997 75.2343 276.997ZM155.506 276.997C155.399 276.997 155.292 276.967 155.2 276.906C154.068 276.187 152.86 275.392 151.499 274.474C151.239 274.306 151.178 273.969 151.362 273.725C151.53 273.48 151.881 273.419 152.141 273.587C153.487 274.489 154.695 275.285 155.827 276.003C156.087 276.172 156.163 276.508 155.995 276.753C155.858 276.906 155.674 276.997 155.506 276.997ZM36.8648 275.652C36.6048 275.652 36.3754 275.483 36.3295 275.239C36.039 274.015 35.8861 272.746 35.8861 271.477C35.8861 271.247 35.886 271.033 35.9013 270.804C35.9166 270.498 36.1766 270.269 36.4825 270.284C36.7883 270.299 37.033 270.544 37.0177 270.85C37.0024 271.064 37.0024 271.278 37.0024 271.477C37.0024 272.67 37.1401 273.847 37.4153 275.009C37.4918 275.3 37.293 275.59 37.0024 275.652C36.9565 275.636 36.9107 275.652 36.8648 275.652ZM206.721 274.841C206.629 274.841 206.553 274.826 206.477 274.78C206.201 274.642 206.094 274.321 206.232 274.046C206.629 273.297 206.966 272.517 207.241 271.706C207.409 271.201 207.578 270.681 207.731 270.1C207.807 269.81 208.113 269.642 208.403 269.703C208.694 269.779 208.878 270.07 208.801 270.36C208.648 270.972 208.48 271.523 208.296 272.058C208.006 272.914 207.639 273.74 207.226 274.535C207.119 274.734 206.935 274.841 206.721 274.841ZM148.165 272.088C148.058 272.088 147.936 272.058 147.844 271.981L147.034 271.431C146.086 270.789 145.153 270.131 144.205 269.489C143.96 269.32 143.899 268.984 144.067 268.739C144.25 268.495 144.587 268.433 144.847 268.602C145.795 269.244 146.743 269.902 147.676 270.544L148.487 271.094C148.731 271.263 148.792 271.599 148.624 271.844C148.517 271.997 148.334 272.088 148.165 272.088ZM81.6267 270.972C81.489 270.972 81.3361 270.926 81.229 270.819C81.0149 270.605 81.0149 270.269 81.229 270.054C82.1619 269.152 83.263 268.082 84.4252 267.011C84.6546 266.797 85.0063 266.812 85.2052 267.026C85.4193 267.241 85.4039 267.592 85.1898 267.791C84.0429 268.862 82.9418 269.917 82.009 270.819C81.9019 270.911 81.7643 270.972 81.6267 270.972ZM140.871 267.118C140.764 267.118 140.657 267.088 140.565 267.026C140.045 266.69 139.525 266.338 138.99 266.002C138.286 265.543 137.567 265.1 136.849 264.671C136.589 264.519 136.512 264.182 136.665 263.922C136.833 263.662 137.17 263.586 137.43 263.754C138.149 264.182 138.883 264.641 139.601 265.1C140.137 265.436 140.657 265.788 141.177 266.124C141.437 266.292 141.498 266.629 141.329 266.874C141.222 267.042 141.039 267.118 140.871 267.118ZM37.14 267.072C37.0942 267.072 37.0483 267.072 37.0024 267.057C36.7118 266.981 36.5284 266.69 36.6048 266.4C36.9566 265.069 37.4459 263.708 38.1035 262.24C38.2258 261.965 38.547 261.842 38.8376 261.949C39.1128 262.072 39.2505 262.393 39.1281 262.653C38.5011 264.075 38.027 265.39 37.6906 266.659C37.6141 266.919 37.3847 267.072 37.14 267.072ZM209.122 266.537C209.092 266.537 209.061 266.537 209.03 266.522C208.725 266.476 208.526 266.185 208.572 265.895C208.847 264.35 209.107 262.959 209.489 261.598C209.566 261.307 209.872 261.139 210.177 261.215C210.468 261.292 210.652 261.598 210.56 261.888C210.193 263.203 209.933 264.564 209.673 266.078C209.627 266.354 209.397 266.537 209.122 266.537ZM88.0955 265.023C87.9425 265.023 87.7896 264.962 87.6673 264.84C87.4685 264.61 87.4991 264.274 87.7284 264.075C88.9519 263.05 90.0988 262.148 91.2305 261.338C91.4752 261.154 91.8269 261.215 92.0104 261.445C92.1939 261.689 92.148 262.026 91.8881 262.209C90.7717 263.005 89.6553 263.892 88.4472 264.901C88.3554 264.977 88.2331 265.023 88.0955 265.023ZM133.301 262.576C133.209 262.576 133.117 262.561 133.026 262.515C131.71 261.812 130.38 261.139 129.095 260.558C128.82 260.435 128.698 260.099 128.835 259.839C128.973 259.564 129.294 259.457 129.569 259.579C130.869 260.175 132.215 260.848 133.561 261.567C133.836 261.705 133.928 262.041 133.775 262.301C133.683 262.469 133.5 262.576 133.301 262.576ZM95.2678 259.915C95.0842 259.915 94.8854 259.824 94.7937 259.64C94.6408 259.38 94.7325 259.044 94.9925 258.906C96.3383 258.141 97.6993 257.484 99.0298 256.933C99.3203 256.826 99.6415 256.949 99.7638 257.224C99.8862 257.499 99.7485 257.82 99.4579 257.927C98.1581 258.447 96.8429 259.09 95.5583 259.839C95.4666 259.885 95.3748 259.915 95.2678 259.915ZM40.535 259.09C40.4433 259.09 40.3515 259.074 40.2751 259.028C39.9998 258.891 39.8928 258.554 40.0457 258.294C40.7645 256.979 41.5444 255.633 42.202 254.486C42.3549 254.227 42.6913 254.135 42.9666 254.288C43.2266 254.441 43.3336 254.762 43.1807 255.022C42.5078 256.169 41.7432 257.499 41.0397 258.799C40.9327 258.983 40.7338 259.09 40.535 259.09ZM125.257 258.875C125.196 258.875 125.119 258.86 125.058 258.845C123.651 258.31 122.259 257.851 120.898 257.453C120.608 257.362 120.44 257.071 120.516 256.78C120.608 256.49 120.914 256.337 121.204 256.413C122.596 256.811 124.033 257.285 125.456 257.836C125.746 257.943 125.884 258.264 125.777 258.539C125.685 258.738 125.471 258.875 125.257 258.875ZM211.722 258.294C211.63 258.294 211.523 258.264 211.447 258.218C211.187 258.065 211.095 257.729 211.248 257.469C212.013 256.199 212.991 255.022 214.154 253.997C214.383 253.798 214.735 253.814 214.933 254.028C215.148 254.242 215.132 254.594 214.903 254.792C213.832 255.756 212.93 256.826 212.211 258.019C212.089 258.203 211.905 258.294 211.722 258.294ZM103.465 256.627C103.22 256.627 102.991 256.459 102.929 256.215C102.853 255.924 103.036 255.633 103.342 255.557C104.795 255.221 106.294 254.991 107.823 254.869C108.129 254.854 108.404 255.068 108.42 255.373C108.45 255.664 108.221 255.939 107.915 255.955C106.447 256.062 105.009 256.291 103.602 256.612C103.556 256.627 103.511 256.627 103.465 256.627ZM116.723 256.459C116.693 256.459 116.662 256.459 116.616 256.444C115.148 256.184 113.68 256 112.273 255.924C111.967 255.909 111.738 255.649 111.753 255.343C111.769 255.037 112.029 254.823 112.35 254.838C113.803 254.93 115.317 255.113 116.831 255.373C117.136 255.435 117.335 255.71 117.274 256C117.213 256.276 116.983 256.459 116.723 256.459ZM218.145 252.453C217.946 252.453 217.763 252.345 217.656 252.177C217.503 251.917 217.61 251.581 217.87 251.443C219.124 250.786 220.515 250.189 222.029 249.685C222.32 249.593 222.641 249.746 222.733 250.021C222.825 250.312 222.672 250.617 222.381 250.709C220.928 251.199 219.582 251.764 218.39 252.391C218.313 252.437 218.221 252.453 218.145 252.453ZM44.8782 251.52C44.7865 251.52 44.6947 251.504 44.6182 251.458C44.3429 251.321 44.2512 250.984 44.4041 250.724C45.2299 249.256 45.8722 248.033 46.4075 246.901C46.5298 246.626 46.8662 246.519 47.1415 246.641C47.4168 246.764 47.5391 247.085 47.4168 247.36C46.8662 248.522 46.2087 249.761 45.3828 251.244C45.2605 251.413 45.077 251.52 44.8782 251.52ZM226.51 249.593C226.25 249.593 226.021 249.425 225.96 249.165C225.898 248.874 226.082 248.583 226.388 248.522C227.764 248.232 229.247 247.987 230.823 247.788C231.128 247.742 231.404 247.956 231.45 248.262C231.496 248.553 231.281 248.828 230.976 248.874C229.431 249.073 227.978 249.302 226.632 249.593C226.587 249.593 226.541 249.593 226.51 249.593ZM235.395 248.446L235.334 247.911L235.319 247.375L235.655 247.345C236.771 247.268 238.24 247.161 239.708 247.024C240.014 246.993 240.289 247.207 240.319 247.513C240.35 247.804 240.121 248.079 239.815 248.109C238.331 248.247 236.848 248.354 235.732 248.431L235.395 248.446ZM244.173 247.559C243.898 247.559 243.669 247.375 243.623 247.1C243.577 246.81 243.791 246.534 244.081 246.488C245.657 246.244 247.063 245.984 248.394 245.647C248.7 245.571 248.99 245.754 249.067 246.045C249.143 246.335 248.96 246.626 248.669 246.702C247.308 247.039 245.871 247.314 244.25 247.559C244.234 247.559 244.204 247.559 244.173 247.559ZM252.768 245.372C252.554 245.372 252.34 245.25 252.248 245.036C252.125 244.76 252.263 244.439 252.554 244.332C253.96 243.766 255.245 243.093 256.362 242.344C256.621 242.176 256.958 242.237 257.141 242.482C257.31 242.726 257.248 243.063 257.004 243.231C255.811 244.026 254.465 244.73 252.982 245.326C252.905 245.357 252.844 245.372 252.768 245.372ZM48.5331 243.629C48.472 243.629 48.4261 243.613 48.3649 243.598C48.0744 243.506 47.9061 243.2 47.9979 242.925C48.472 241.472 48.7625 240.127 48.9155 238.811C48.9461 238.521 49.2213 238.307 49.5272 238.322C49.833 238.353 50.0471 238.613 50.0165 238.918C49.8636 240.31 49.5578 241.732 49.0531 243.246C48.9919 243.476 48.7625 243.629 48.5331 243.629ZM259.986 240.448C259.864 240.448 259.726 240.402 259.634 240.325C259.405 240.127 259.374 239.79 259.573 239.561C259.955 239.133 260.307 238.658 260.628 238.184C261.087 237.496 261.5 236.777 261.836 236.028C261.959 235.753 262.295 235.631 262.57 235.753C262.846 235.875 262.983 236.196 262.846 236.472C262.479 237.267 262.035 238.047 261.546 238.781C261.194 239.285 260.812 239.79 260.414 240.249C260.292 240.387 260.139 240.448 259.986 240.448ZM49.359 235.08C49.0837 235.08 48.8543 234.896 48.8084 234.621C48.579 233.275 48.1661 231.93 47.5544 230.63C47.4321 230.355 47.5544 230.033 47.8297 229.911C48.105 229.789 48.4414 229.911 48.5637 230.186C49.206 231.578 49.6648 233.015 49.8942 234.453C49.9401 234.744 49.7413 235.019 49.4354 235.08C49.4201 235.08 49.3896 235.08 49.359 235.08ZM263.564 232.648C263.534 232.648 263.503 232.648 263.488 232.648C263.182 232.603 262.968 232.327 263.014 232.037C263.151 231.15 263.213 230.232 263.213 229.284C263.213 228.81 263.197 228.321 263.167 227.831C263.151 227.541 263.381 227.281 263.687 227.25C263.993 227.235 264.253 227.449 264.283 227.755C264.314 228.275 264.329 228.779 264.329 229.284C264.329 230.278 264.253 231.272 264.115 232.205C264.069 232.45 263.84 232.648 263.564 232.648ZM45.811 227.235C45.6428 227.235 45.4746 227.158 45.3675 227.005C45.2605 226.852 45.1382 226.7 45.0158 226.562C44.2818 225.614 43.5018 224.65 42.6454 223.61C42.4619 223.381 42.4925 223.029 42.7372 222.846C42.9819 222.662 43.3336 222.693 43.5171 222.938C44.3735 223.993 45.1535 224.956 45.9028 225.904C46.0251 226.057 46.1475 226.21 46.2698 226.378C46.4533 226.623 46.3922 226.96 46.1475 227.143C46.0404 227.189 45.9181 227.235 45.811 227.235ZM263.06 224.039C262.8 224.039 262.57 223.87 262.524 223.61C262.219 222.295 261.806 220.919 261.301 219.512C261.194 219.237 261.347 218.916 261.637 218.824C261.928 218.732 262.249 218.87 262.341 219.16C262.861 220.613 263.289 222.035 263.595 223.381C263.656 223.672 263.473 223.962 263.182 224.023C263.136 224.039 263.106 224.039 263.06 224.039ZM40.2904 220.43C40.1222 220.43 39.9692 220.368 39.8622 220.231C39.1434 219.359 38.4094 218.503 37.7059 217.646L37.0636 216.866C36.8648 216.637 36.9106 216.3 37.14 216.102C37.3847 215.918 37.7212 215.949 37.92 216.178L38.5623 216.958C39.2811 217.814 39.9998 218.671 40.7186 219.543C40.9174 219.772 40.8715 220.124 40.6421 220.307C40.535 220.384 40.4127 220.43 40.2904 220.43ZM260.185 215.857C259.971 215.857 259.772 215.735 259.68 215.536C259.114 214.297 258.472 212.997 257.753 211.667C257.615 211.407 257.723 211.07 257.983 210.933C258.258 210.795 258.594 210.902 258.732 211.162C259.451 212.508 260.108 213.838 260.689 215.092C260.812 215.368 260.689 215.689 260.414 215.811C260.338 215.842 260.261 215.857 260.185 215.857ZM34.6779 213.716C34.5097 213.716 34.3568 213.64 34.2497 213.517C33.2098 212.263 32.3076 211.147 31.4818 210.107C31.2982 209.878 31.3441 209.526 31.5888 209.342C31.8335 209.159 32.1852 209.205 32.3687 209.434C33.1945 210.459 34.0815 211.575 35.1214 212.829C35.3202 213.058 35.2744 213.41 35.0297 213.594C34.9226 213.67 34.8003 213.716 34.6779 213.716ZM256.178 208.119C255.979 208.119 255.78 208.012 255.689 207.828C254.893 206.33 254.251 205.091 253.685 203.929C253.548 203.653 253.67 203.332 253.945 203.21C254.221 203.088 254.557 203.195 254.679 203.47C255.23 204.617 255.872 205.84 256.652 207.324C256.79 207.584 256.683 207.92 256.407 208.058C256.346 208.104 256.254 208.119 256.178 208.119ZM29.249 206.85C29.0808 206.85 28.9126 206.773 28.8055 206.62C27.888 205.381 27.0468 204.204 26.2516 203.042C26.0834 202.797 26.1599 202.461 26.4046 202.292C26.6645 202.124 27.001 202.201 27.1692 202.445C27.9491 203.592 28.7749 204.754 29.6925 205.978C29.876 206.223 29.8148 206.559 29.5702 206.727C29.4784 206.819 29.3561 206.85 29.249 206.85ZM252.416 200.274C252.187 200.274 251.988 200.136 251.896 199.922C251.3 198.454 250.841 197.093 250.474 195.762C250.397 195.472 250.566 195.181 250.871 195.105C251.162 195.028 251.468 195.197 251.56 195.487C251.911 196.787 252.37 198.102 252.951 199.54C253.058 199.815 252.921 200.136 252.63 200.243C252.554 200.258 252.477 200.274 252.416 200.274ZM24.3553 199.616C24.1565 199.616 23.973 199.524 23.8813 199.341C23.1166 198.056 22.3979 196.772 21.7403 195.502C21.6026 195.242 21.7097 194.906 21.985 194.768C22.2602 194.631 22.5967 194.738 22.7343 195.013C23.3766 196.267 24.0801 197.536 24.8294 198.79C24.9823 199.05 24.8906 199.387 24.6306 199.524C24.5541 199.586 24.4471 199.616 24.3553 199.616ZM250.168 191.909C249.893 191.909 249.648 191.694 249.617 191.419C249.526 190.639 249.495 189.859 249.495 189.095C249.495 188.376 249.541 187.673 249.602 186.984C249.633 186.694 249.908 186.464 250.214 186.51C250.52 186.541 250.734 186.816 250.703 187.107C250.627 187.764 250.596 188.437 250.596 189.11C250.596 189.829 250.642 190.578 250.718 191.312C250.749 191.603 250.535 191.878 250.229 191.909C250.214 191.909 250.198 191.909 250.168 191.909ZM20.3945 191.863C20.1804 191.863 19.9663 191.74 19.8746 191.526C19.3087 190.181 18.7888 188.804 18.3147 187.428C18.2229 187.137 18.3759 186.831 18.6664 186.74C18.957 186.648 19.2781 186.801 19.3699 187.091C19.8287 188.437 20.3333 189.798 20.8992 191.113C21.0215 191.389 20.8839 191.71 20.5933 191.817C20.5322 191.847 20.471 191.863 20.3945 191.863ZM17.6265 183.65C17.3818 183.65 17.1524 183.482 17.0913 183.238C16.7395 181.846 16.4337 180.408 16.1737 178.956C16.1278 178.665 16.3267 178.375 16.6325 178.329C16.9384 178.283 17.2289 178.482 17.2748 178.772C17.5195 180.194 17.8253 181.601 18.177 182.978C18.2535 183.268 18.07 183.559 17.7642 183.635C17.7183 183.635 17.6724 183.65 17.6265 183.65ZM251.162 183.375C251.101 183.375 251.04 183.36 250.978 183.345C250.688 183.238 250.535 182.932 250.642 182.656C251.162 181.265 251.85 179.934 252.707 178.696C252.875 178.451 253.226 178.375 253.471 178.543C253.731 178.711 253.792 179.047 253.624 179.292C252.829 180.47 252.171 181.724 251.682 183.023C251.605 183.238 251.391 183.375 251.162 183.375ZM255.994 176.203C255.857 176.203 255.704 176.142 255.597 176.035C255.383 175.821 255.383 175.484 255.597 175.27C256.621 174.291 257.753 173.374 259.068 172.441C259.313 172.273 259.665 172.319 259.848 172.563C260.032 172.808 259.971 173.144 259.726 173.313C258.457 174.215 257.355 175.102 256.377 176.035C256.285 176.142 256.132 176.203 255.994 176.203ZM16.1125 175.117C15.8373 175.117 15.5926 174.918 15.562 174.628C15.4091 173.19 15.2867 171.722 15.2256 170.269C15.2103 169.964 15.455 169.719 15.7608 169.704C16.0667 169.688 16.3267 169.918 16.3419 170.223C16.4031 171.661 16.5255 173.099 16.6784 174.505C16.709 174.796 16.4949 175.071 16.189 175.102C16.1431 175.117 16.1278 175.117 16.1125 175.117ZM263.136 171.065C262.953 171.065 262.754 170.973 262.662 170.805C262.509 170.545 262.601 170.208 262.861 170.055C263.993 169.398 265.247 168.725 266.776 167.945C267.051 167.807 267.388 167.914 267.525 168.174C267.663 168.434 267.571 168.771 267.296 168.908C265.782 169.688 264.543 170.346 263.427 170.988C263.32 171.034 263.228 171.065 263.136 171.065ZM270.981 166.981C270.783 166.981 270.584 166.874 270.492 166.691C270.354 166.431 270.461 166.094 270.737 165.957C272.006 165.33 273.367 164.657 274.682 163.969C274.957 163.831 275.294 163.923 275.432 164.198C275.569 164.458 275.477 164.795 275.202 164.932C273.872 165.62 272.526 166.293 271.241 166.936C271.15 166.951 271.073 166.981 270.981 166.981ZM15.6996 166.461C15.3785 166.461 15.1338 166.217 15.1491 165.911C15.1644 164.473 15.2408 163.005 15.3479 161.552C15.3632 161.247 15.6385 161.033 15.9443 161.048C16.2502 161.063 16.4796 161.323 16.4643 161.629C16.3572 163.051 16.2961 164.504 16.2808 165.926C16.2502 166.232 16.0055 166.461 15.6996 166.461ZM278.811 162.837C278.628 162.837 278.444 162.745 278.337 162.577C278.184 162.317 278.261 161.996 278.521 161.828C279.882 161.017 281.075 160.237 282.176 159.442C282.42 159.259 282.772 159.32 282.956 159.549C283.139 159.794 283.093 160.13 282.849 160.314C281.717 161.124 280.493 161.935 279.102 162.745C279.01 162.807 278.903 162.837 278.811 162.837ZM16.3419 157.836C16.3114 157.836 16.296 157.836 16.2655 157.836C15.9596 157.79 15.7455 157.531 15.7914 157.225C15.9902 155.787 16.2196 154.35 16.4948 152.912C16.556 152.622 16.8466 152.423 17.1525 152.484C17.4583 152.545 17.6571 152.82 17.5959 153.111C17.3206 154.518 17.0913 155.94 16.8925 157.362C16.8619 157.638 16.6172 157.836 16.3419 157.836ZM285.892 157.622C285.754 157.622 285.601 157.576 285.494 157.469C285.28 157.255 285.28 156.919 285.494 156.705C286.503 155.711 287.452 154.625 288.293 153.463C288.476 153.218 288.813 153.157 289.073 153.325C289.317 153.493 289.379 153.83 289.21 154.074C288.339 155.282 287.345 156.429 286.289 157.454C286.167 157.561 286.029 157.622 285.892 157.622ZM291 150.588C290.923 150.588 290.831 150.572 290.755 150.526C290.48 150.389 290.357 150.068 290.495 149.808C291.122 148.554 291.657 147.223 292.101 145.862C292.192 145.572 292.498 145.419 292.804 145.51C293.095 145.602 293.263 145.908 293.171 146.183C292.712 147.606 292.162 148.982 291.504 150.282C291.412 150.465 291.214 150.588 291 150.588ZM17.9935 149.318C17.9477 149.318 17.9018 149.318 17.8559 149.303C17.5654 149.227 17.3819 148.936 17.443 148.645C17.7948 147.238 18.2076 145.832 18.6511 144.44C18.7429 144.149 19.0488 143.996 19.3393 144.088C19.6299 144.18 19.7981 144.486 19.7063 144.761C19.2781 146.122 18.8652 147.514 18.5135 148.905C18.4676 149.15 18.2535 149.318 17.9935 149.318ZM293.645 142.345C293.615 142.345 293.584 142.345 293.553 142.345C293.248 142.299 293.049 142.024 293.095 141.718C293.324 140.326 293.462 138.904 293.492 137.482C293.492 137.176 293.752 136.931 294.058 136.946C294.364 136.946 294.609 137.206 294.609 137.497C294.578 138.965 294.44 140.449 294.196 141.886C294.15 142.146 293.921 142.345 293.645 142.345ZM20.6239 141.045C20.5627 141.045 20.5015 141.03 20.4251 141.014C20.1345 140.907 19.9969 140.601 20.104 140.311C20.6239 138.95 21.1897 137.589 21.7862 136.274C21.9085 135.998 22.2296 135.876 22.5202 135.998C22.7955 136.121 22.9331 136.442 22.8107 136.717C22.2296 138.017 21.6638 139.363 21.1592 140.708C21.0674 140.907 20.8533 141.045 20.6239 141.045ZM293.844 133.704C293.569 133.704 293.324 133.506 293.293 133.23C293.125 131.808 292.85 130.401 292.483 129.055C292.406 128.765 292.59 128.474 292.881 128.398C293.171 128.321 293.477 128.49 293.553 128.78C293.936 130.187 294.211 131.64 294.379 133.108C294.41 133.399 294.196 133.674 293.89 133.704C293.89 133.704 293.875 133.704 293.844 133.704ZM24.2024 133.108C24.1106 133.108 24.0342 133.093 23.9577 133.047C23.6824 132.909 23.5754 132.588 23.713 132.313C24.3859 131.013 25.1047 129.728 25.854 128.474C26.007 128.214 26.3434 128.123 26.6187 128.276C26.8786 128.428 26.9704 128.765 26.8174 129.01C26.0834 130.248 25.3647 131.518 24.7071 132.787C24.6 133.001 24.4012 133.108 24.2024 133.108ZM28.6832 125.63C28.5761 125.63 28.4691 125.599 28.3773 125.538C28.1174 125.37 28.0562 125.033 28.2244 124.789C29.0502 123.581 29.9219 122.373 30.8089 121.226C30.9924 120.981 31.3441 120.935 31.5888 121.118C31.8335 121.302 31.8793 121.638 31.6958 121.883C30.8241 123.015 29.9678 124.192 29.142 125.4C29.0349 125.538 28.8667 125.63 28.6832 125.63ZM291.596 125.355C291.382 125.355 291.168 125.232 291.091 125.033C290.51 123.718 289.837 122.449 289.073 121.271C288.904 121.011 288.981 120.69 289.241 120.522C289.501 120.369 289.837 120.43 290.006 120.69C290.801 121.914 291.52 123.229 292.116 124.605C292.238 124.881 292.101 125.202 291.825 125.324C291.734 125.339 291.672 125.355 291.596 125.355ZM34.0356 118.718C33.9133 118.718 33.7757 118.672 33.6686 118.595C33.4392 118.396 33.4086 118.06 33.6074 117.831C34.2344 117.112 34.892 116.393 35.5343 115.705C35.8861 115.338 36.2531 114.956 36.6048 114.588C36.8189 114.374 37.1706 114.359 37.3847 114.573C37.6141 114.787 37.6141 115.124 37.4 115.338C37.0483 115.705 36.6813 116.072 36.3448 116.439C35.7025 117.112 35.0603 117.815 34.4485 118.534C34.3415 118.641 34.1885 118.718 34.0356 118.718ZM286.84 118.075C286.687 118.075 286.534 118.014 286.427 117.892C285.968 117.402 285.494 116.928 285.005 116.485C284.454 115.98 283.858 115.475 283.246 115.001C283.001 114.818 282.971 114.466 283.17 114.237C283.368 114.007 283.72 113.961 283.95 114.16C284.592 114.665 285.204 115.185 285.769 115.705C286.274 116.179 286.779 116.668 287.253 117.173C287.452 117.402 287.436 117.739 287.207 117.938C287.115 118.029 286.978 118.075 286.84 118.075ZM279.989 112.585C279.882 112.585 279.775 112.555 279.683 112.493C278.551 111.79 277.312 111.071 275.89 110.307C275.615 110.169 275.523 109.832 275.676 109.572C275.829 109.312 276.166 109.221 276.426 109.358C277.878 110.138 279.132 110.872 280.279 111.591C280.539 111.759 280.616 112.08 280.448 112.34C280.341 112.509 280.172 112.585 279.989 112.585ZM40.1527 112.432C40.0151 112.432 39.8622 112.371 39.7551 112.264C39.541 112.05 39.541 111.713 39.7704 111.499C40.4433 110.857 41.1315 110.215 41.8197 109.572L42.9666 108.487C43.1807 108.273 43.5324 108.288 43.7465 108.502C43.9606 108.716 43.9606 109.053 43.7313 109.267L42.5843 110.352C41.8961 110.995 41.2232 111.637 40.5503 112.279C40.428 112.371 40.2903 112.432 40.1527 112.432ZM272.22 108.349C272.128 108.349 272.052 108.334 271.96 108.288L270.752 107.676C269.834 107.217 268.917 106.759 267.999 106.3C267.724 106.162 267.617 105.841 267.77 105.566C267.907 105.306 268.244 105.199 268.519 105.336C269.421 105.795 270.339 106.254 271.257 106.713L272.465 107.324C272.74 107.462 272.847 107.783 272.709 108.059C272.618 108.242 272.419 108.349 272.22 108.349ZM46.5145 106.361C46.3769 106.361 46.2392 106.315 46.1322 106.208C45.9181 105.994 45.9028 105.658 46.1169 105.443C47.2486 104.312 48.2426 103.287 49.1296 102.293C49.3284 102.064 49.6801 102.048 49.9095 102.247C50.1389 102.446 50.1695 102.782 49.9554 103.012C49.0531 104.021 48.0438 105.061 46.8968 106.208C46.8051 106.3 46.6521 106.361 46.5145 106.361ZM264.36 104.281C264.268 104.281 264.161 104.251 264.084 104.205C262.662 103.394 261.423 102.63 260.292 101.85C260.047 101.681 259.986 101.345 260.154 101.1C260.338 100.856 260.674 100.794 260.934 100.978C262.035 101.743 263.243 102.492 264.65 103.287C264.91 103.44 265.002 103.777 264.849 104.021C264.742 104.189 264.558 104.281 264.36 104.281ZM52.341 99.831C52.2187 99.831 52.1116 99.8004 52.0046 99.724C51.7599 99.5404 51.6987 99.204 51.8823 98.9593L52.1116 98.6535C52.8916 97.5983 53.6256 96.4972 54.2679 95.3808C54.4209 95.1208 54.7573 95.0291 55.0326 95.182C55.2925 95.3349 55.3996 95.6561 55.2467 95.9161C54.5738 97.063 53.8244 98.21 53.0139 99.2957L52.7845 99.6016C52.6928 99.7545 52.5245 99.831 52.341 99.831ZM257.157 99.2346C257.019 99.2346 256.881 99.1887 256.774 99.0816C255.627 98.0417 254.618 96.9407 253.746 95.7937C253.563 95.549 253.609 95.2126 253.869 95.0291C254.113 94.8456 254.465 94.9067 254.649 95.1361C255.475 96.2219 256.453 97.2771 257.539 98.2864C257.768 98.4852 257.768 98.837 257.57 99.0511C257.447 99.1734 257.31 99.2346 257.157 99.2346ZM251.927 92.2917C251.712 92.2917 251.514 92.1693 251.422 91.9705C250.795 90.6553 250.306 89.2331 249.954 87.765C249.877 87.4745 250.076 87.1839 250.367 87.1074C250.673 87.0463 250.963 87.2145 251.04 87.5051C251.376 88.8967 251.835 90.2425 252.431 91.4965C252.554 91.7717 252.431 92.0929 252.156 92.2152C252.095 92.2764 252.003 92.2917 251.927 92.2917ZM56.6995 92.2917C56.6383 92.2917 56.5618 92.2764 56.5007 92.2611C56.2101 92.154 56.0725 91.8329 56.1948 91.5576C56.7454 90.1966 57.1735 88.8355 57.4641 87.5051C57.5253 87.2145 57.8311 87.031 58.1217 87.0921C58.4275 87.1533 58.611 87.4439 58.5499 87.7344C58.244 89.1261 57.7852 90.5483 57.2194 91.9552C57.1277 92.1693 56.9136 92.2917 56.6995 92.2917ZM249.893 83.9112C249.602 83.9112 249.357 83.6819 249.342 83.4066C249.312 82.856 249.296 82.3055 249.296 81.7397C249.296 80.8527 249.342 79.9199 249.419 79.0023C249.449 78.7117 249.709 78.4823 250.015 78.5129C250.321 78.5435 250.55 78.8035 250.52 79.094C250.443 79.9963 250.397 80.8833 250.397 81.7397C250.397 82.2749 250.413 82.8102 250.443 83.3454C250.459 83.6513 250.229 83.896 249.923 83.9112C249.908 83.9112 249.893 83.9112 249.893 83.9112ZM58.5193 83.8654C58.1982 83.8654 57.9535 83.6207 57.9688 83.3148C57.9688 83.2078 57.9688 83.1007 57.9688 82.9937C57.9688 81.6632 57.8312 80.3633 57.5406 79.1399C57.4794 78.8494 57.6629 78.5588 57.9688 78.4976C58.2746 78.4365 58.5652 78.62 58.6264 78.9105C58.9322 80.2257 59.0851 81.6021 59.0851 83.009C59.0851 83.116 59.0851 83.2231 59.0851 83.3454C59.0698 83.6207 58.8252 83.8654 58.5193 83.8654ZM56.5771 75.5002C56.3783 75.5002 56.1795 75.3932 56.0878 75.2097C55.4761 74.0474 54.7114 72.8852 53.748 71.6465C53.5645 71.4018 53.6104 71.0654 53.855 70.8819C54.0997 70.6983 54.4514 70.7442 54.6349 70.9889C55.6443 72.2735 56.4395 73.4969 57.0665 74.7203C57.2042 74.9803 57.0971 75.3167 56.8218 75.4544C56.7454 75.4697 56.6536 75.5002 56.5771 75.5002ZM250.596 75.3015C250.566 75.3015 250.52 75.3014 250.489 75.2861C250.183 75.225 250 74.9344 250.061 74.6439C250.351 73.2522 250.718 71.83 251.162 70.3925C251.254 70.1019 251.56 69.949 251.85 70.0254C252.141 70.1172 252.309 70.4078 252.217 70.6983C251.774 72.09 251.422 73.4969 251.131 74.8427C251.085 75.1179 250.856 75.3015 250.596 75.3015ZM51.3164 68.5268C51.1635 68.5268 51.0106 68.4656 50.9035 68.3433C50.3377 67.7315 49.7566 67.1351 49.1907 66.5387C48.7472 66.0799 48.3191 65.6211 47.8909 65.1624C47.6768 64.9483 47.6921 64.5965 47.9214 64.3977C48.1508 64.1989 48.5026 64.2142 48.7014 64.4283C49.1296 64.8871 49.573 65.3306 50.0012 65.7894C50.5824 66.4011 51.1635 66.9975 51.7293 67.6092C51.9434 67.8233 51.9129 68.175 51.6988 68.3738C51.5764 68.4809 51.4541 68.5268 51.3164 68.5268ZM253.165 67.0128C253.104 67.0128 253.028 66.9975 252.966 66.9669C252.676 66.8599 252.538 66.5387 252.661 66.2634C253.165 65.0094 253.746 63.6943 254.419 62.2567C254.542 61.9815 254.878 61.8591 255.153 61.9815C255.429 62.1038 255.551 62.425 255.429 62.7002C254.756 64.1225 254.19 65.4223 253.685 66.661C253.594 66.8751 253.379 67.0128 253.165 67.0128ZM45.3982 62.0732C45.2299 62.0732 45.0617 61.9968 44.9547 61.8591C44.0524 60.6969 43.2724 59.397 42.6454 58.0207C42.5231 57.7454 42.6454 57.4242 42.936 57.3019C43.2113 57.1796 43.5477 57.3019 43.6701 57.5772C44.2665 58.877 45.0005 60.1005 45.8416 61.2015C46.0251 61.4462 45.9793 61.7827 45.7346 61.9662C45.6275 62.0273 45.5052 62.0732 45.3982 62.0732ZM256.836 59.1217C256.759 59.1217 256.667 59.1064 256.591 59.0606C256.316 58.9229 256.193 58.6018 256.331 58.3418C256.713 57.5772 257.096 56.8125 257.478 56.0632C257.753 55.5279 258.028 54.9927 258.288 54.4574C258.426 54.1822 258.762 54.0751 259.038 54.2128C259.313 54.3504 259.42 54.6715 259.298 54.9315C259.022 55.4668 258.762 56.002 258.487 56.5373C258.105 57.3019 257.723 58.0512 257.34 58.8159C257.233 58.9994 257.034 59.1217 256.836 59.1217ZM158.962 54.3351C158.656 54.3351 158.411 54.0904 158.411 53.7999C158.411 53.494 158.656 53.2646 158.962 53.2493C160.43 53.2493 161.914 53.1881 163.366 53.0964C163.672 53.0811 163.932 53.2952 163.963 53.6011C163.978 53.9069 163.749 54.1516 163.443 54.1822C161.959 54.2739 160.445 54.3198 158.962 54.3351ZM41.8044 54.2128C41.5444 54.2128 41.315 54.0292 41.2538 53.7846C40.9938 52.5153 40.8562 51.2307 40.8562 49.9767C40.8562 49.7626 40.8562 49.5638 40.8715 49.3497C40.8868 49.0438 41.1315 48.8144 41.4526 48.8297C41.7585 48.845 42.0031 49.0897 41.9879 49.3956C41.9879 49.5944 41.9725 49.7932 41.9725 49.9767C41.9725 51.1542 42.0949 52.3623 42.3549 53.5705C42.416 53.861 42.2172 54.1516 41.9267 54.2128C41.8808 54.2128 41.8349 54.2128 41.8044 54.2128ZM154.512 54.2128C154.497 54.2128 154.497 54.2128 154.481 54.2128C152.998 54.121 151.484 53.9987 150.016 53.8152C149.71 53.7846 149.496 53.5093 149.526 53.2187C149.557 52.9282 149.848 52.7141 150.153 52.7447C151.606 52.9129 153.09 53.0505 154.542 53.127C154.848 53.1423 155.078 53.4022 155.062 53.6928C155.047 53.9987 154.802 54.2128 154.512 54.2128ZM167.832 53.7387C167.557 53.7387 167.312 53.5399 167.281 53.2646C167.235 52.9741 167.449 52.6988 167.755 52.6529C169.208 52.4694 170.676 52.2247 172.114 51.9494C172.42 51.8883 172.71 52.0871 172.771 52.3776C172.833 52.6682 172.634 52.9588 172.328 53.0199C170.875 53.2952 169.376 53.5399 167.908 53.7387C167.878 53.7387 167.847 53.7387 167.832 53.7387ZM145.688 53.1576C145.657 53.1576 145.611 53.1576 145.581 53.1423C144.113 52.867 142.645 52.5458 141.207 52.1941C140.917 52.1176 140.733 51.8271 140.81 51.5365C140.886 51.246 141.192 51.0777 141.482 51.1542C142.889 51.5059 144.342 51.8271 145.795 52.0871C146.101 52.1482 146.3 52.4235 146.238 52.7141C146.177 52.974 145.948 53.1576 145.688 53.1576ZM176.549 52.0565C176.304 52.0565 176.075 51.9036 176.013 51.6589C175.937 51.3683 176.105 51.0777 176.411 51.0013C177.833 50.6343 179.255 50.2061 180.632 49.7473C180.922 49.6555 181.244 49.8085 181.335 50.0837C181.427 50.3743 181.274 50.6801 180.984 50.7719C179.577 51.2307 178.139 51.6589 176.686 52.0412C176.64 52.0412 176.595 52.0565 176.549 52.0565ZM260.72 51.3224C260.643 51.3224 260.567 51.3071 260.49 51.2766C260.215 51.1542 260.093 50.8331 260.215 50.5578C260.903 49.1203 261.485 47.8357 261.989 46.6123C262.112 46.337 262.433 46.1994 262.708 46.3217C262.999 46.4288 263.121 46.7499 263.014 47.0252C262.494 48.2639 261.897 49.5638 261.209 51.0166C261.133 51.2001 260.934 51.3224 260.72 51.3224ZM137.078 50.986C137.017 50.986 136.956 50.9707 136.91 50.9554C135.488 50.4966 134.081 49.992 132.704 49.4414C132.414 49.3344 132.291 49.0132 132.399 48.738C132.521 48.4627 132.842 48.3251 133.117 48.4474C134.463 48.9826 135.855 49.4873 137.246 49.9461C137.537 50.0378 137.69 50.3437 137.598 50.6343C137.522 50.8331 137.307 50.986 137.078 50.986ZM184.975 49.2579C184.761 49.2579 184.547 49.1356 184.455 48.9215C184.333 48.6462 184.47 48.3251 184.761 48.218C186.122 47.6675 187.468 47.0558 188.768 46.4288C189.043 46.2911 189.379 46.3982 189.517 46.6734C189.655 46.9334 189.548 47.2699 189.272 47.4075C187.942 48.0498 186.581 48.6768 185.189 49.2273C185.113 49.2426 185.036 49.2579 184.975 49.2579ZM128.851 47.6828C128.774 47.6828 128.682 47.6675 128.606 47.6216C127.26 46.9793 125.945 46.2758 124.66 45.5418C124.4 45.3888 124.309 45.0524 124.462 44.7924C124.615 44.5325 124.966 44.456 125.226 44.6089C126.48 45.3277 127.78 46.0159 129.095 46.6581C129.371 46.7958 129.478 47.1169 129.34 47.3769C129.248 47.5757 129.049 47.6828 128.851 47.6828ZM42.202 45.6641C42.1408 45.6641 42.0796 45.6488 42.0184 45.6335C41.7279 45.5418 41.575 45.2206 41.6667 44.9454C42.202 43.4467 42.9666 42.1315 43.9759 41.0304C44.1747 40.801 44.5264 40.7857 44.7558 40.9845C44.9852 41.1834 45.0005 41.5198 44.8017 41.7492C43.8994 42.7432 43.196 43.936 42.7219 45.2971C42.6455 45.5112 42.4314 45.6641 42.202 45.6641ZM192.912 45.3583C192.728 45.3583 192.545 45.2665 192.438 45.0983C192.285 44.8383 192.361 44.5019 192.637 44.3489C193.906 43.6149 195.145 42.835 196.337 42.0092C196.582 41.8409 196.934 41.9021 197.117 42.1468C197.301 42.3915 197.24 42.7279 196.98 42.8961C195.772 43.7219 194.502 44.5325 193.218 45.2818C193.111 45.343 193.004 45.3583 192.912 45.3583ZM77.9258 44.8995C77.9105 44.8995 77.9105 44.8995 77.8952 44.8995C76.4424 44.8077 74.9284 44.5783 73.3992 44.2113C73.1086 44.1348 72.9251 43.8443 73.0015 43.5537C73.078 43.2632 73.3686 43.0796 73.6744 43.1561C75.1425 43.5078 76.58 43.7372 77.9564 43.8137C78.2622 43.829 78.4916 44.089 78.4764 44.3948C78.4611 44.6701 78.2164 44.8995 77.9258 44.8995ZM82.3607 44.6395C82.1007 44.6395 81.8713 44.456 81.8102 44.196C81.749 43.9055 81.9478 43.6149 82.2536 43.5537C83.737 43.2785 85.0522 42.7738 86.1992 42.0856C86.4591 41.9327 86.7956 42.0092 86.9638 42.2538C87.132 42.5138 87.0555 42.835 86.7956 43.0032C85.5416 43.7678 84.0888 44.3184 82.483 44.6242C82.4372 44.6395 82.3913 44.6395 82.3607 44.6395ZM264.054 43.2937C263.993 43.2937 263.931 43.2785 263.886 43.2632C263.595 43.1714 263.442 42.8655 263.534 42.575C263.733 41.9939 263.916 41.4127 264.084 40.8622C264.314 40.067 264.528 39.2565 264.711 38.4612C264.772 38.1707 265.078 37.9872 265.369 38.0483C265.675 38.1095 265.858 38.4001 265.797 38.6906C265.614 39.5164 265.4 40.3575 265.155 41.1681C264.987 41.7339 264.803 42.3303 264.604 42.9267C264.512 43.1408 264.298 43.2937 264.054 43.2937ZM121.204 43.2785C121.097 43.2785 120.99 43.2479 120.883 43.1867C120.226 42.7432 119.583 42.2844 118.941 41.8103C118.452 41.4433 117.916 41.0304 117.289 40.5258C117.06 40.327 117.029 39.9905 117.213 39.7611C117.412 39.5317 117.763 39.5011 117.993 39.6999C118.604 40.1893 119.124 40.6022 119.599 40.954C120.21 41.4127 120.853 41.8562 121.495 42.2997C121.739 42.4679 121.816 42.8044 121.632 43.0491C121.541 43.202 121.372 43.2785 121.204 43.2785ZM69.316 42.8808C69.2548 42.8808 69.1783 42.8655 69.1172 42.8503C68.0925 42.4679 67.0527 42.055 66.0434 41.6574L64.9728 41.2292C64.6823 41.1222 64.5446 40.801 64.667 40.5258C64.7893 40.2505 65.1105 40.1129 65.3857 40.2199L66.4562 40.6481C67.4503 41.0457 68.4902 41.4433 69.4995 41.8256C69.79 41.9327 69.9277 42.2385 69.8207 42.5291C69.7442 42.7432 69.5301 42.8808 69.316 42.8808ZM200.191 40.3881C200.054 40.3881 199.901 40.3422 199.794 40.2352C199.58 40.0211 199.58 39.6847 199.794 39.4706C199.809 39.4553 199.824 39.44 199.84 39.4247C200.925 38.553 202.011 37.6354 203.158 36.5955C203.387 36.3967 203.739 36.412 203.938 36.6261C204.152 36.8402 204.137 37.1919 203.907 37.3907C202.745 38.4459 201.629 39.3788 200.543 40.2658C200.436 40.3422 200.314 40.3881 200.191 40.3881ZM89.64 40.0976C89.533 40.0976 89.4259 40.067 89.3189 40.0058C89.0742 39.8376 88.9978 39.5011 89.1813 39.2565C89.6859 38.553 90.1447 37.7731 90.6035 37.0237C90.8941 36.5496 91.1846 36.0603 91.4904 35.5862C91.6587 35.3262 91.9951 35.2498 92.2551 35.418C92.5151 35.5709 92.5915 35.9074 92.4386 36.1673C92.148 36.6261 91.8575 37.1155 91.5669 37.5896C91.1082 38.3542 90.634 39.1494 90.0988 39.8988C89.9918 40.0058 89.8235 40.0976 89.64 40.0976ZM61.012 39.7611C60.9509 39.7611 60.8897 39.7458 60.8438 39.7305C59.3145 39.2412 57.9229 38.8894 56.623 38.6753C56.3172 38.6295 56.1183 38.3389 56.1642 38.0483C56.2101 37.7578 56.5007 37.559 56.8065 37.6048C58.1676 37.8342 59.6051 38.186 61.1955 38.7059C61.4861 38.7977 61.639 39.1035 61.5473 39.3941C61.4555 39.6082 61.2414 39.7611 61.012 39.7611ZM47.9673 39.3941C47.7532 39.3941 47.5544 39.2718 47.4626 39.073C47.3403 38.7977 47.4626 38.4765 47.7532 38.3542C49.099 37.7884 50.6129 37.4366 52.2493 37.3449C52.5551 37.3296 52.8151 37.559 52.8457 37.8495C52.861 38.1554 52.6316 38.4001 52.3258 38.4306C50.8118 38.5224 49.4201 38.8436 48.1967 39.3635C48.1202 39.3941 48.0438 39.3941 47.9673 39.3941ZM114.277 37.8342C114.154 37.8342 114.017 37.7884 113.91 37.6966C112.916 36.8708 111.738 35.8921 110.499 34.9592C110.255 34.7757 110.209 34.4392 110.392 34.1946C110.576 33.9499 110.928 33.9193 111.172 34.0875C112.441 35.0357 113.696 36.0756 114.628 36.8555C114.858 37.0543 114.888 37.3907 114.69 37.6201C114.598 37.7578 114.445 37.8342 114.277 37.8342ZM265.919 34.8369C265.904 34.8369 265.889 34.8369 265.874 34.8369C265.568 34.8063 265.338 34.5463 265.369 34.2404C265.461 33.2311 265.522 32.2065 265.522 31.2278C265.522 30.8149 265.507 30.402 265.491 29.9891C265.476 29.6832 265.721 29.4385 266.027 29.4232C266.332 29.4079 266.592 29.6373 266.608 29.9432C266.623 30.3561 266.638 30.7996 266.638 31.2278C266.638 32.2524 266.592 33.2923 266.485 34.3475C266.455 34.6228 266.21 34.8369 265.919 34.8369ZM206.737 34.531C206.599 34.531 206.446 34.4851 206.339 34.3781C206.125 34.164 206.125 33.8275 206.339 33.6134C207.241 32.7265 208.205 31.7783 209.443 30.5243C209.657 30.3102 210.009 30.2949 210.223 30.509C210.437 30.7231 210.453 31.0595 210.239 31.2736C208.985 32.5429 208.036 33.4911 207.119 34.3781C207.027 34.4698 206.874 34.531 206.737 34.531ZM94.809 33.0782C94.6561 33.0782 94.5031 33.017 94.3961 32.8947C94.1973 32.6653 94.2125 32.3289 94.4419 32.13C95.7112 31.0443 97.0876 30.2949 98.5251 29.9279C98.8157 29.8514 99.1215 30.0196 99.198 30.3102C99.2745 30.6008 99.1062 30.8913 98.8004 30.9678C97.5311 31.2889 96.323 31.9618 95.176 32.9406C95.069 33.0323 94.9313 33.0782 94.809 33.0782ZM107.15 32.65C107.058 32.65 106.967 32.6347 106.875 32.5735C105.453 31.7936 104.168 31.2737 102.929 30.9831C102.624 30.9066 102.44 30.6161 102.516 30.3255C102.593 30.0349 102.884 29.8514 103.189 29.9279C104.535 30.2337 105.927 30.7996 107.441 31.6254C107.701 31.7783 107.808 32.0995 107.655 32.3594C107.533 32.543 107.349 32.65 107.15 32.65ZM212.93 28.3069C212.792 28.3069 212.655 28.261 212.548 28.1539C212.334 27.9398 212.318 27.6034 212.532 27.3893C213.374 26.5329 214.49 25.4165 215.652 24.2849C215.866 24.0708 216.218 24.0708 216.432 24.2849C216.646 24.499 216.646 24.8354 216.432 25.0495C215.285 26.1659 214.169 27.2975 213.328 28.1386C213.221 28.2457 213.083 28.3069 212.93 28.3069ZM265.537 26.2118C265.277 26.2118 265.048 26.0282 264.987 25.7683C264.696 24.346 264.283 22.985 263.763 21.7157C263.641 21.4404 263.794 21.1193 264.069 21.0122C264.36 20.9052 264.681 21.0275 264.788 21.3181C265.338 22.6486 265.767 24.0708 266.072 25.5695C266.134 25.86 265.935 26.1506 265.629 26.2118C265.598 26.2118 265.568 26.2118 265.537 26.2118ZM219.246 22.1898C219.093 22.1898 218.94 22.1286 218.833 22.0215C218.619 21.8074 218.634 21.4557 218.864 21.2569C220.026 20.2017 221.142 19.2688 222.228 18.3819C222.458 18.1984 222.809 18.2289 223.008 18.4583C223.207 18.6877 223.176 19.0242 222.932 19.223C221.846 20.0947 220.76 21.0122 219.613 22.0521C219.506 22.1439 219.384 22.1898 219.246 22.1898ZM262.188 18.2442C262.005 18.2442 261.836 18.1678 261.729 18.0148C261.041 17.0514 260.261 16.1491 259.389 15.3539C259.221 15.201 259.038 15.0481 258.869 14.8951C258.64 14.6963 258.61 14.3599 258.824 14.1305C259.022 13.9011 259.374 13.8858 259.604 14.0846C259.787 14.2375 259.971 14.4058 260.154 14.574C261.072 15.4304 261.913 16.3785 262.647 17.4031C262.815 17.6478 262.754 17.9843 262.509 18.1525C262.402 18.2137 262.295 18.2442 262.188 18.2442ZM226.128 16.715C225.96 16.715 225.776 16.6385 225.669 16.4856C225.485 16.2409 225.547 15.9045 225.807 15.7362C225.929 15.6445 226.051 15.568 226.189 15.4763C227.29 14.7422 228.452 14.054 229.66 13.427C229.936 13.2894 230.272 13.3811 230.41 13.6564C230.547 13.9164 230.456 14.2528 230.18 14.3905C229.018 15.0022 227.886 15.6598 226.816 16.3785C226.694 16.455 226.571 16.5467 226.449 16.6232C226.342 16.6844 226.235 16.715 226.128 16.715ZM233.958 12.6318C233.728 12.6318 233.529 12.4942 233.438 12.2801C233.331 12.0048 233.468 11.6837 233.759 11.5766C235.181 11.0414 236.619 10.5979 238.056 10.2461C238.347 10.1697 238.652 10.3532 238.729 10.6437C238.805 10.9343 238.622 11.2249 238.331 11.3013C236.94 11.6378 235.533 12.0813 234.156 12.6012C234.095 12.6318 234.019 12.6318 233.958 12.6318ZM255.566 12.5859C255.475 12.5859 255.398 12.5706 255.306 12.5248C254.052 11.8978 252.691 11.4084 251.269 11.0567C250.978 10.9802 250.795 10.6896 250.871 10.3991C250.948 10.1085 251.254 9.94028 251.544 10.0015C253.058 10.3685 254.496 10.9037 255.826 11.5613C256.101 11.6989 256.209 12.0201 256.071 12.2954C255.964 12.4789 255.765 12.5859 255.566 12.5859ZM242.567 10.552C242.292 10.552 242.047 10.3532 242.017 10.0626C241.986 9.77206 242.2 9.49679 242.506 9.46621C244.051 9.29799 245.58 9.2674 247.033 9.34386C247.339 9.35916 247.568 9.61914 247.553 9.9097C247.538 10.2156 247.278 10.4449 246.972 10.4144C245.58 10.3379 244.097 10.3838 242.613 10.5367C242.613 10.552 242.583 10.552 242.567 10.552Z" fill="#8ABAE7"/>
<path d="M49.4919 9.42033C49.1861 9.42033 48.9414 9.17564 48.9414 8.88508V0.535244C48.9414 0.229389 49.1861 0 49.4919 0C49.7978 0 50.0425 0.244681 50.0425 0.535244V8.88508C50.0425 9.17564 49.7978 9.42033 49.4919 9.42033Z" fill="black"/>
<path d="M53.7704 5.2448H45.1911C44.8853 5.2448 44.6406 5.00012 44.6406 4.70956C44.6406 4.40371 44.8853 4.17432 45.1911 4.17432H53.7704C54.0762 4.17432 54.3209 4.419 54.3209 4.70956C54.3209 5.00012 54.0762 5.2448 53.7704 5.2448Z" fill="black"/>
<path d="M231.193 40.4643C231.055 40.4643 230.902 40.4185 230.795 40.3114L223.868 33.5673C223.654 33.3532 223.654 33.0168 223.868 32.8027C224.082 32.5886 224.433 32.5886 224.648 32.8027L231.575 39.5468C231.789 39.7609 231.789 40.0973 231.575 40.3114C231.468 40.4185 231.33 40.4643 231.193 40.4643Z" fill="black"/>
<path d="M224.265 40.4643C224.128 40.4643 223.975 40.4185 223.868 40.3114C223.654 40.0973 223.654 39.7609 223.868 39.5468L230.795 32.8027C231.009 32.5886 231.361 32.5886 231.575 32.8027C231.789 33.0168 231.789 33.3532 231.575 33.5673L224.648 40.3114C224.541 40.4185 224.403 40.4643 224.265 40.4643Z" fill="black"/>
<path d="M229.565 272.671C227.347 272.671 225.527 270.912 225.527 268.74C225.527 266.569 227.332 264.81 229.565 264.81C231.782 264.81 233.602 266.569 233.602 268.74C233.602 270.912 231.782 272.671 229.565 272.671ZM229.565 265.896C227.959 265.896 226.644 267.165 226.644 268.74C226.644 270.315 227.959 271.585 229.565 271.585C231.17 271.585 232.486 270.315 232.486 268.74C232.486 267.165 231.17 265.896 229.565 265.896Z" fill="black"/>
<path d="M34.6544 156.367C32.437 156.367 30.6172 154.608 30.6172 152.437C30.6172 150.265 32.4217 148.506 34.6544 148.506C36.8719 148.506 38.6918 150.265 38.6918 152.437C38.6918 154.608 36.8872 156.367 34.6544 156.367ZM34.6544 149.592C33.0487 149.592 31.7335 150.861 31.7335 152.437C31.7335 154.012 33.0487 155.281 34.6544 155.281C36.2602 155.281 37.5754 154.012 37.5754 152.437C37.5754 150.877 36.2755 149.592 34.6544 149.592Z" fill="black"/>
<path d="M300.694 167.41C300.557 167.41 300.404 167.364 300.297 167.257L295.77 162.853C295.556 162.639 295.556 162.302 295.77 162.088L300.297 157.684C300.511 157.47 300.862 157.47 301.077 157.684L305.603 162.088C305.817 162.302 305.817 162.639 305.603 162.853L301.077 167.257C300.985 167.349 300.832 167.41 300.694 167.41ZM296.963 162.455L300.694 166.095L304.426 162.455L300.694 158.816L296.963 162.455Z" fill="black"/>
<path d="M61.1365 267.058C60.8306 267.058 60.5859 266.814 60.5859 266.523V263.296C60.5859 262.991 60.8306 262.761 61.1365 262.761C61.4423 262.761 61.687 263.006 61.687 263.296V266.523C61.687 266.814 61.4423 267.058 61.1365 267.058Z" fill="black"/>
<path d="M61.1365 275.545C60.8306 275.545 60.5859 275.301 60.5859 275.01V271.783C60.5859 271.477 60.8306 271.248 61.1365 271.248C61.4423 271.248 61.687 271.493 61.687 271.783V275.01C61.687 275.301 61.4423 275.545 61.1365 275.545Z" fill="black"/>
<path d="M67.1546 269.689H63.8513C63.5455 269.689 63.3008 269.444 63.3008 269.153C63.3008 268.863 63.5455 268.618 63.8513 268.618H67.1546C67.4604 268.618 67.7051 268.863 67.7051 269.153C67.7051 269.444 67.4604 269.689 67.1546 269.689Z" fill="black"/>
<path d="M58.4319 269.689H55.1286C54.8228 269.689 54.5781 269.444 54.5781 269.153C54.5781 268.863 54.8228 268.618 55.1286 268.618H58.4319C58.7377 268.618 58.9824 268.863 58.9824 269.153C58.9824 269.444 58.753 269.689 58.4319 269.689Z" fill="black"/>
<path d="M59.3048 69.1233L17.9533 74.7816L13.8242 46.123L55.1758 40.48L59.3048 69.1233Z" fill="#4666C9"/>
<path d="M55.1209 58.4648C55.2433 59.6729 55.0751 60.6822 54.6163 61.4621C54.1575 62.2421 53.4541 62.7008 52.5212 62.8385C52.1083 62.8996 51.7413 62.8538 51.4048 62.7314C51.0837 62.5938 50.8084 62.3797 50.6096 62.0738C50.2273 62.7926 49.6309 63.2208 48.8662 63.3279C48.1628 63.4196 47.5663 63.2055 47.1076 62.6855C46.6335 62.1656 46.3888 61.4163 46.3429 60.4528C46.3123 59.6576 46.4194 58.9388 46.6488 58.2965C46.8781 57.6542 47.2146 57.1343 47.6428 56.7367C48.0863 56.3391 48.5756 56.1097 49.1415 56.0332C49.8297 55.9415 50.4414 56.0179 50.9766 56.2626L51.4813 56.5073L51.6954 60.6363C51.6954 61.0186 51.7871 61.2939 51.9401 61.4774C52.1083 61.6609 52.3224 61.7221 52.613 61.6915C53.0564 61.6303 53.3929 61.3245 53.6223 60.774C53.8517 60.2234 53.9128 59.5353 53.8364 58.7247C53.6834 57.0731 53.1635 55.8497 52.2765 55.0698C51.3895 54.2898 50.1967 53.9993 48.698 54.2134C47.7652 54.3357 46.9699 54.6874 46.2971 55.2533C45.6395 55.8191 45.1501 56.5532 44.8595 57.4554C44.5537 58.3577 44.4619 59.367 44.569 60.4681C44.7372 62.1503 45.2572 63.389 46.1594 64.1995C47.0464 65.0101 48.2698 65.3006 49.7838 65.1018C50.1814 65.0406 50.5943 64.9489 51.0225 64.796C51.4507 64.643 51.8177 64.4748 52.1083 64.2913L52.5365 65.3465C52.2612 65.5759 51.8942 65.7747 51.4048 65.9582C50.9155 66.1417 50.4261 66.264 49.9214 66.3405C48.6521 66.5087 47.5204 66.417 46.557 66.0347C45.5936 65.6523 44.8136 65.0101 44.2325 64.0925C43.6514 63.1749 43.2844 62.0433 43.1468 60.6669C43.0244 59.367 43.1467 58.1589 43.5596 57.0425C43.9572 55.9415 44.5995 55.0392 45.4712 54.351C46.3429 53.6628 47.3675 53.2346 48.5603 53.0664C49.7685 52.8982 50.8543 53.0052 51.8024 53.4029C52.7506 53.7852 53.5152 54.4275 54.081 55.2992C54.6469 56.1403 54.9986 57.2108 55.1209 58.4648ZM47.9486 60.2081C47.9792 60.8351 48.1016 61.2939 48.3157 61.5998C48.5298 61.9056 48.8203 62.028 49.1874 61.9821C49.4167 61.9515 49.6308 61.8139 49.8144 61.5845C49.9979 61.3551 50.1355 61.0339 50.212 60.6363L50.0285 57.2566C49.8297 57.226 49.6308 57.2108 49.432 57.2413C48.8815 57.3178 48.4839 57.6084 48.2392 58.113C48.0098 58.6024 47.9028 59.3059 47.9486 60.2081Z" fill="#D8E5F3"/>
<path d="M17.9517 75.3029C17.6918 75.3029 17.4624 75.1194 17.4318 74.8594L13.3027 46.2008C13.2721 46.002 13.3639 45.8185 13.5169 45.7115C13.6851 45.6044 13.8992 45.5891 14.0674 45.6809L36.4712 57.0128L54.8073 40.1143C55.0213 39.9155 55.3578 39.9308 55.5566 40.1296C55.7554 40.3437 55.7554 40.6649 55.5413 40.8637L36.93 58.0221C36.7618 58.1751 36.5171 58.2056 36.3183 58.0986L14.4956 47.0572L18.4105 74.2019L59.2421 68.62C59.5327 68.5741 59.8079 68.7729 59.8385 69.0635C59.8844 69.3388 59.6703 69.614 59.3798 69.6446L18.0282 75.3029C17.9976 75.2876 17.9823 75.3029 17.9517 75.3029Z" fill="white"/>
<path d="M270.289 121.207L270.671 108.621C270.671 108.621 255.807 93.9557 262.031 82.6391C264.891 77.4243 268.224 74.9316 276.223 75.0081C284.052 75.0692 289.665 82.5627 290.659 89.3068L296.608 95.3474C297.938 96.6932 297.204 98.8341 295.201 99.4153L292.448 100.21L293.748 104.63C294.513 107.26 292.249 109.906 289.099 110.044L285.291 110.441L284.71 119.219L270.289 121.207Z" fill="white"/>
<path d="M286.641 92.7969C286.672 92.7969 286.687 92.7969 286.717 92.7969C287.008 92.751 287.207 92.4911 287.161 92.2158L286.672 88.8514C286.626 88.5761 286.366 88.3773 286.075 88.4079C285.785 88.4538 285.586 88.7138 285.632 88.989L286.121 92.3534C286.152 92.6134 286.381 92.7969 286.641 92.7969Z" fill="black"/>
<path d="M273.592 103.272C274.25 103.272 274.892 103.134 275.474 102.859C275.734 102.737 275.856 102.431 275.718 102.171C275.596 101.911 275.275 101.804 275.015 101.926C274.005 102.4 272.813 102.324 271.635 101.743C270.412 101.131 269.356 100.045 268.684 98.6687C267.307 95.8854 267.919 92.8115 270.029 91.8175C271.023 91.3434 272.231 91.4199 273.409 92.001C274.632 92.6127 275.688 93.6985 276.36 95.0749C276.483 95.3348 276.804 95.4419 277.064 95.3196C277.324 95.1972 277.446 94.8914 277.309 94.6314C276.529 93.0562 275.305 91.7869 273.883 91.0835C272.4 90.3494 270.87 90.2729 269.555 90.8846C266.91 92.1234 266.084 95.8242 267.705 99.1275C268.485 100.703 269.708 101.972 271.13 102.675C271.971 103.073 272.797 103.272 273.592 103.272Z" fill="black"/>
<path d="M301.313 107.569C301.512 107.569 301.711 107.462 301.803 107.263C301.833 107.217 302.032 107.095 302.139 107.019C302.445 106.835 302.827 106.606 302.919 106.178C303.026 105.749 302.797 105.382 302.598 105.077C302.537 104.969 302.415 104.786 302.415 104.725C302.43 104.679 302.552 104.495 302.629 104.404C302.843 104.113 303.103 103.761 303.042 103.333C302.98 102.905 302.629 102.63 302.338 102.416C302.231 102.339 302.063 102.201 302.032 102.14C302.032 102.094 302.078 101.88 302.109 101.758C302.2 101.422 302.323 100.993 302.093 100.611C301.879 100.229 301.451 100.122 301.099 100.015C300.977 99.984 300.763 99.9229 300.702 99.877C300.518 99.6629 300.182 99.6323 299.952 99.8158C299.723 99.9993 299.708 100.336 299.891 100.55C300.136 100.825 300.488 100.917 300.794 101.009C300.901 101.039 301.069 101.085 301.145 101.131C301.145 101.223 301.099 101.391 301.069 101.498C300.992 101.804 300.901 102.14 301.008 102.477C301.13 102.813 301.421 103.027 301.665 103.226C301.757 103.287 301.895 103.394 301.956 103.471C301.925 103.547 301.818 103.685 301.742 103.777C301.543 104.037 301.329 104.312 301.313 104.679C301.298 105.031 301.482 105.336 301.65 105.612C301.711 105.704 301.803 105.856 301.833 105.933C301.772 105.994 301.619 106.086 301.528 106.147C301.252 106.315 300.946 106.514 300.794 106.835C300.671 107.095 300.794 107.401 301.069 107.523C301.161 107.554 301.237 107.569 301.313 107.569Z" fill="black"/>
<path d="M304.751 109.066C304.949 109.066 305.148 108.959 305.24 108.76C305.317 108.577 305.531 108.378 305.76 108.179C306.096 107.873 306.479 107.521 306.586 107.032C306.708 106.527 306.525 106.053 306.372 105.625C306.28 105.365 306.173 105.09 306.188 104.906C306.203 104.707 306.326 104.448 306.448 104.188C306.647 103.775 306.861 103.316 306.785 102.811C306.708 102.307 306.372 101.924 306.066 101.588C305.882 101.374 305.684 101.16 305.607 100.976C305.546 100.793 305.561 100.502 305.577 100.227C305.607 99.7832 305.638 99.2633 305.378 98.8198C305.118 98.3763 304.659 98.1469 304.246 97.9481C303.971 97.8105 303.726 97.6881 303.588 97.5352C303.405 97.3211 303.068 97.2905 302.839 97.474C302.61 97.6575 302.594 97.9787 302.778 98.2081C303.053 98.5139 303.42 98.7127 303.757 98.8809C304.047 99.0339 304.353 99.1715 304.445 99.355C304.552 99.5385 304.521 99.8597 304.506 100.181C304.475 100.548 304.46 100.945 304.582 101.328C304.72 101.71 304.995 102.016 305.24 102.291C305.454 102.536 305.684 102.781 305.714 102.979C305.745 103.178 305.592 103.484 305.454 103.775C305.301 104.111 305.118 104.478 305.102 104.876C305.087 105.273 305.225 105.656 305.347 106.007C305.454 106.313 305.576 106.619 305.531 106.818C305.485 107.017 305.24 107.231 304.995 107.46C304.72 107.705 304.414 107.995 304.246 108.362C304.124 108.622 304.246 108.928 304.521 109.051C304.598 109.051 304.674 109.066 304.751 109.066Z" fill="black"/>
<path d="M308.184 110.567C308.383 110.567 308.582 110.46 308.674 110.262C308.811 109.971 309.056 109.68 309.316 109.375C309.698 108.931 310.096 108.472 310.249 107.876C310.402 107.264 310.249 106.653 310.111 106.117C310.02 105.735 309.928 105.383 309.943 105.077C309.958 104.756 310.081 104.404 310.203 104.037C310.402 103.487 310.601 102.921 310.509 102.309C310.417 101.698 310.065 101.208 309.729 100.719C309.5 100.398 309.285 100.092 309.178 99.8014C309.071 99.5108 309.056 99.1438 309.041 98.7462C309.01 98.1956 308.98 97.5533 308.674 97.0181C308.368 96.4828 307.848 96.1464 307.359 95.8253C307.022 95.6112 306.701 95.3971 306.487 95.1524C306.303 94.9383 305.967 94.9077 305.738 95.0912C305.508 95.2747 305.493 95.5959 305.676 95.8253C305.982 96.177 306.38 96.437 306.777 96.6969C307.19 96.9569 307.573 97.2169 307.756 97.538C307.94 97.8592 307.97 98.318 307.986 98.8073C308.001 99.2508 308.031 99.7096 308.184 100.138C308.337 100.581 308.613 100.948 308.873 101.315C309.163 101.713 309.423 102.08 309.484 102.447C309.545 102.814 309.392 103.242 309.224 103.701C309.071 104.129 308.918 104.557 308.903 105.031C308.888 105.49 308.995 105.934 309.102 106.362C309.224 106.836 309.331 107.28 309.24 107.647C309.148 107.998 308.857 108.35 308.536 108.717C308.246 109.053 307.924 109.421 307.741 109.849C307.619 110.109 307.741 110.415 308.016 110.537C308.047 110.552 308.123 110.567 308.184 110.567Z" fill="black"/>
<path d="M311.652 112.064C311.851 112.064 312.05 111.957 312.142 111.758C312.325 111.376 312.6 110.994 312.891 110.611C313.319 110.045 313.763 109.449 313.946 108.73C314.13 107.996 313.992 107.262 313.87 106.559C313.793 106.085 313.717 105.641 313.732 105.228C313.747 104.815 313.87 104.372 313.992 103.898C314.176 103.21 314.374 102.491 314.267 101.757C314.16 101.023 313.778 100.396 313.396 99.784C313.136 99.3711 312.906 98.9888 312.769 98.5912C312.631 98.1936 312.585 97.7501 312.524 97.276C312.432 96.5726 312.356 95.8385 311.973 95.1809C311.606 94.5386 311.01 94.0951 310.429 93.667C310.031 93.3764 309.664 93.0858 309.374 92.7647C309.19 92.5506 308.854 92.52 308.624 92.7035C308.395 92.887 308.38 93.2082 308.563 93.4376C308.915 93.8505 309.358 94.1716 309.771 94.4927C310.291 94.8751 310.78 95.2421 311.04 95.7009C311.316 96.175 311.392 96.7714 311.469 97.4137C311.53 97.9183 311.591 98.4383 311.759 98.9429C311.928 99.4476 312.218 99.9064 312.493 100.335C312.83 100.885 313.151 101.39 313.227 101.925C313.304 102.46 313.151 103.041 312.983 103.653C312.845 104.158 312.707 104.662 312.692 105.198C312.662 105.718 312.753 106.238 312.845 106.742C312.952 107.369 313.059 107.966 312.937 108.501C312.815 109.021 312.447 109.495 312.065 110.015C311.744 110.428 311.423 110.871 311.209 111.345C311.086 111.605 311.209 111.911 311.484 112.034C311.499 112.049 311.576 112.064 311.652 112.064Z" fill="black"/>
<path d="M290.692 106.957C288.566 106.926 287.129 103.73 286.976 103.378C286.9 103.21 286.93 103.011 287.037 102.874C287.144 102.721 287.328 102.644 287.511 102.66L293.521 103.225C293.69 103.241 293.843 103.333 293.934 103.485C294.026 103.638 294.026 103.807 293.95 103.96C293.001 105.948 291.916 106.957 290.707 106.957C290.707 106.957 290.707 106.957 290.692 106.957ZM288.368 103.776C288.903 104.709 289.805 105.902 290.707 105.917C291.334 105.917 292.007 105.336 292.665 104.174L288.368 103.776Z" fill="black"/>
<path d="M270.8 76.0045C270.831 76.0045 270.846 76.0045 270.877 76.0045C278.737 74.9187 278.416 69.1534 278.416 69.0922C278.401 68.8017 278.141 68.5876 277.85 68.6181C277.56 68.6334 277.33 68.8781 277.361 69.1687C277.376 69.3675 277.59 74.0318 270.739 74.9799C270.449 75.0258 270.25 75.2858 270.296 75.561C270.311 75.821 270.54 76.0045 270.8 76.0045Z" fill="black"/>
<path d="M276.208 75.5281H276.224C279.619 75.3904 280.506 73.1271 280.551 73.0354C280.658 72.7601 280.505 72.4695 280.23 72.3778C279.955 72.286 279.649 72.4084 279.557 72.6836C279.527 72.7601 278.839 74.3964 276.193 74.5035C275.902 74.5188 275.673 74.7482 275.688 75.0387C275.688 75.314 275.918 75.5281 276.208 75.5281Z" fill="black"/>
<path d="M274.926 99.4C274.941 99.4 274.957 99.4 274.957 99.4C275.247 99.3847 275.477 99.14 275.446 98.8495C275.293 96.6932 274.33 94.8887 272.816 93.8793C271.837 93.237 270.782 93.0382 269.91 93.3135C269.635 93.4053 269.482 93.6958 269.574 93.9711C269.665 94.2464 269.971 94.384 270.246 94.3075C270.797 94.124 271.546 94.2922 272.235 94.751C272.831 95.1333 274.223 96.3262 274.406 98.9259C274.421 99.2012 274.651 99.4 274.926 99.4Z" fill="black"/>
<path d="M14.3302 228.853H30.4181C32.605 228.853 34.6848 227.124 35.0824 224.999L42.79 182.454C43.1723 180.329 41.7195 178.601 39.5326 178.601H23.4446C21.2578 178.601 19.178 180.329 18.7804 182.454L11.0728 224.999C10.6752 227.124 12.1433 228.853 14.3302 228.853Z" fill="#D8E5F3"/>
<path d="M30.4124 229.372H14.3244C13.1163 229.372 12.0611 228.914 11.3423 228.073C10.6083 227.216 10.333 226.1 10.5471 224.907L18.2394 182.363C18.6676 180.007 20.9921 178.081 23.4236 178.081H39.5116C40.7197 178.081 41.7749 178.539 42.4936 179.38C43.2277 180.237 43.503 181.353 43.2889 182.546L35.5813 225.09C35.1684 227.446 32.8439 229.372 30.4124 229.372ZM23.4236 179.12C21.4815 179.12 19.631 180.665 19.2946 182.546L11.587 225.09C11.4188 225.977 11.6329 226.803 12.1529 227.415C12.6728 228.011 13.4375 228.333 14.3244 228.333H30.4124C32.3546 228.333 34.205 226.788 34.5414 224.907L42.249 182.363C42.4172 181.476 42.2031 180.65 41.6831 180.038C41.1632 179.442 40.3986 179.12 39.5116 179.12H23.4236Z" fill="#D8E5F3"/>
<path d="M38.2336 200.177C38.203 200.177 38.1725 200.177 38.1266 200.162C37.836 200.101 37.6525 199.841 37.6984 199.55L39.7782 188.922C39.8394 188.647 40.1147 188.463 40.4052 188.509C40.6958 188.57 40.8793 188.83 40.8334 189.121L38.7536 199.749C38.7077 200.009 38.4783 200.177 38.2336 200.177Z" fill="black"/>
<path d="M10.3528 228.853H26.4407C28.6276 228.853 30.7074 227.124 31.105 224.999L38.8125 182.454C39.1948 180.329 37.742 178.601 35.5552 178.601H19.4519C17.265 178.601 15.1852 180.329 14.7876 182.454L7.08008 224.999C6.69777 227.124 8.16589 228.853 10.3528 228.853Z" fill="#4666C9"/>
<path d="M26.4436 229.372H10.3557C9.14757 229.372 8.09235 228.914 7.37359 228.073C6.63954 227.216 6.36429 226.1 6.57839 224.907L14.2859 182.363C14.7141 180.007 17.0386 178.081 19.4702 178.081H35.5581C36.7662 178.081 37.8214 178.539 38.5402 179.38C39.2743 180.237 39.5495 181.353 39.3354 182.546L31.6279 225.09C31.1997 227.446 28.8752 229.372 26.4436 229.372ZM19.4548 179.12C17.5127 179.12 15.6623 180.665 15.3258 182.546L7.61828 225.09C7.45006 225.977 7.66416 226.803 8.18411 227.415C8.70406 228.011 9.46872 228.333 10.3557 228.333H26.4436C28.3858 228.333 30.2363 226.788 30.5727 224.907L38.2802 182.363C38.4484 181.476 38.2343 180.65 37.7144 180.038C37.1944 179.442 36.4298 179.12 35.5428 179.12H19.4548Z" fill="black"/>
<path d="M30.4534 182.119H23.4493C23.1588 182.119 22.9141 181.89 22.9141 181.599C22.9141 181.308 23.1588 181.079 23.4493 181.079H30.4534C30.7439 181.079 30.9886 181.308 30.9886 181.599C30.9886 181.89 30.7439 182.119 30.4534 182.119Z" fill="white"/>
<path d="M7.8125 220.976H31.8221L38.398 184.687H14.3884L7.8125 220.976Z" fill="white"/>
<path d="M31.822 221.496H7.81238C7.65946 221.496 7.50655 221.435 7.3995 221.313C7.29245 221.19 7.26184 221.037 7.27713 220.884L13.853 184.595C13.8989 184.35 14.113 184.167 14.373 184.167H38.3826C38.5355 184.167 38.6884 184.228 38.7955 184.35C38.9025 184.472 38.9331 184.625 38.9178 184.778L32.3419 221.068C32.2961 221.313 32.082 221.496 31.822 221.496ZM8.43939 220.456H31.3632L37.7403 185.206H14.8164L8.43939 220.456Z" fill="black"/>
<path d="M18.4553 197.944C18.3788 197.944 18.2871 197.929 18.2106 197.883L5.04358 191.276C4.7836 191.139 4.67656 190.833 4.8142 190.573C4.95183 190.313 5.27298 190.221 5.53296 190.344L18.7153 196.95C18.9753 197.088 19.0823 197.394 18.9447 197.654C18.8376 197.837 18.6388 197.944 18.4553 197.944Z" fill="white"/>
<path d="M14.3784 203.36C14.3325 203.36 14.2866 203.36 14.2408 203.344L0.385496 199.644C0.110227 199.567 -0.0579784 199.277 0.0184853 199.001C0.094949 198.726 0.3855 198.558 0.676062 198.634L14.5313 202.335C14.8065 202.412 14.9748 202.702 14.8983 202.977C14.8372 203.207 14.6231 203.36 14.3784 203.36Z" fill="white"/>
<path d="M14.9257 210.241H0.535255C0.244693 210.241 0 210.011 0 209.721C0 209.43 0.244693 209.201 0.535255 209.201H14.9257C15.2163 209.201 15.461 209.43 15.461 209.721C15.461 210.011 15.2163 210.241 14.9257 210.241Z" fill="white"/>
<path d="M18.4553 196.998C18.3788 196.998 18.2871 196.983 18.2106 196.937L5.04358 190.331C4.7836 190.193 4.67656 189.887 4.8142 189.627C4.95183 189.367 5.27298 189.275 5.53296 189.398L18.7153 196.004C18.9753 196.142 19.0823 196.448 18.9447 196.708C18.8376 196.891 18.6388 196.998 18.4553 196.998Z" fill="#F57A3E"/>
<path d="M14.3784 202.428C14.3325 202.428 14.2866 202.428 14.2408 202.412L0.385496 198.711C0.110227 198.635 -0.0579784 198.344 0.0184853 198.069C0.094949 197.794 0.3855 197.626 0.676062 197.702L14.5313 201.403C14.8065 201.479 14.9748 201.77 14.8983 202.045C14.8372 202.275 14.6231 202.428 14.3784 202.428Z" fill="#F57A3E"/>
<path d="M14.9257 209.295H0.535255C0.244693 209.295 0 209.065 0 208.775C0 208.484 0.244693 208.255 0.535255 208.255H14.9257C15.2163 208.255 15.461 208.484 15.461 208.775C15.461 209.065 15.2163 209.295 14.9257 209.295Z" fill="#F57A3E"/>
<path d="M165.593 44.4799C165.593 44.4799 184.939 46.9114 186.162 48.2878C187.386 49.6641 198.809 65.8132 200.782 69.0094C202.755 72.2056 195.292 72.0527 191.484 66.7308C192.86 70.8445 184.939 69.3 179.907 63.3817C179.632 66.7308 176.925 66.9908 172.276 63.3358C168.942 60.7207 165.012 55.98 165.012 55.98C165.012 55.98 148.19 55.9035 142.333 50.704C136.461 45.5045 143.954 42.6447 165.593 44.4799Z" fill="white"/>
<path d="M199.16 71.6725C198.334 71.6725 197.37 71.489 196.376 71.1219C194.755 70.5255 193.272 69.5315 192.064 68.2775C191.865 68.8128 191.483 69.1033 191.253 69.2257C188.806 70.602 183.515 67.8952 180.243 64.5461C179.921 65.586 179.31 66.0753 178.805 66.3047C177.26 66.9776 174.951 66.1212 171.939 63.7661C168.941 61.4111 165.531 57.4502 164.751 56.5174C163.757 56.5021 160.026 56.395 155.789 55.8292C149.122 54.9269 144.473 53.3365 141.965 51.1191C140.145 49.5133 139.503 48.0452 140.038 46.7759C141.735 42.7998 154.887 43.0445 165.638 43.962H165.653C170.241 44.5432 185.304 46.5312 186.558 47.9535C187.843 49.391 199.358 65.7236 201.239 68.7516C202.188 70.2809 201.255 71.0608 200.949 71.2596C200.505 71.5349 199.894 71.6725 199.16 71.6725ZM191.483 66.1824C191.651 66.1824 191.819 66.2589 191.926 66.4118C194.694 70.2961 199.251 71.0608 200.352 70.342C200.475 70.2656 200.781 70.0515 200.322 69.3021C198.242 65.953 186.864 49.9109 185.748 48.6569C184.907 47.877 174.814 46.1948 165.531 45.0325C144.427 43.2433 141.445 46.2407 141.032 47.2041C140.604 48.1981 141.69 49.4369 142.684 50.3085C148.342 55.3093 164.843 55.4469 165.011 55.4469C165.179 55.4469 165.317 55.5234 165.424 55.6457C165.47 55.6916 169.354 60.3865 172.596 62.925C175.165 64.9284 177.26 65.8001 178.362 65.326C178.943 65.066 179.279 64.4084 179.371 63.3532C179.386 63.1391 179.539 62.9556 179.738 62.8792C179.952 62.818 180.181 62.8792 180.319 63.0474C183.974 67.3294 189.143 69.1951 190.718 68.3081C190.871 68.2163 191.314 67.9717 190.978 66.9165C190.886 66.6565 191.009 66.3812 191.253 66.2589C191.314 66.1977 191.406 66.1824 191.483 66.1824Z" fill="black"/>
<path d="M174.047 48.521C174.047 48.521 182.29 50.1114 191.496 66.7193L174.047 48.521Z" fill="white"/>
<path d="M191.491 67.2694C191.308 67.2694 191.109 67.1623 191.017 66.9941C182.041 50.7991 174.012 49.071 173.935 49.0557C173.645 48.9945 173.446 48.7193 173.507 48.4134C173.568 48.1229 173.844 47.924 174.149 47.9852C174.501 48.0464 182.744 49.8203 191.981 66.4588C192.134 66.7188 192.027 67.0553 191.767 67.1929C191.675 67.2388 191.583 67.2694 191.491 67.2694Z" fill="black"/>
<path d="M165.977 50.6909C165.977 50.6909 172.522 52.159 179.908 63.3686L165.977 50.6909Z" fill="white"/>
<path d="M179.912 63.9186C179.728 63.9186 179.56 63.8269 179.453 63.6739C175.706 58.0003 172.204 54.9265 169.926 53.336C167.464 51.6233 165.858 51.2409 165.843 51.2256C165.552 51.1645 165.369 50.8739 165.43 50.5834C165.491 50.2928 165.781 50.1093 166.072 50.1704C166.347 50.2316 172.908 51.8221 180.34 63.0775C180.508 63.3222 180.432 63.6586 180.187 63.8269C180.126 63.888 180.019 63.9186 179.912 63.9186Z" fill="black"/>
<path d="M178.183 136.497C200.049 136.497 217.776 118.77 217.776 96.9039C217.776 75.0374 200.049 57.311 178.183 57.311C156.316 57.311 138.59 75.0374 138.59 96.9039C138.59 118.77 156.316 136.497 178.183 136.497Z" fill="#F57A3E"/>
<path d="M217.756 97.4418C217.45 97.4418 217.221 97.1971 217.221 96.9065C217.221 90.0401 215.416 83.296 212.006 77.393C208.688 71.6582 203.947 66.8257 198.258 63.4154C197.998 63.2625 197.921 62.926 198.074 62.6661C198.227 62.4061 198.564 62.3296 198.824 62.4825C204.65 65.9846 209.544 70.9547 212.939 76.8424C216.456 82.9137 218.307 89.8565 218.307 96.9065C218.307 97.1971 218.062 97.4418 217.756 97.4418Z" fill="white"/>
<path d="M178.172 129.266C160.325 129.266 145.797 114.737 145.797 96.8908C145.797 79.0442 160.325 64.5161 178.172 64.5161C196.018 64.5161 210.546 79.0442 210.546 96.8908C210.546 114.753 196.018 129.266 178.172 129.266ZM178.172 65.6172C160.921 65.6172 146.883 79.6559 146.883 96.9061C146.883 114.156 160.921 128.195 178.172 128.195C195.422 128.195 209.461 114.156 209.461 96.9061C209.461 79.6406 195.422 65.6172 178.172 65.6172Z" fill="black"/>
<path d="M122.949 1.70768C122.949 1.70768 128.209 16.771 140.994 27.2771C153.794 37.7832 159.04 38.3491 162.465 39.4349C165.891 40.5206 187.821 42.1264 190.573 43.4874C194.396 45.3837 199.642 52.6172 207.839 60.2483C210.882 63.0927 206.569 66.1054 200.666 62.3587C194.993 58.7496 187.377 51.7149 187.377 51.7149C187.377 51.7149 135.856 67.0688 129.999 50.0939C126.221 39.1596 119.753 23.6069 91.6445 1.69238H122.949V1.70768Z" fill="white"/>
<path d="M138.08 58.2777C138.034 58.2777 137.988 58.2777 137.942 58.2624C137.728 58.2013 132.529 56.7179 129.516 50.3255C129.027 49.3009 128.552 48.2304 128.033 47.0987C125.02 40.4464 121.258 32.1577 112.495 21.9116C112.296 21.6822 112.327 21.3458 112.556 21.147C112.786 20.9482 113.122 20.9787 113.321 21.2081C122.191 31.5766 125.983 39.9264 129.027 46.6553C129.531 47.7869 130.021 48.8421 130.495 49.8667C133.293 55.785 138.187 57.2072 138.233 57.2225C138.523 57.299 138.692 57.6049 138.615 57.8954C138.539 58.1248 138.325 58.2777 138.08 58.2777Z" fill="black"/>
<path d="M205.737 64.6087C204.04 64.6087 202.052 63.9052 200.369 62.8347C195.17 59.5315 188.487 52.7262 187.187 51.3805L165.12 56.5035C164.829 56.5647 164.538 56.3965 164.462 56.0906C164.401 55.8001 164.569 55.5095 164.875 55.4331L187.233 50.2335C187.416 50.1876 187.615 50.2488 187.753 50.3864C187.829 50.4629 195.399 58.3693 200.951 61.9019C204.453 64.1193 207.129 63.6758 207.924 62.6359C208.367 62.0548 208.199 61.3208 207.465 60.6479C204.101 57.5587 201.18 54.439 198.611 51.671C195.216 48.0314 192.524 45.141 190.322 43.9635C188.9 43.1989 180.886 42.3119 174.463 41.6084C168.775 40.9814 163.866 40.4462 162.306 39.9415C161.908 39.8192 161.495 39.6968 161.036 39.5745C157.458 38.5652 152.029 37.0359 140.651 27.6767C136.583 24.3429 132.852 20.1986 129.579 15.3814C129.411 15.1367 129.472 14.8002 129.717 14.632C129.962 14.4638 130.298 14.525 130.466 14.7697C133.693 19.4951 137.348 23.563 141.339 26.8356C152.549 36.0419 157.84 37.5406 161.327 38.5193C161.786 38.6569 162.229 38.7793 162.627 38.9016C164.08 39.3604 169.172 39.9262 174.571 40.5226C181.773 41.3179 189.221 42.1437 190.827 43.0001C193.197 44.2694 195.934 47.2056 199.406 50.9217C201.96 53.6591 204.865 56.7788 208.199 59.8374C209.362 60.8926 209.591 62.2536 208.796 63.2935C208.092 64.2111 206.991 64.6087 205.737 64.6087Z" fill="black"/>
<path d="M131.157 52.5871C125.315 40.8729 143.605 34.2205 149.034 45.4454C152.857 53.3365 162.461 59.2853 168.777 62.2827C176.882 66.1212 179.13 75.9391 172.218 72.3147C164.74 68.3845 137.198 64.699 131.157 52.5871Z" fill="white"/>
<path d="M174.746 73.6435C173.982 73.6435 173.064 73.3529 171.978 72.7871C169.99 71.7472 166.381 70.799 162.222 69.7133C150.553 66.6547 134.557 62.4798 129.725 50.9032C129.602 50.6279 129.74 50.3068 130.015 50.1997C130.29 50.0774 130.612 50.215 130.719 50.4903C135.352 61.5775 151.027 65.676 162.482 68.6734C166.718 69.7744 170.373 70.7379 172.468 71.8389C173.798 72.5424 174.853 72.7412 175.373 72.4048C175.756 72.1601 175.802 71.5943 175.771 71.1661C175.633 69.1015 173.232 65.0031 168.538 62.7704C162.39 59.8647 153.199 54.1452 153.123 50.3374C153.123 50.0315 153.352 49.7868 153.658 49.7868C153.948 49.7715 154.208 50.0162 154.208 50.3221C154.269 53.1053 161.931 58.4578 168.996 61.8069C173.661 64.0244 176.658 68.2757 176.857 71.1049C176.933 72.1142 176.612 72.9094 175.97 73.3223C175.633 73.5364 175.221 73.6435 174.746 73.6435Z" fill="black"/>
<path d="M181.696 109.261H164.981C162.304 109.261 160.133 107.089 160.133 104.413V88.3864C160.133 85.7101 162.304 83.5386 164.981 83.5386H181.696C184.372 83.5386 186.543 85.7101 186.543 88.3864V104.413C186.543 107.089 184.372 109.261 181.696 109.261Z" fill="white"/>
<path d="M200.576 106.128L189.336 100.378V92.441L200.576 86.6909V106.128Z" fill="white"/>
<path d="M322.636 281.721H99.163C95.7527 281.721 93 278.953 93 275.558C93 272.148 95.768 269.396 99.163 269.396H322.636C326.046 269.396 328.799 272.163 328.799 275.558C328.799 278.953 326.046 281.721 322.636 281.721Z" fill="#8ABAE7"/>
<path d="M146.903 281.721H99.1747C95.7644 281.721 93.0117 278.953 93.0117 275.558C93.0117 272.148 95.7797 269.396 99.1747 269.396H146.903C150.314 269.396 153.066 272.163 153.066 275.558C153.066 278.953 150.298 281.721 146.903 281.721Z" fill="#4666C9"/>
<path d="M322.632 282.256H99.1588C95.458 282.256 92.4453 279.243 92.4453 275.542C92.4453 271.841 95.458 268.829 99.1588 268.829H322.632C326.332 268.829 329.345 271.841 329.345 275.542C329.345 279.243 326.332 282.256 322.632 282.256ZM99.1588 269.914C96.0544 269.914 93.5311 272.438 93.5311 275.542C93.5311 278.647 96.0544 281.17 99.1588 281.17H322.632C325.736 281.17 328.259 278.647 328.259 275.542C328.259 272.438 325.736 269.914 322.632 269.914H99.1588Z" fill="black"/>
<path d="M257.476 269.377H85.5243C82.1294 269.377 78.9179 266.624 78.3368 263.229L54.1131 118.56C53.5473 115.165 55.8411 112.412 59.2361 112.412H231.188C234.583 112.412 237.794 115.165 238.375 118.56L262.599 263.229C263.165 266.624 260.871 269.377 257.476 269.377Z" fill="#4666C9"/>
<path d="M257.471 269.913H85.5192C81.8795 269.913 78.4081 266.946 77.7964 263.307L53.5727 118.637C53.2668 116.818 53.695 115.105 54.7961 113.82C55.8666 112.551 57.4417 111.863 59.231 111.863H231.183C234.822 111.863 238.294 114.83 238.89 118.469L263.114 263.139C263.42 264.958 262.991 266.671 261.89 267.956C260.835 269.225 259.26 269.913 257.471 269.913ZM59.231 112.949C57.7629 112.949 56.4783 113.514 55.6219 114.524C54.7349 115.564 54.3985 116.971 54.6432 118.469L78.8669 263.139C79.3869 266.274 82.3689 268.843 85.5192 268.843H257.471C258.939 268.843 260.223 268.277 261.08 267.268C261.967 266.228 262.303 264.821 262.059 263.322L237.835 118.653C237.315 115.518 234.333 112.949 231.183 112.949H59.231Z" fill="#4666C9"/>
<path d="M260.628 269.377H88.6767C85.2817 269.377 82.0703 266.624 81.4891 263.229L57.2654 118.56C56.6996 115.165 58.9935 112.412 62.3885 112.412H234.34C237.735 112.412 240.947 115.165 241.528 118.56L265.751 263.229C266.317 266.624 264.023 269.377 260.628 269.377Z" fill="#8ABAE7"/>
<path d="M260.627 269.913H88.6758C85.0361 269.913 81.5647 266.946 80.9683 263.307L56.7446 118.637C56.4387 116.818 56.8669 115.105 57.968 113.82C59.0385 112.551 60.6136 111.863 62.4029 111.863H234.339C237.979 111.863 241.45 114.83 242.047 118.469L266.27 263.139C266.576 264.958 266.148 266.671 265.047 267.956C263.992 269.225 262.417 269.913 260.627 269.913ZM62.3876 112.949C60.9195 112.949 59.6349 113.514 58.7785 114.524C57.8915 115.564 57.5551 116.971 57.7997 118.469L82.0235 263.139C82.5434 266.274 85.5255 268.843 88.6758 268.843H260.627C262.095 268.843 263.38 268.277 264.236 267.268C265.123 266.228 265.46 264.821 265.215 263.322L240.991 118.653C240.472 115.518 237.489 112.949 234.339 112.949H62.3876Z" fill="black"/>
<path d="M256.808 260.521H90.5149L65.8477 120.577H232.141L256.808 260.521Z" fill="white"/>
<path d="M122.301 196.98H79.3283L67.1094 127.689H110.097L122.301 196.98Z" fill="#D8E5F3"/>
<path d="M256.8 260.522H133.495L122.285 196.981H245.591L256.8 260.522Z" fill="#D8E5F3"/>
<path d="M233.399 128.239H67.1056C66.7997 128.239 66.5703 127.995 66.5703 127.704C66.5703 127.398 66.815 127.169 67.1056 127.169H233.399C233.705 127.169 233.934 127.414 233.934 127.704C233.934 127.995 233.689 128.239 233.399 128.239Z" fill="black"/>
<path d="M133.502 261.056C133.242 261.056 133.013 260.872 132.967 260.612L109.538 127.78C109.492 127.489 109.676 127.198 109.982 127.153C110.272 127.107 110.563 127.29 110.609 127.596L134.037 260.429C134.083 260.719 133.9 261.01 133.594 261.056C133.563 261.056 133.533 261.056 133.502 261.056Z" fill="black"/>
<path d="M194.376 256.589C194.116 256.589 193.886 256.406 193.841 256.146L184.023 200.434C183.977 200.144 184.16 199.853 184.466 199.807C184.757 199.761 185.047 199.945 185.093 200.251L194.911 255.962C194.957 256.253 194.773 256.543 194.468 256.589C194.437 256.589 194.406 256.589 194.376 256.589Z" fill="black"/>
<path d="M245.602 197.513H122.297C121.991 197.513 121.762 197.269 121.762 196.978C121.762 196.688 122.006 196.443 122.297 196.443H245.602C245.908 196.443 246.138 196.688 246.138 196.978C246.138 197.269 245.908 197.513 245.602 197.513Z" fill="black"/>
<path d="M181.58 210.222H172.603L171.762 205.481H180.739L181.58 210.222Z" fill="#8ABAE7"/>
<path d="M183.416 220.684H166.747L165.906 215.928H182.575L183.416 220.684Z" fill="#8ABAE7"/>
<path d="M185.274 231.13H157.349L156.523 226.374H184.433L185.274 231.13Z" fill="#8ABAE7"/>
<path d="M187.102 241.571H163.322L162.48 236.815H186.261L187.102 241.571Z" fill="#8ABAE7"/>
<path d="M188.958 252.017H169.689L168.848 247.261H188.116L188.958 252.017Z" fill="#8ABAE7"/>
<path d="M210 210.222H191.404L190.562 205.481H209.158L210 210.222Z" fill="#8ABAE7"/>
<path d="M224.2 220.684H193.247L192.406 215.928H223.359L224.2 220.684Z" fill="#8ABAE7"/>
<path d="M205.505 231.13H195.091L194.25 226.374H204.664L205.505 231.13Z" fill="#8ABAE7"/>
<path d="M210.572 241.571H196.915L196.074 236.815H209.731L210.572 241.571Z" fill="#8ABAE7"/>
<path d="M204.831 252.017H198.775L197.934 247.261H204.005L204.831 252.017Z" fill="#8ABAE7"/>
<path d="M116.385 202.425H87.1303L85.0352 190.542H114.29L116.385 202.425Z" fill="#4666C9"/>
<path d="M115.828 210.774H90.4571C90.1513 210.774 89.9219 210.529 89.9219 210.238C89.9219 209.948 90.1666 209.703 90.4571 209.703H115.828C116.134 209.703 116.363 209.948 116.363 210.238C116.363 210.529 116.134 210.774 115.828 210.774Z" fill="black"/>
<path d="M117.199 218.576H91.8282C91.5224 218.576 91.293 218.332 91.293 218.041C91.293 217.735 91.5377 217.506 91.8282 217.506H117.199C117.505 217.506 117.734 217.751 117.734 218.041C117.749 218.332 117.505 218.576 117.199 218.576Z" fill="black"/>
<path d="M118.586 226.387H93.2149C92.909 226.387 92.6797 226.143 92.6797 225.852C92.6797 225.546 92.9243 225.317 93.2149 225.317H118.586C118.891 225.317 119.121 225.562 119.121 225.852C119.136 226.143 118.891 226.387 118.586 226.387Z" fill="black"/>
<path d="M119.964 234.186H94.5938C94.288 234.186 94.0586 233.941 94.0586 233.65C94.0586 233.36 94.3033 233.115 94.5938 233.115H119.964C120.27 233.115 120.5 233.36 120.5 233.65C120.5 233.941 120.27 234.186 119.964 234.186Z" fill="black"/>
<path d="M121.336 241.984H95.9649C95.6591 241.984 95.4297 241.739 95.4297 241.449C95.4297 241.143 95.6744 240.914 95.9649 240.914H121.336C121.641 240.914 121.871 241.158 121.871 241.449C121.886 241.739 121.641 241.984 121.336 241.984Z" fill="black"/>
<path d="M122.707 249.802H97.336C97.0302 249.802 96.8008 249.557 96.8008 249.267C96.8008 248.976 97.0455 248.731 97.336 248.731H122.707C123.013 248.731 123.242 248.976 123.242 249.267C123.242 249.557 123.013 249.802 122.707 249.802Z" fill="black"/>
<path d="M97.5481 142.874H78.6004L77.4688 136.482H96.4164L97.5481 142.874Z" fill="#8ABAE7"/>
<path d="M99.5755 154.388H80.6125L79.4961 147.996H98.4438L99.5755 154.388Z" fill="#8ABAE7"/>
<path d="M101.599 165.907H82.6356L81.5039 159.514H100.467L101.599 165.907Z" fill="#8ABAE7"/>
<path d="M103.626 177.42H84.6785L83.5469 171.013H102.51L103.626 177.42Z" fill="#8ABAE7"/>
<path d="M113.075 184.164H85.7618C85.456 184.164 85.2266 183.92 85.2266 183.629C85.2266 183.323 85.4713 183.094 85.7618 183.094H113.075C113.381 183.094 113.61 183.338 113.61 183.629C113.625 183.92 113.381 184.164 113.075 184.164Z" fill="black"/>
<path d="M111.421 174.762H93.5899C93.284 174.762 93.0547 174.517 93.0547 174.227C93.0547 173.921 93.2993 173.691 93.5899 173.691H111.421C111.727 173.691 111.956 173.936 111.956 174.227C111.956 174.517 111.727 174.762 111.421 174.762Z" fill="black"/>
<path d="M109.41 163.274H91.5782C91.2724 163.274 91.043 163.029 91.043 162.739C91.043 162.433 91.2877 162.204 91.5782 162.204H109.41C109.715 162.204 109.945 162.448 109.945 162.739C109.945 163.029 109.7 163.274 109.41 163.274Z" fill="black"/>
<path d="M107.378 151.773H89.547C89.2411 151.773 89.0117 151.528 89.0117 151.237C89.0117 150.932 89.2564 150.702 89.547 150.702H107.378C107.684 150.702 107.914 150.947 107.914 151.237C107.914 151.528 107.684 151.773 107.378 151.773Z" fill="black"/>
<path d="M105.347 140.288H87.5157C87.2098 140.288 86.9805 140.043 86.9805 139.753C86.9805 139.447 87.2251 139.217 87.5157 139.217H105.347C105.653 139.217 105.882 139.462 105.882 139.753C105.882 140.043 105.638 140.288 105.347 140.288Z" fill="black"/>
<path d="M190.921 186.32C202.253 179.6 205.123 163.5 197.331 150.358C189.539 137.217 174.035 132.011 162.703 138.731C151.37 145.451 148.5 161.551 156.293 174.692C164.085 187.833 179.588 193.039 190.921 186.32Z" fill="#8ABAE7"/>
<path d="M172.093 135.837C171.19 135.898 170.304 136.02 169.432 136.188C170.258 137.932 170.64 139.859 170.426 141.663C170.135 143.957 169.004 145.945 168.667 148.239C168.346 150.533 169.279 153.546 171.45 154.295C173.515 155.014 175.289 153.301 176.604 151.726C177.919 150.151 179.693 148.453 181.773 149.187C184.388 150.12 185.826 154.54 188.441 154.31C189.588 154.203 190.368 153.117 190.658 151.94C190.949 150.762 190.857 149.478 190.964 148.239C191.086 146.649 191.545 145.135 192.279 143.819C186.758 138.467 179.494 135.332 172.093 135.837Z" fill="#4666C9"/>
<path d="M152.426 164.191C152.778 166.133 153.313 167.999 153.986 169.803C155.378 169.696 156.754 169.482 158.1 169.253C159.843 168.947 161.632 168.595 162.978 167.494C164.324 166.393 165.104 164.344 164.355 162.494C163.391 160.138 160.547 159.19 159.262 156.988C158.069 154.954 158.543 152.462 159.369 150.489C160.21 148.516 161.372 146.65 161.449 144.402C161.495 143.026 161.051 141.65 160.287 140.441C153.956 145.58 150.683 154.45 152.426 164.191Z" fill="#4666C9"/>
<path d="M196.073 171.915C193.993 171.839 191.776 172.802 189.94 171.472C188.641 170.524 188.105 168.795 187.478 167.266C186.867 165.737 185.796 164.055 184.313 163.887C182.065 163.627 180.841 167.006 178.593 166.517C177.217 166.211 176.33 164.59 175.076 163.81C173.822 163.03 172.293 163.198 171.191 163.902C170.075 164.605 169.326 165.783 168.714 167.006C165.931 172.527 165.87 179.623 168.056 186.076C172.247 188.355 176.926 189.517 181.652 189.196C190.858 188.569 197.893 182.452 200.584 173.949C199.284 172.741 197.663 171.976 196.073 171.915Z" fill="#4666C9"/>
<path d="M180.457 190.051C167.046 190.219 154.307 178.918 151.676 164.252C148.97 149.097 158.053 135.991 171.939 135.028C178.668 134.569 185.504 136.985 191.193 141.848C196.882 146.711 200.736 153.44 202.051 160.781C203.366 168.121 201.974 175.202 198.151 180.722C194.328 186.243 188.517 189.531 181.788 190.005C181.344 190.036 180.901 190.051 180.457 190.051ZM173.484 136.603C173.071 136.603 172.643 136.618 172.23 136.649C159.17 137.551 150.606 149.877 153.16 164.145C155.714 178.398 168.407 189.271 181.482 188.369C187.813 187.941 193.273 184.836 196.882 179.637C200.476 174.437 201.791 167.785 200.552 160.873C199.313 153.96 195.689 147.644 190.336 143.072C185.351 138.805 179.402 136.526 173.484 136.603Z" fill="black"/>
<path d="M256.816 261.058C256.556 261.058 256.327 260.874 256.281 260.614L231.69 121.114H65.8556C65.5497 121.114 65.3203 120.869 65.3203 120.579C65.3203 120.273 65.565 120.043 65.8556 120.043H232.149C232.409 120.043 232.638 120.227 232.684 120.487L257.367 260.431C257.412 260.721 257.229 261.012 256.923 261.058C256.877 261.058 256.847 261.058 256.816 261.058Z" fill="black"/>
<path d="M274.704 274.089H210.903C210.72 274.089 210.536 273.997 210.444 273.829L207.845 269.654C207.692 269.394 207.768 269.057 208.013 268.905C208.273 268.752 208.609 268.828 208.762 269.073L211.194 272.988H274.154V269.363C274.154 269.058 274.399 268.828 274.689 268.828C274.98 268.828 275.224 269.073 275.224 269.363V273.538C275.24 273.844 274.995 274.089 274.704 274.089Z" fill="black"/>
<path d="M295.631 238.83C314.319 227.282 320.107 202.77 308.559 184.082C297.01 165.394 272.499 159.606 253.81 171.154C235.122 182.703 229.335 207.215 240.883 225.903C252.432 244.591 276.943 250.379 295.631 238.83Z" fill="#F57A3E"/>
<path d="M237.615 191.095C237.554 191.095 237.478 191.079 237.416 191.064C237.141 190.957 237.004 190.636 237.111 190.361C240.016 182.867 245.063 176.475 251.685 171.856C258.459 167.131 266.427 164.638 274.715 164.638C277.499 164.638 280.282 164.929 282.973 165.479C283.264 165.54 283.448 165.831 283.386 166.122C283.325 166.412 283.035 166.596 282.744 166.534C280.114 165.984 277.407 165.709 274.7 165.709C266.641 165.709 258.887 168.14 252.296 172.728C245.858 177.224 240.949 183.448 238.12 190.743C238.028 190.957 237.829 191.095 237.615 191.095Z" fill="white"/>
<path d="M274.688 237.616C256.674 237.616 242.008 222.966 242.008 204.935C242.008 186.921 256.658 172.255 274.688 172.255C292.703 172.255 307.369 186.905 307.369 204.935C307.354 222.966 292.703 237.616 274.688 237.616ZM274.688 173.356C257.27 173.356 243.094 187.532 243.094 204.951C243.094 222.369 257.27 236.546 274.688 236.546C292.107 236.546 306.283 222.369 306.283 204.951C306.268 187.532 292.107 173.356 274.688 173.356Z" fill="black"/>
<path d="M349.261 190.546C340.009 204.937 327.254 205.992 322.147 207.43C311.059 210.549 307.053 221.988 294.482 228.794C289.604 231.439 293.106 234.284 299.039 233.412C304.392 232.632 319.165 223.013 319.165 223.013C319.165 223.013 307.206 242.159 299.896 244.744C292.586 247.313 281.009 251.58 278.425 255.999C275.84 260.419 279.954 260.572 282.691 259.043C285.429 257.513 292.739 255.999 292.739 255.999C292.739 255.999 305.08 258.584 307.053 257.682C309.025 256.764 312.849 254.332 312.849 254.332C312.849 254.332 318.935 254.179 321.382 253.109C323.814 252.038 346.967 234.375 349.566 230.567C352.151 226.76 354.797 222.095 364.462 212.553L349.261 190.546Z" fill="white"/>
<path d="M279.591 260.435C278.781 260.435 278.062 260.236 277.588 259.747C277.007 259.165 276.609 257.988 277.94 255.709C280.432 251.458 290.342 247.512 299.701 244.224C305.329 242.236 314.015 229.803 317.334 224.803C313.037 227.494 303.341 233.321 299.105 233.948C295.404 234.483 292.284 233.627 291.718 231.899C291.489 231.195 291.489 229.788 294.211 228.32C299.961 225.216 303.83 221.178 307.592 217.263C311.859 212.813 315.896 208.623 321.983 206.91C322.671 206.711 323.466 206.543 324.384 206.329C330.547 204.937 340.869 202.598 348.791 190.256C348.959 190.012 349.296 189.935 349.54 190.088C349.785 190.256 349.861 190.593 349.708 190.838C341.542 203.546 330.531 206.039 324.628 207.369C323.726 207.568 322.946 207.751 322.289 207.935C316.477 209.571 312.731 213.471 308.387 217.997C304.763 221.775 300.649 226.057 294.746 229.253C293.294 230.033 292.544 230.889 292.758 231.547C293.095 232.571 295.557 233.351 298.967 232.862C304.136 232.097 318.725 222.631 318.863 222.539C319.077 222.402 319.352 222.432 319.536 222.601C319.719 222.784 319.75 223.059 319.612 223.273C319.123 224.069 307.47 242.619 300.068 245.219C294.517 247.176 281.503 251.749 278.873 256.229C278.108 257.529 277.924 258.523 278.353 258.967C278.964 259.594 280.861 259.395 282.405 258.523C285.188 256.979 292.315 255.48 292.605 255.419C292.682 255.403 292.758 255.403 292.835 255.419C297.545 256.413 305.497 257.743 306.812 257.132C308.739 256.245 312.501 253.844 312.532 253.813C312.608 253.767 312.715 253.737 312.807 253.721C312.868 253.721 318.817 253.553 321.126 252.544C323.634 251.443 346.65 233.749 349.082 230.186C349.403 229.727 349.709 229.253 350.03 228.764C352.461 225.093 355.504 220.521 364.038 212.094C364.252 211.88 364.588 211.88 364.802 212.094C365.017 212.309 365.017 212.645 364.802 212.859C356.346 221.209 353.348 225.72 350.947 229.36C350.611 229.865 350.305 230.339 349.984 230.797C347.399 234.605 324.231 252.375 321.57 253.538C319.261 254.547 313.969 254.761 312.991 254.792C312.302 255.235 309.076 257.269 307.271 258.095C305.268 259.028 295.052 256.963 292.728 256.474C291.81 256.673 285.403 258.08 282.94 259.441C281.931 260.052 280.692 260.435 279.591 260.435Z" fill="black"/>
<path d="M292.754 255.969C292.754 255.969 307.42 251.183 309.515 249.638C311.61 248.094 321.153 236.823 321.153 236.823L292.754 255.969Z" fill="white"/>
<path d="M292.75 256.52C292.52 256.52 292.306 256.367 292.23 256.153C292.138 255.863 292.291 255.557 292.581 255.465C296.634 254.15 307.522 250.449 309.189 249.21C311.208 247.711 320.644 236.578 320.735 236.471C320.934 236.242 321.271 236.211 321.5 236.41C321.729 236.609 321.76 236.945 321.561 237.175C321.164 237.634 311.942 248.507 309.832 250.082C307.691 251.672 293.53 256.291 292.918 256.49C292.857 256.505 292.811 256.52 292.75 256.52Z" fill="black"/>
<path d="M312.846 254.837C312.693 254.837 312.54 254.776 312.433 254.638C312.234 254.409 312.264 254.072 312.494 253.873L327.343 241.303C327.572 241.104 327.909 241.135 328.108 241.364C328.306 241.593 328.276 241.93 328.047 242.129L313.197 254.699C313.09 254.806 312.968 254.837 312.846 254.837Z" fill="black"/>
<path d="M271.78 196.372L266.152 189.796C263.69 191.906 261.824 194.705 260.57 198.207C264.592 207.291 270.832 214.585 279.289 220.076C283.051 219.494 286.216 218.21 288.801 216.237L283.173 209.661C281.368 211.068 279.258 212.123 276.857 212.842C272.147 210.441 269.012 206.771 267.437 201.831C268.584 199.675 270.036 197.855 271.78 196.372Z" fill="white"/>
</svg>
