<svg width="74" height="63" viewBox="0 0 74 63" fill="none" xmlns="http://www.w3.org/2000/svg">
<path d="M43.8446 0H29.7031V4.13314H43.8446V0Z" fill="white"/>
<path d="M43.8446 58.4316H29.7031V62.5648H43.8446V58.4316Z" fill="white"/>
<path d="M67.4917 5.09033H6.05783C2.71657 5.09033 0 7.8091 0 11.1482V51.4457C0 54.7869 2.71877 57.5035 6.05783 57.5035H67.4917C70.833 57.5035 73.5495 54.7847 73.5495 51.4457V11.1482C73.5517 7.8069 70.833 5.09033 67.4917 5.09033ZM36.7759 6.26934C37.6711 6.26934 38.3992 6.99523 38.3992 7.89268C38.3992 8.79014 37.6733 9.51602 36.7759 9.51602C35.8784 9.51602 35.1525 8.79014 35.1525 7.89268C35.1525 6.99523 35.8784 6.26934 36.7759 6.26934ZM67.9141 51.4457C67.9141 51.6788 67.7249 51.868 67.4917 51.868H6.05783C5.82467 51.868 5.63546 51.6788 5.63546 51.4457V11.1482C5.63546 10.915 5.82467 10.7258 6.05783 10.7258H67.4917C67.7249 10.7258 67.9141 10.915 67.9141 11.1482V51.4457Z" fill="white"/>
</svg>
