<svg width="55" height="76" viewBox="0 0 55 76" fill="none" xmlns="http://www.w3.org/2000/svg">
<path d="M17.7227 14.4583H36.8508C38.3708 14.4583 39.6048 13.2265 39.6048 11.7043V6.22279C39.6048 4.70284 38.373 3.46885 36.8508 3.46885H32.6275C31.8906 3.46885 31.2285 3.03331 30.9272 2.36022C30.3047 0.970039 28.9101 0 27.2868 0C25.6634 0 24.2689 0.970039 23.6464 2.36022C23.345 3.03111 22.6829 3.46885 21.946 3.46885H17.7227C16.2028 3.46885 14.9688 4.70064 14.9688 6.22279V11.7043C14.9709 13.2243 16.2028 14.4583 17.7227 14.4583ZM27.2868 1.00084C28.534 1.00084 29.5458 1.65634 29.5458 2.46361C29.5458 3.27088 28.534 3.92636 27.2868 3.92636C26.0396 3.92636 25.0277 3.27088 25.0277 2.46361C25.0277 1.65634 26.0396 1.00084 27.2868 1.00084Z" fill="white"/>
<path d="M46.1684 6.12158H40.4911C40.4911 6.15458 40.4955 6.18756 40.4955 6.22276V11.4381H46.1662C47.8753 11.4381 49.2677 12.8305 49.2677 14.5396V67.1067C49.2677 68.8159 47.8753 70.2083 46.1662 70.2083H8.42025C6.71113 70.2083 5.31876 68.8159 5.31876 67.1067V14.5396C5.31876 12.8305 6.71113 11.4381 8.42025 11.4381H14.0909V6.22276C14.0909 6.18756 14.0953 6.15458 14.0953 6.12158H8.41805C3.7768 6.12158 0 9.89836 0 14.5396V67.1067C0 71.748 3.7768 75.5248 8.41805 75.5248H46.1662C50.8074 75.5248 54.5842 71.748 54.5842 67.1067V14.5396C54.5864 9.89836 50.8096 6.12158 46.1684 6.12158Z" fill="white"/>
<path d="M43.7586 23.2637H23.7352C23.1831 23.2637 22.7344 23.7124 22.7344 24.2645C22.7344 24.8166 23.1831 25.2653 23.7352 25.2653H43.7586C44.3107 25.2653 44.7594 24.8166 44.7594 24.2645C44.7594 23.7124 44.3129 23.2637 43.7586 23.2637Z" fill="white"/>
<path d="M23.743 30.071H36.8573C37.4094 30.071 37.8582 29.6223 37.8582 29.0702C37.8582 28.5181 37.4094 28.0693 36.8573 28.0693H23.743C23.1909 28.0693 22.7422 28.5181 22.7422 29.0702C22.74 29.6223 23.1887 30.071 23.743 30.071Z" fill="white"/>
<path d="M9.82422 26.6654C9.82422 29.4854 12.1097 31.7708 14.9296 31.7708C17.7495 31.7708 20.035 29.4854 20.035 26.6654C20.035 23.8455 17.7495 21.5601 14.9296 21.5601C12.1097 21.5601 9.82422 23.8455 9.82422 26.6654ZM12.9081 26.9426L14.0849 28.3262C14.6766 26.9932 15.9612 24.3756 17.2612 23.5419L17.8023 24.3844C16.6123 25.1477 15.154 28.3042 14.692 29.4546L14.3841 30.2245L12.1448 27.5893L12.9081 26.9426Z" fill="white"/>
<path d="M43.7586 38.481H23.7352C23.1831 38.481 22.7344 38.9297 22.7344 39.4818C22.7344 40.0339 23.1831 40.4826 23.7352 40.4826H43.7586C44.3107 40.4826 44.7594 40.0339 44.7594 39.4818C44.7594 38.9297 44.3129 38.481 43.7586 38.481Z" fill="white"/>
<path d="M23.743 45.2883H36.8573C37.4094 45.2883 37.8582 44.8396 37.8582 44.2874C37.8582 43.7353 37.4094 43.2866 36.8573 43.2866H23.743C23.1909 43.2866 22.7422 43.7353 22.7422 44.2874C22.74 44.8396 23.1887 45.2883 23.743 45.2883Z" fill="white"/>
<path d="M14.9296 36.7788C12.1097 36.7788 9.82422 39.0642 9.82422 41.8842C9.82422 44.7041 12.1097 46.9896 14.9296 46.9896C17.7495 46.9896 20.035 44.7041 20.035 41.8842C20.035 39.0642 17.7495 36.7788 14.9296 36.7788ZM14.6942 44.6733L14.3863 45.4432L12.147 42.808L12.9103 42.1591L14.0871 43.5427C14.6788 42.2097 15.9634 39.5922 17.2634 38.7585L17.8045 39.601C16.6145 40.3664 15.1562 43.5229 14.6942 44.6733Z" fill="white"/>
<path d="M44.7594 54.6991C44.7594 54.147 44.3107 53.6982 43.7586 53.6982H23.7352C23.1831 53.6982 22.7344 54.147 22.7344 54.6991C22.7344 55.2512 23.1831 55.6999 23.7352 55.6999H43.7586C44.3129 55.6999 44.7594 55.2534 44.7594 54.6991Z" fill="white"/>
<path d="M23.743 58.5039C23.1909 58.5039 22.7422 58.9526 22.7422 59.5048C22.7422 60.0569 23.1909 60.5056 23.743 60.5056H36.8573C37.4094 60.5056 37.8582 60.0569 37.8582 59.5048C37.8582 58.9526 37.4094 58.5039 36.8573 58.5039H23.743Z" fill="white"/>
<path d="M14.9296 51.9946C12.1097 51.9946 9.82422 54.2801 9.82422 57.1C9.82422 59.9199 12.1097 62.2054 14.9296 62.2054C17.7495 62.2054 20.035 59.9199 20.035 57.1C20.035 54.2801 17.7495 51.9946 14.9296 51.9946ZM14.6942 59.8914L14.3863 60.6612L12.147 58.0261L12.9103 57.3772L14.0871 58.7607C14.6788 57.4278 15.9634 54.8102 17.2634 53.9743L17.8045 54.8168C16.6145 55.5822 15.1562 58.7387 14.6942 59.8914Z" fill="white"/>
</svg>
