<svg width="83" height="66" viewBox="0 0 83 66" fill="none" xmlns="http://www.w3.org/2000/svg">
<path d="M55.2749 4.38829C61.4691 4.38829 66.702 12.494 66.702 22.091V25.4499C66.702 35.0448 61.4691 43.1527 55.2749 43.1527H27.6914H26.068L24.8362 44.2085C22.487 46.2234 19.2843 48.2866 16.141 50.1079C16.3412 49.4722 16.5282 48.8233 16.7041 48.1656L17.7952 44.0633L13.7324 42.8359C11.3194 42.1078 9.05378 40.1039 7.35125 37.1938C5.44416 33.9317 4.39269 29.7612 4.39269 25.4499V22.091C4.39269 12.4962 9.62568 4.38829 15.8199 4.38829H55.2749ZM55.2749 0H15.8155C7.08069 0 0 9.88961 0 22.091V25.4499C0 36.0412 5.33857 44.886 12.4588 47.0372C11.5724 50.3675 10.1536 54.0937 7.87474 57.4855C7.44581 58.1234 7.80214 59.0957 8.35425 59.0957C8.42904 59.0957 8.50604 59.0781 8.58742 59.0407C13.2727 56.7883 22.3088 52.158 27.6914 47.5431H55.2749C64.0097 47.5431 71.0904 37.6535 71.0904 25.4521V22.0932C71.0904 9.88961 64.0097 0 55.2749 0Z" fill="white"/>
<path d="M72.2791 20.9995C72.2901 21.3625 72.2989 21.7254 72.2989 22.0905V24.4574C75.9833 25.9465 78.7966 31.2455 78.7966 37.3451V39.8703C78.7966 43.1103 78.0069 46.2448 76.5728 48.6974C75.2948 50.8839 73.59 52.3906 71.7775 52.9384L68.7245 53.86L69.5449 56.9439C69.6769 57.4388 69.8177 57.925 69.9672 58.4045C67.6048 57.0363 65.1984 55.4856 63.4321 53.97L62.5061 53.1759H61.2852H40.5514C38.0724 53.1759 35.8001 51.4492 34.2142 48.7458H30.5078C32.6151 53.3893 36.3237 56.4754 40.5514 56.4754H61.283C65.3282 59.9442 72.1185 63.4241 75.6401 65.1156C75.6995 65.1442 75.7589 65.1574 75.8139 65.1574C76.2274 65.1574 76.4958 64.4271 76.1746 63.9476C74.4633 61.4004 73.3943 58.5981 72.73 56.0949C78.0817 54.4781 82.0939 47.8308 82.0939 39.8703V37.3451C82.0939 29.1624 77.8552 22.3677 72.2791 20.9995Z" fill="white"/>
<path d="M53.5144 16.1693H17.5898C16.6286 16.1693 15.8477 15.3906 15.8477 14.4272C15.8477 13.4659 16.6264 12.6851 17.5898 12.6851H53.5144C54.4756 12.6851 55.2565 13.4637 55.2565 14.4272C55.2543 15.3884 54.4756 16.1693 53.5144 16.1693Z" fill="white"/>
<path d="M53.5144 25.3509H17.5898C16.6286 25.3509 15.8477 24.5723 15.8477 23.6088C15.8477 22.6476 16.6264 21.8667 17.5898 21.8667H53.5144C54.4756 21.8667 55.2565 22.6454 55.2565 23.6088C55.2543 24.5723 54.4756 25.3509 53.5144 25.3509Z" fill="white"/>
<path d="M43.9569 34.5345H17.5898C16.6286 34.5345 15.8477 33.7559 15.8477 32.7924C15.8477 31.8312 16.6264 31.0503 17.5898 31.0503H43.9569C44.9182 31.0503 45.699 31.829 45.699 32.7924C45.6968 33.7537 44.9182 34.5345 43.9569 34.5345Z" fill="white"/>
</svg>
