<svg width="72" height="70" viewBox="0 0 72 70" fill="none" xmlns="http://www.w3.org/2000/svg">
<path d="M49.5552 20.1685H22.207V22.9004H49.5552V20.1685Z" fill="white"/>
<path d="M49.5552 28.7163H22.207V31.4483H49.5552V28.7163Z" fill="white"/>
<path d="M70.2215 24.8647L59.5356 16.3104V19.2293L66.999 25.2101C67.5269 25.6302 67.5071 26.4375 66.9638 26.8379L57.8881 32.6163L57.3755 32.9419V13.4684V12.2476V11.6999C57.3755 11.0224 57.127 10.3713 56.6739 9.86538L48.6606 0.915033C48.1392 0.334327 47.3936 0 46.6127 0H46.4103H44.7342H18.7102C16.3214 0 14.3791 1.94227 14.3791 4.33109V29.9811V32.9419L13.8666 32.6163L4.79082 26.8379C4.24531 26.4375 4.22772 25.6302 4.75563 25.2101L10.4813 20.6217L12.219 19.2293V16.3104L10.2877 17.8567L1.53315 24.8647C0.563103 25.639 0 26.8136 0 28.0564V66.0289C0 68.1648 1.73331 69.8959 3.86697 69.8959H67.8833C70.0191 69.8959 71.7524 68.1648 71.7524 66.0289V28.0564C71.7524 26.8136 71.1871 25.639 70.2215 24.8647ZM17.6654 32.9265V29.9811V4.33329C17.6654 3.75698 18.1339 3.28846 18.7102 3.28846H44.7342V9.13508C44.7342 11.5239 46.6787 13.4684 49.0675 13.4684H54.0893V35.0338L36.4833 46.2431C36.1226 46.5071 35.6321 46.5071 35.2713 46.2431L25.4565 39.9961H42.4818V37.2642H22.201V37.9241L17.6632 35.0359V32.9265H17.6654Z" fill="white"/>
</svg>
