<svg width="82" height="69" viewBox="0 0 82 69" fill="none" xmlns="http://www.w3.org/2000/svg">
<path d="M81.0303 26.8863C81.0303 12.0607 68.9697 0 54.1441 0C39.3185 0 27.2578 12.0607 27.2578 26.8863C27.2578 41.7119 39.3185 53.7725 54.1441 53.7725C55.4617 53.7725 56.7573 53.6758 58.0243 53.491L64.599 59.9161C65.3337 60.6332 66.5699 60.1141 66.5699 59.0869V50.7216C75.1573 46.2278 81.0303 37.2312 81.0303 26.8863ZM54.1463 48.5462C42.2044 48.5462 32.4864 38.8303 32.4864 26.8863C32.4864 14.9444 42.2022 5.22635 54.1463 5.22635C66.0904 5.22635 75.8062 14.9422 75.8062 26.8863C75.804 38.8303 66.0882 48.5462 54.1463 48.5462Z" fill="white"/>
<path d="M39.2812 50.9258C35.7508 55.5341 30.1945 58.5124 23.9541 58.5124C13.3144 58.5124 4.65663 49.8546 4.65663 39.2149C4.65663 28.5752 13.3122 19.9174 23.9541 19.9174C24.8846 19.9174 25.7996 19.9856 26.6949 20.1132C27.0754 18.569 27.5836 17.0733 28.2083 15.6391C26.8269 15.3905 25.4059 15.2607 23.9541 15.2607C10.7452 15.2607 0 26.006 0 39.2149C0 48.4314 5.23292 56.4469 12.8811 60.4503V67.9027C12.8811 68.8177 13.9832 69.2819 14.6387 68.6418L20.4963 62.9161C21.6247 63.081 22.7795 63.1668 23.9541 63.1668C32.0048 63.1668 39.1383 59.1745 43.4848 53.0683C42.0176 52.4699 40.612 51.7529 39.2812 50.9258Z" fill="white"/>
<path d="M25.6685 50.6238C25.6685 51.3321 25.4551 51.9348 25.0306 52.4297C24.6061 52.9246 24.0452 53.1732 23.3479 53.1732C22.6506 53.1732 22.0897 52.9136 21.6652 52.3945C21.2627 51.9216 21.0625 51.3321 21.0625 50.6238C21.0625 49.9265 21.2692 49.3436 21.6828 48.8707C22.0963 48.3978 22.6506 48.1624 23.3479 48.1624C24.032 48.1624 24.5907 48.3978 25.0219 48.8707C25.453 49.3414 25.6685 49.9265 25.6685 50.6238ZM25.5981 32.3448C25.5981 35.3319 25.3804 38.066 24.9427 40.545C24.7645 41.4777 24.5357 42.8767 24.252 44.7419C24.2036 45.2017 23.8912 45.4326 23.3127 45.4326C22.9828 45.4326 22.7518 45.4084 22.622 45.3622C22.4328 45.3028 22.3097 45.1269 22.2503 44.8299C21.5288 41.2863 21.1703 39.0273 21.1703 38.0462V28.4998C21.1703 28.04 21.2407 27.8091 21.3836 27.8091C21.597 27.8091 21.9203 27.8377 22.3581 27.8971C22.7958 27.9565 23.1257 27.9851 23.3501 27.9851C23.5745 27.9851 23.9088 27.9565 24.351 27.8971C24.7931 27.8377 25.1208 27.8091 25.3342 27.8091C25.4882 27.8091 25.5652 28.0312 25.5652 28.4734C25.5652 28.9155 25.5717 29.5666 25.5827 30.4223C25.5915 31.2779 25.5981 31.918 25.5981 32.3448Z" fill="white"/>
<path d="M61.606 20.6173C61.606 22.5596 61.0297 24.2797 59.8793 25.7777C59.7319 25.9515 58.6343 27.0491 56.5864 29.0706C55.3546 30.2628 54.6859 31.433 54.5781 32.5856C54.5517 32.8803 54.5253 33.1751 54.4967 33.4699C54.4439 33.6986 54.2481 33.8724 53.9138 33.9912C53.5245 34.1254 53.2231 34.1913 53.0098 34.1913C52.3279 34.1913 51.9254 34.1715 51.8044 34.132C51.4832 34.011 51.3226 33.6898 51.3226 33.1685C51.3226 31.5628 51.5976 30.2826 52.1453 29.3323C53.0296 28.1819 53.905 27.0227 54.7761 25.8591C55.8209 24.4667 56.3422 23.1359 56.3422 21.8623C56.3422 20.6173 55.9837 19.6121 55.2688 18.851C54.5517 18.0877 53.5795 17.7072 52.3477 17.7072C51.3556 17.7072 50.2558 18.0547 49.0438 18.752C47.8318 19.4493 47.2533 19.7969 47.3061 19.7969C46.8904 19.7969 46.6836 18.5123 46.6836 15.9409C46.6836 15.7539 46.8838 15.5185 47.2863 15.237C49.387 13.7786 51.5976 13.0483 53.9138 13.0483C56.1772 13.0483 58.0228 13.7456 59.457 15.1358C60.8911 16.526 61.606 18.3539 61.606 20.6173ZM55.8825 38.8304C55.8825 39.5805 55.6339 40.236 55.139 40.7991C54.6441 41.3622 54.0282 41.6415 53.2913 41.6415C52.5677 41.6415 51.9627 41.36 51.4744 40.7991C50.9861 40.236 50.7419 39.5805 50.7419 38.8304C50.7419 38.0803 50.9839 37.4336 51.4656 36.8925C51.9473 36.3492 52.5567 36.0786 53.2935 36.0786C54.0436 36.0786 54.6617 36.3492 55.15 36.8925C55.6383 37.4358 55.8825 38.0803 55.8825 38.8304Z" fill="white"/>
</svg>
