<svg width="73" height="70" viewBox="0 0 73 70" fill="none" xmlns="http://www.w3.org/2000/svg">
<path d="M1.83781 68.6855C2.96039 69.8169 4.54314 70.2184 5.99986 69.8872L0.677122 64.5117C0.331261 65.9655 0.718158 67.5541 1.83781 68.6855Z" fill="white"/>
<path d="M40.1112 38.074C40.3867 37.8014 40.3896 37.353 40.117 37.0774L38.0858 35.0257L58.3832 14.9218L64.4006 11.9996L71.1595 3.27981L67.9119 0L59.1276 6.67394L56.1468 12.665L35.8495 32.7688L33.8183 30.7171C33.5457 30.4416 33.0972 30.4387 32.8217 30.7113L31.9747 31.5495C31.8603 31.6609 31.7871 31.8075 31.7695 31.9657C31.6786 32.7806 31.1129 35.4918 27.5547 36.1102C27.4081 36.1366 27.2733 36.2011 27.1707 36.3066L1.24875 61.9794C0.659615 62.5627 0.65668 63.5123 1.23995 64.1015L6.422 69.3333C7.00528 69.9225 7.95493 69.9254 8.54406 69.3421L34.466 43.6693C34.5715 43.5667 34.639 43.4319 34.6653 43.2854C35.3189 39.7359 38.036 39.1936 38.8508 39.1116C39.0091 39.0969 39.1557 39.0236 39.27 38.9123L40.1112 38.074ZM2.79633 63.4479C2.52668 63.1753 2.5296 62.7356 2.80219 62.463L26.6285 38.8654C26.9011 38.5957 27.3407 38.5987 27.6133 38.8712C27.8829 39.1438 27.88 39.5835 27.6074 39.8561L3.78115 63.4537C3.50857 63.7234 3.06598 63.7204 2.79633 63.4479ZM5.92373 65.6168C5.65115 65.8865 5.21149 65.8835 4.93891 65.611C4.66925 65.3384 4.66925 64.8987 4.94477 64.6261L28.771 41.0285C29.0436 40.7588 29.4833 40.7588 29.7559 41.0343C30.0255 41.3069 30.0255 41.7466 29.75 42.0192L5.92373 65.6168ZM31.8955 44.1852L8.06924 67.7829C7.79665 68.0525 7.357 68.0525 7.08441 67.777C6.81476 67.5044 6.81476 67.0648 7.09028 66.7922L30.9166 43.1945C31.1891 42.9248 31.6288 42.9248 31.9014 43.2003C32.171 43.4729 32.1681 43.9126 31.8955 44.1852Z" fill="white"/>
<path d="M71.4171 56.2554C69.8343 53.8549 67.1612 53.638 66.5164 53.6234C66.3816 53.6204 66.2438 53.6175 66.109 53.6116C60.7159 53.3361 57.8435 50.4608 57.8435 50.4608L40.9931 33.6104L39.5598 35.029L40.8524 36.3333C41.5324 37.0221 41.5294 38.1359 40.8407 38.8159L39.9936 39.6541C39.7415 39.9062 39.4162 40.0733 39.0703 40.1348L53.6199 54.6844C55.7244 57.1318 55.3316 58.3277 55.3521 60.0013C55.3756 61.6749 54.0947 64.0842 56.2227 66.6283C58.5059 69.4597 61.6744 69.9286 63.0138 69.996C63.2952 70.0107 63.4799 69.7059 63.3363 69.4626L61.0676 65.6347C60.2499 64.2542 60.4726 62.4839 61.6275 61.3701C62.199 60.819 62.8263 60.2915 63.3187 59.799C63.4125 59.7053 63.5209 59.6114 63.6381 59.5235C65.2707 58.2983 67.6126 58.7556 68.7762 60.4351L71.2295 63.9816C71.3497 64.1574 71.6164 64.1428 71.719 63.9582C74.014 59.8606 71.4171 56.2554 71.4171 56.2554Z" fill="white"/>
<path d="M6.64462 17.0439C9.18875 19.1719 11.5981 17.891 13.2717 17.9145C14.9453 17.9379 16.1441 17.5422 18.5885 19.6467L30.7288 31.787C30.7845 31.4147 30.9575 31.066 31.2271 30.7992L32.0742 29.961C32.4054 29.6327 32.845 29.4539 33.3111 29.4539C33.783 29.4539 34.2255 29.6385 34.5597 29.9727L35.8523 31.277L37.2679 29.876L22.8121 15.4202C22.8121 15.4202 19.9397 12.5478 19.6613 7.15468C19.6554 7.01985 19.6525 6.88209 19.6496 6.74726C19.632 6.10243 19.418 3.42935 17.0175 1.8466C17.0175 1.8466 13.4124 -0.753228 9.31185 1.54469C9.1272 1.65021 9.11254 1.914 9.28841 2.03417L12.8349 4.48743C14.5144 5.64812 14.9687 7.99002 13.7465 9.62553C13.6586 9.74277 13.5677 9.85122 13.471 9.94501C12.9786 10.4374 12.451 11.0647 11.8999 11.6362C10.7862 12.791 9.01582 13.0138 7.63531 12.196L3.80739 9.92743C3.56412 9.78381 3.25929 9.96846 3.27395 10.2498C3.34429 11.5952 3.81325 14.7607 6.64462 17.0439Z" fill="white"/>
</svg>
