<svg width="59" height="75" viewBox="0 0 59 75" fill="none" xmlns="http://www.w3.org/2000/svg">
<path d="M48.2442 25.0672C48.6028 23.523 48.7941 21.9107 48.7941 20.2521C48.7941 9.08454 40.2331 0 29.7122 0C19.1913 0 10.6303 9.08454 10.6303 20.2521C10.6303 21.7567 10.7909 23.2217 11.0878 24.6338C10.1684 25.4917 9.58984 26.7103 9.58984 28.0675C9.58984 30.3573 11.2286 32.2622 13.3952 32.6801L16.9939 39.5408L20.9202 42.9481C20.8872 43.1637 20.8872 43.3902 20.9224 43.6168C21.1094 44.8398 22.2532 45.68 23.4762 45.4931C24.6992 45.3061 25.5395 44.1623 25.3525 42.9393C25.1656 41.7163 24.0217 40.876 22.7987 41.063C22.6953 41.0784 22.5964 41.1048 22.4974 41.1334L18.6524 37.7987L18.3268 37.1806C18.428 37.2488 18.527 37.317 18.6238 37.3852C20.0624 38.1815 21.0786 38.0693 21.0786 38.0693C20.7464 37.8229 20.5001 37.5128 20.3153 37.1784C20.1437 36.9651 20.0162 36.6329 19.9348 36.1666C19.7082 35.1987 19.8094 34.3167 19.8094 34.3167C19.8094 34.3167 23.3926 40.3965 29.7276 40.2315C29.7342 40.2315 29.743 40.2337 29.7496 40.2337C29.7694 40.2337 29.7892 40.2337 29.8134 40.2315C29.985 40.2315 30.1543 40.2117 30.3259 40.1985C30.4337 40.1875 30.5613 40.1721 30.6911 40.1545C36.5795 39.4638 40.3893 34.0857 40.9194 32.8561C41.014 32.9111 41.1108 32.9661 41.2053 33.0167C40.9194 34.5103 40.6335 36.0082 40.3013 37.7305C42.6 36.6747 44.2211 35.0382 45.1141 32.7461C47.4809 32.5042 49.3287 30.5025 49.3287 28.0719C49.3265 26.9281 48.9195 25.8832 48.2442 25.0672ZM38.4184 33.0255C35.0398 37.2466 30.9924 38.9909 26.2478 37.1806C23.2738 36.0478 21.1226 33.5622 19.6379 30.2539C18.8944 28.5976 20.5815 25.9338 22.3764 25.3795C25.7309 24.3347 29.1337 23.3866 32.354 21.8711C34.5492 20.8394 36.4695 18.9104 38.6758 17.2606C38.3986 21.5037 38.843 25.4609 39.8108 29.4137C40.0462 30.3771 39.1575 32.1038 38.4184 33.0255ZM40.4377 8.84038C39.527 8.00891 38.4998 7.38422 37.4044 7.03007C37.3978 7.02787 37.3912 7.02567 37.3868 7.02347C35.9768 6.56594 34.6438 6.26239 33.3922 6.08862C31.219 5.77847 29.2855 5.85546 27.5874 6.16561C25.4185 6.56375 23.6302 7.34902 22.2092 8.21568C21.2876 8.7766 20.5199 9.37489 19.9062 9.9292C19.9018 9.9314 19.8974 9.938 19.893 9.9402C18.7272 10.9872 18.1091 11.8627 18.0189 11.9969C18.0101 12.0101 18.0057 12.0145 18.0057 12.0145C16.345 14.1371 15.0978 16.6447 14.1783 19.4515C13.9474 20.1598 13.7516 21.0572 13.6152 22.0668C13.5558 21.4707 13.5228 20.8658 13.5228 20.2521C13.5228 10.6793 20.7838 2.89254 29.7122 2.89254C38.6406 2.89254 45.9016 10.6793 45.9016 20.2521C45.9016 20.967 45.8554 21.6709 45.7762 22.3638C45.2769 18.433 44.0561 14.6958 42.3954 11.1214C41.9841 10.2416 41.2537 9.58606 40.4377 8.84038Z" fill="white"/>
<path d="M9.91817 74.0717L11.2907 66.5555C11.2907 66.5555 12.4082 69.4678 13.2595 74.0717H45.658C46.5093 69.4678 47.6267 66.5555 47.6267 66.5555L48.9993 74.0717H58.9153C57.0236 61.8592 55.3915 51.7805 54.9163 50.1813C53.6009 45.76 40.4537 43.4878 40.4537 43.4878C34.717 63.3286 29.4576 64.4042 29.4576 64.4042C29.4576 64.4042 24.1983 63.3286 18.4616 43.4878C18.4616 43.4878 5.31433 45.7578 3.99894 50.1813C3.52382 51.7805 1.8895 61.8592 0 74.0717H9.91817ZM29.4576 66.7887C30.0361 66.7887 30.5069 67.2572 30.5069 67.8379C30.5069 68.4164 30.0383 68.8871 29.4576 68.8871C28.8791 68.8871 28.4084 68.4186 28.4084 67.8379C28.4106 67.2572 28.8791 66.7887 29.4576 66.7887Z" fill="white"/>
</svg>
